<?xml version="1.0" encoding="UTF-8"?>
<svg id="Layer_1" xmlns="http://www.w3.org/2000/svg" version="1.1" viewBox="0 0 539 478">
  <!-- Generator: Adobe Illustrator 29.0.1, SVG Export Plug-In . SVG Version: 2.1.0 Build 192)  -->
  <defs>
    <style>
      .st0 {
        fill: #3546ab;
      }

      .st1 {
        stroke: #f5ebdd;
      }

      .st1, .st2, .st3, .st4, .st5, .st6, .st7, .st8 {
        fill: none;
      }

      .st1, .st2, .st3, .st4, .st5, .st6, .st8 {
        stroke-width: 4px;
      }

      .st1, .st3, .st4, .st5, .st6, .st7, .st8 {
        stroke-linecap: round;
      }

      .st1, .st4, .st5, .st7 {
        stroke-linejoin: round;
      }

      .st9 {
        fill: #ffb494;
      }

      .st10 {
        fill: #a15842;
      }

      .st11 {
        fill: #3ec1f3;
      }

      .st2, .st3, .st6, .st8 {
        stroke-miterlimit: 10;
      }

      .st2, .st6 {
        stroke: #a15842;
      }

      .st12 {
        fill: #f4e6d8;
      }

      .st3, .st5, .st7 {
        stroke: #30242a;
      }

      .st4 {
        stroke: #ffb494;
      }

      .st13 {
        fill: #f5ebdd;
      }

      .st14 {
        fill: #ffbe21;
      }

      .st15 {
        fill: #ca7358;
      }

      .st7 {
        stroke-width: 8px;
      }

      .st16 {
        fill: #4856df;
      }

      .st8 {
        stroke: #000;
      }

      .st17 {
        fill: #30242a;
      }
    </style>
  </defs>
  <path class="st9" d="M291.3,15h6c22.7,0,44.4,9,60.4,25,16,16,25,37.8,25,60.4v163h-176.9V100.5c0-11.2,2.2-22.3,6.5-32.7,4.3-10.4,10.6-19.8,18.5-27.7,7.9-7.9,17.4-14.2,27.7-18.5,10.4-4.3,21.5-6.5,32.7-6.5Z"/>
  <path class="st15" d="M326.4,165.4v100.7h-78.5v-100.7h78.5ZM328.5,163.3h-82.7v104.8h82.7v-104.8Z"/>
  <path class="st15" d="M328.5,163.3h-82.7v21.7h82.7v-21.7Z"/>
  <path class="st15" d="M245.4,111v155.6h-47.3V111h47.3ZM247.5,108.9h-51.4v159.8h51.4V108.9Z"/>
  <path class="st15" d="M391.3,79.5v186.6h-62.4V79.5h62.4ZM393.4,77.4h-66.5v190.8h66.5V77.4Z"/>
  <path class="st15" d="M353.9,102.8h.6c2.3,0,4.4.9,6,2.5,1.6,1.6,2.5,3.8,2.5,6v19.2h-17.6v-19.2c0-1.1.2-2.2.6-3.3.4-1,1.1-2,1.8-2.8.8-.8,1.7-1.4,2.8-1.8,1-.4,2.1-.6,3.3-.6Z"/>
  <path class="st4" d="M343.4,117.9h21.7"/>
  <path class="st13" d="M353.9,152.6h.6c2.3,0,4.4.9,6,2.5,1.6,1.6,2.5,3.8,2.5,6v19.2h-17.6v-19.2c0-1.1.2-2.2.6-3.3.4-1,1.1-2,1.8-2.8.8-.8,1.7-1.4,2.8-1.8,1-.4,2.1-.6,3.3-.6Z"/>
  <path class="st4" d="M343.4,167.7h21.7"/>
  <path class="st13" d="M353.9,202.3h.6c2.3,0,4.4.9,6,2.5,1.6,1.6,2.5,3.8,2.5,6v19.2h-17.6v-19.2c0-2.3.9-4.4,2.5-6,1.6-1.6,3.8-2.5,6-2.5h0Z"/>
  <path class="st4" d="M343.4,217.4h21.7"/>
  <path class="st17" d="M353.9,252h.6c2.3,0,4.4.9,6,2.5,1.6,1.6,2.5,3.8,2.5,6v17.6h-17.6v-17.6c0-1.1.2-2.2.6-3.3.4-1,1.1-2,1.8-2.8.8-.8,1.7-1.4,2.8-1.8,1-.4,2.1-.6,3.3-.6Z"/>
  <path class="st15" d="M393.4,77.4h-66.5v8.3h66.5v-8.3Z"/>
  <path class="st15" d="M247.5,104.8h-51.4v8.3h51.4v-8.3Z"/>
  <path class="st13" d="M278.4,204.6h-17.6v22.7h17.6v-22.7Z"/>
  <path class="st4" d="M258.7,214.7h21.7"/>
  <path class="st4" d="M269.5,228.3v-13.6"/>
  <path class="st15" d="M278.4,245.6h-17.6v22.7h17.6v-22.7Z"/>
  <path class="st4" d="M258.7,255.7h21.7"/>
  <path class="st4" d="M269.5,269.3v-13.6"/>
  <path class="st17" d="M311.6,204.6h-17.6v22.7h17.6v-22.7Z"/>
  <path class="st4" d="M292,214.7h21.7"/>
  <path class="st4" d="M302.8,228.3v-13.6"/>
  <path class="st13" d="M311.6,245.6h-17.6v22.7h17.6v-22.7Z"/>
  <path class="st4" d="M292,255.7h21.7"/>
  <path class="st4" d="M302.8,269.3v-13.6"/>
  <path class="st13" d="M257.6,76.6c7.2,0,13.1-5.9,13.1-13.1s-5.9-13.1-13.1-13.1-13.1,5.9-13.1,13.1,5.9,13.1,13.1,13.1Z"/>
  <path class="st13" d="M405.5,263.6h-222.3v15.1h222.3v-15.1Z"/>
  <path class="st13" d="M297.8,0h-7c-55.3,0-100.1,44.8-100.1,100.1v178.7h207.2V100.1c0-55.3-44.8-100.1-100.1-100.1ZM286.8,263.6h-80.9v-126h80.9v126ZM286.8,122.5h-80.9v-21.9c0-21.9,8.4-42.9,23.4-58.8,15.1-15.9,35.6-25.4,57.5-26.5v107.2ZM382.8,263.6h-80.9v-126h80.9v126ZM382.8,122.5h-80.9V15.2c21.8,1.2,42.4,10.7,57.5,26.5,15,15.9,23.4,36.9,23.4,58.8v21.9Z"/>
  <path class="st9" d="M20.2,477.8c11.1,0,20.2-9,20.2-20.2s-9-20.2-20.2-20.2S0,446.5,0,457.7s9,20.2,20.2,20.2Z"/>
  <path class="st14" d="M469.8,293.3c0,.6-.1,1.1-.3,1.6-1.6,3.6-8.2,4.1-14.9,1.2-5.6-2.4-9.3-6.5-9.5-9.8v44.4h24.7v-37.3h0Z"/>
  <path class="st10" d="M460.3,283.3c-6.6-2.9-13.3-2.4-14.9,1.2-.3.6-.4,1.2-.3,1.9.2,3.3,3.9,7.4,9.5,9.8,6.6,2.9,13.3,2.4,14.9-1.2.2-.5.3-1.1.3-1.6,0-3.4-3.8-7.6-9.5-10.1Z"/>
  <path class="st14" d="M488.7,308c-.2,3.3-3.9,7.4-9.5,9.8-6.6,2.9-13.3,2.4-14.9-1.2-.2-.5-.3-1.1-.3-1.6v15.6h24.7v-22.7h0Z"/>
  <path class="st10" d="M488.4,306.1c-1.6-3.6-8.2-4.1-14.9-1.2-5.7,2.5-9.5,6.7-9.5,10.1,0,.6.1,1.1.3,1.6,1.6,3.6,8.2,4.1,14.9,1.2,5.6-2.4,9.3-6.5,9.5-9.8,0-.6,0-1.3-.3-1.9Z"/>
  <path class="st6" d="M464.7,330.7v-15.1"/>
  <path class="st5" d="M457.4,280v8.6"/>
  <path class="st5" d="M476.4,301.7v9.1"/>
  <path class="st17" d="M351.7,478c-.6,0-1.3-.1-1.8-.4-.6-.3-1-.7-1.4-1.2-.4-.5-.6-1.1-.7-1.7,0-.6,0-1.3.2-1.9l12.5-38c.3-.8.8-1.5,1.5-2,.7-.5,1.5-.8,2.3-.8h8.7c.7,0,1.4.2,2,.5.6.3,1.1.8,1.5,1.4.4.6.5,1.3.5,2,0,.7-.2,1.4-.5,2l-21.3,38c-.3.6-.8,1.1-1.5,1.5-.6.4-1.3.5-2,.6Z"/>
  <path class="st17" d="M518.9,478c.6,0,1.3-.1,1.8-.4.6-.3,1-.7,1.4-1.2.4-.5.6-1.1.7-1.7,0-.6,0-1.3-.2-1.9l-12.5-38c-.3-.8-.8-1.5-1.5-2-.7-.5-1.5-.8-2.3-.8h-8.8c-.7,0-1.4.2-2,.5-.6.3-1.1.8-1.5,1.4-.4.6-.5,1.3-.5,2,0,.7.2,1.4.5,2l21.3,38c.3.6.8,1.1,1.5,1.5.6.4,1.3.6,2,.6Z"/>
  <path class="st10" d="M538.2,330.7h-205.1v117.4h205.1v-117.4Z"/>
  <path class="st9" d="M523.1,345.8h-174.9v87.2h174.9v-87.2Z"/>
  <path class="st2" d="M435.4,344.3v90.2"/>
  <path class="st17" d="M456,394.7c2.9,0,5.3-2.4,5.3-5.3s-2.4-5.3-5.3-5.3-5.3,2.4-5.3,5.3,2.4,5.3,5.3,5.3Z"/>
  <path class="st17" d="M415.2,394.7c2.9,0,5.3-2.4,5.3-5.3s-2.4-5.3-5.3-5.3-5.3,2.4-5.3,5.3,2.4,5.3,5.3,5.3Z"/>
  <path class="st10" d="M81.1,429.1v8.6h74.1v-8.6h-74.1Z"/>
  <path class="st14" d="M167.4,473.6l-18.4-110.1h11.2c1.2,0,2.4-.5,3.2-1.3.9-.9,1.3-2,1.3-3.2s-.5-2.4-1.3-3.2c-.9-.9-2-1.3-3.2-1.3h-84.2c-1.2,0-2.4.5-3.2,1.3-.9.9-1.3,2-1.3,3.2s.5,2.4,1.3,3.2c.9.9,2,1.3,3.2,1.3h11.1l-18.4,110.1c0,.5,0,1.1,0,1.6.1.5.4,1,.8,1.4.4.4.8.8,1.3,1,.5.2,1,.4,1.6.4.9,0,1.7-.3,2.4-.8.7-.5,1.1-1.3,1.3-2.2l24.3-111.6h34.9l24.3,111.6c.2.9.7,1.6,1.3,2.2.7.5,1.5.8,2.4.8s1.1-.1,1.6-.4c.5-.2.9-.6,1.3-1,.4-.4.6-.9.8-1.4.1-.5.2-1.1,0-1.6Z"/>
  <path class="st10" d="M160.3,363.4c1.2,0,2.4-.5,3.2-1.3.9-.9,1.3-2,1.3-3.2s-.5-2.4-1.3-3.2c-.9-.9-2-1.3-3.2-1.3h-84.2c-1.2,0-2.4.5-3.2,1.3-.9.9-1.3,2-1.3,3.2s.5,2.4,1.3,3.2c.9.9,2,1.3,3.2,1.3h11.1c0,.1,13.4.1,13.4.1h0c0-.1,34.9-.1,34.9-.1h0c0,.1,13.4.1,13.4.1h0c0-.1,11.2-.1,11.2-.1Z"/>
  <path class="st16" d="M165.3,429h53.6c.7-11.4,3-26.5,5-46.8,1.8-18.1,3.3-33.2,3.2-45.8-.2-20.9-53.6,4.4-53.6,4.4,0,4.6.9,8.9.9,13.2,0,11-5.5,20.4-9.5,33.7-6,20.2-1,41.3-1,41.3h1.4Z"/>
  <path class="st11" d="M221.7,472.3h-46.9c-.7.2-1.2.6-1.6,1.2-.4.6-.5,1.3-.4,1.9.1.7.4,1.3,1,1.7.5.4,1.2.7,1.9.7h69c.6-6.6-3.2-11.7-14-19.2-6.1,5.3-9,13.6-9,13.6Z"/>
  <path class="st10" d="M228.3,457.1c-2.2-1.4-4.2-3.3-5.7-5.5-3.6-5.3-4.4-12.5-3.8-22.7h-46.4c0,7.6.6,15.2,1.6,22.7,1.2,8.5,2.8,14.4,4.1,20.5h-2.4c-.3,0-.6,0-.9.1h46.9s2.9-8.2,9-13.5c-.8-.5-1.6-1.1-2.4-1.7Z"/>
  <path class="st5" d="M219.4,419.8c-2.9-5.7-4.8-11.8-5.8-18.2-3.4-23.6-1.4-35.7-11-46.3h-28"/>
  <path class="st16" d="M236.8,431h0c0,.1,41.4-19.2,41.4-19.2-3.2-9.6-6.6-22.4-12.1-39.2-5.2-15.7-8.6-27.4-11.9-36.5-4.5,3.3-10.1,4.7-15.7,4.1-5.6-.6-10.7-3.3-14.3-7.6-3.7-4.2-5.6-9.7-5.5-15.3.1-5.6,2.4-10.9,6.2-15-22.1-10-100.5-16.5-100.5-16.5l-44.4-6.6c-2.3,3.9-4.3,10-5.4,17.2h15.5v16.6c0,3.4-1.3,6.6-3.7,8.9-2.4,2.4-5.6,3.7-8.9,3.7h-1.5c4.2,15.6,15.1,28.7,37.4,28.7h89.7c9.6,10.6,7.6,22.7,11,46.3,2.8,19.3,15.9,33.5,15.9,33.5l6.8-3.2Z"/>
  <path class="st11" d="M299.8,453.1l-41.2,18.7c-.7.5-1.2,1.2-1.4,2.1-.2.8,0,1.7.4,2.4.4.7,1.1,1.3,1.9,1.5.8.3,1.7.2,2.5-.2l62.5-29.1c-2.4-6.8-8.7-9.4-23.7-12h-.6c-1.2,5.4-1.4,11-.4,16.6Z"/>
  <path class="st10" d="M300.3,436.4c-4.3-.8-7.7-2.3-10.4-4.4-5.1-4-8.3-10.5-11.6-20.3l-41.4,19.4c3.5,8.1,8.4,16.5,13.1,23.9,4.1,6.4,8,12.1,10.6,15.8l-1.5.7c-.2,0-.3.2-.5.3l41.2-18.7c-1-5.6-.8-11.2.4-16.7Z"/>
  <path class="st11" d="M241.2,340.2c4.7,0,9.3-1.5,13.1-4.2-6.5-18.1-12.1-25.7-29-33.6h-.3c-3,3-5.1,7-5.9,11.4-.8,4.3-.3,8.8,1.4,12.8,1.7,4,4.6,7.5,8.3,9.9,3.7,2.4,8,3.7,12.4,3.7h0Z"/>
  <path class="st11" d="M77.6,325.6c3.4,0,6.6-1.3,9-3.7,2.4-2.4,3.7-5.6,3.7-9v-16.6h-15.5c-1.4,9-1.3,19.6,1.3,29.2h1.5Z"/>
  <path class="st5" d="M202.4,355.6h15.1"/>
  <path class="st5" d="M267.4,195.3s-27.2-31.2-59.4-42.6"/>
  <path class="st0" d="M182,164.9c-1-2.4,2.3-6.1,7.8-9.3-7.4-1.9-12.7-5.3-12.2-8.2.5-2.9,6.7-4.3,14.3-3.4-4-4.9-5.8-9.6-4-11.4,2.3-2.4,9.4.6,16,6.8,5.7,5.4,9.1,11.3,8.4,14.4-.4,3.1-5.7,7.5-12.9,10.5-8.3,3.5-16.1,3.8-17.3.7Z"/>
  <path class="st17" d="M212.6,163.5c5.2,0,9.5-4.3,9.5-9.5s-4.3-9.5-9.5-9.5-9.5,4.3-9.5,9.5,4.3,9.5,9.5,9.5Z"/>
  <path class="st17" d="M232.6,166.2c2.6-1,1.4-10.6-2.6-21.6-4.1-11-9.5-19.1-12.1-18.1-2.6,1-1.4,10.6,2.6,21.6,4.1,11,9.5,19.1,12.1,18.1Z"/>
  <path class="st5" d="M232.1,168.1s4,11.1,2,22.7"/>
  <path class="st10" d="M158.5,123.9c-8.6,9.7-17.7,11.8-17.7,11.8-5.9-6.4-16.6-6.4-18.3,2.7-1.8,10.1,10.7,12.9,10.7,12.9,0,0,3.2,13.1-1.7,19.5-4.3,5.7-9.8,6.7-21,7.9,14.7,24.8,29.6,22.8,34.6,22.8,12,0,15.3-13.9,16.3-21-2.7-1-5.5-1.7-8.3-2.3l-1.6-9.7s7.5,2.7,14-1.1c6.5-3.8,8.1-10.8,5.9-21.5-1.3-6.4-1.2-14.3-2.3-21.3-4.3.7-10.6-.8-10.6-.8Z"/>
  <path class="st10" d="M248,177.9c-2.3-9.1-20.2-14.1-20.2-14.1,0,0,1.1-20.5-3.5-21.2-3.5-.5-7.1,8.1-10.1,24.7-3.4,18.6-1.5,52.9-1.5,52.9,0,0-3.7-3.4-9-8.1-.5,1.1-1.3,2-2.4,2.6-1,.6-2.2,1-3.4,1,.8,1,1.2,2.1,1.4,3.3.1,1.2,0,2.4-.6,3.5-.5,1.1-1.3,2-2.4,2.7-1,.7-2.2,1-3.4,1,.8,1,1.2,2.1,1.4,3.3.1,1.2,0,2.4-.6,3.5-.5,1.1-1.3,2-2.4,2.7-1,.7-2.2,1-3.4,1,.8,1,1.3,2.2,1.4,3.5.1,1.3-.2,2.6-.8,3.7-.6,1.1-1.5,2-2.7,2.7-1.1.6-2.4.9-3.7.8,11,7.2,26.1,15.6,36.1,15.6,52.4,0,31.2-79.2,29.7-85.2Z"/>
  <path class="st14" d="M188.7,243.8c.5-1.1.7-2.3.6-3.5-.1-1.2-.6-2.4-1.4-3.3,1.2,0,2.4-.4,3.4-1,1-.7,1.8-1.6,2.4-2.7.5-1.1.7-2.3.6-3.5-.1-1.2-.6-2.4-1.4-3.3,1.2,0,2.4-.4,3.4-1,1-.7,1.8-1.6,2.4-2.7.5-1.1.7-2.3.6-3.5-.1-1.2-.6-2.4-1.4-3.3,1.2,0,2.4-.4,3.4-1,1-.6,1.8-1.5,2.4-2.6-9.1-8.1-22.9-20.2-30.3-25.6-3.6-2.6-8.1-4.6-12-5.9-.9,7.2-4.3,21-16.2,21s-20,2-34.6-22.8l-4.7.5c-16.2,1.8-23.6,10.5-28,21-2.7,6.5-4.8,18.3-4.8,18.3-1.7,10.8-2.5,21.8-2.6,32.8l21.1,19.5,56.7,1.4c4.5-6.7,12.9-19,15.6-23.8,3.5-6,4-11.1,4-11.1,0,0,6.1,4.7,14.3,10.1,1.3.1,2.7-.2,3.8-.8,1.2-.7,2.1-1.7,2.7-2.9Z"/>
  <path class="st17" d="M164.4,112.1c-6.4-8.1-24.2-13.4-38.2-3.2-14,10.2-12.9,26.9-12.4,33.3,0,0-15.1-4.8-25.8,6.4-3.1,3.2-5.4,7.2-6.6,11.5-1.2,4.3-1.4,8.9-.4,13.2,0,0-19.8-.6-23.7,17.7-2.2,10.4,1.9,17.3,6.4,21.6,2.7,2.5,5.8,4.5,9.2,5.8,0,0,2.2-11.8,4.8-18.3,4.3-10.4,11.7-19.2,28-21l4.7-.5c11.3-1.3,16.7-2.2,21-7.9,4.8-6.5,1.7-19.5,1.7-19.5,0,0-12.5-2.8-10.8-12.9,1.6-9.1,12.4-9.1,18.3-2.7,0,0,9.1-2.1,17.7-11.8,0,0,6.3,1.5,10.6.8-.7-4.8-2-9.3-4.7-12.6Z"/>
  <path class="st7" d="M249.1,185.1c-1.5-.7-2.4-2.5-2.2-5.9,0,0-3.2,4-6.5,2.2-3.4-1.8-2-5.5-2-5.5,0,0-3,2-5.5-.5-2.3-2.3-.5-6-.5-6,0,0-3.4,1.4-4.5-1-1.5-3,.3-6.1,2.3-8.5"/>
  <path class="st8" d="M80.1,173.8c.6,2.7,1.6,5.3,3,7.6"/>
  <path class="st5" d="M211.7,220.9l1.3,15.7"/>
  <path class="st5" d="M166.1,220c3.3,5.9,3.2,13,2.8,17.3"/>
  <path class="st5" d="M136.3,236.7l-16.1.5"/>
  <path class="st5" d="M151.2,169.6c-2.3-.9-4.5-1.9-6.6-3.1"/>
  <path class="st5" d="M155.2,184.5l-.9-5.6"/>
  <path class="st8" d="M112.8,142.4l1.1,9.3"/>
  <path class="st5" d="M166.1,153.5c-1.1.7-4.9,1-6.7-2.3"/>
  <path class="st5" d="M135.8,142.9l-5-2.5"/>
  <path class="st5" d="M159.1,140.7c-.8,1.1-4.6,3.2-7.5.8"/>
  <path class="st5" d="M171.4,139.1c-.6.1-1.2.1-1.8,0-.6-.1-1.2-.3-1.7-.7"/>
  <path class="st5" d="M164.5,141c.6,1.3,1.1,2.7,1,3.3-.2.7-.6,1.3-1.1,1.7"/>
  <path class="st12" d="M133.1,149l-6.9,6.5c-.4.4-.6.8-.8,1.3-.2.5-.2,1,0,1.5.1.5.3,1,.7,1.4.3.4.8.7,1.2.9l8.1,2.9c.5.2,1,.2,1.5.1.5,0,1-.3,1.4-.6.4-.3.7-.7.9-1.2.2-.5.3-1,.2-1.5l-1.3-9.4c0-.5-.3-1.1-.6-1.5-.3-.4-.8-.8-1.3-.9-.5-.2-1.1-.2-1.6-.1-.5.1-1,.4-1.4.7Z"/>
  <path class="st10" d="M231.9,150.7s3.5-2,6.6-1c4.7,1.6,4,5.9,4,5.9,0,0,6.6-2.4,7.8,4.6,0,0,5.9,1.3,4.6,7.2,0,0,4.8.3,3.8,6.5-1,6.3-5.1,11.5-7.7,11.5s-4.4-1.6-4.1-6.2c0,0-3.2,4-6.5,2.2s-2-5.5-2-5.5c0,0-3,2-5.5-.5-2.3-2.3-.5-6-.5-6,0,0-3.4,1.4-4.5-1-2.5-5,4.4-10.5,5.5-12.1l-1.5-5.5Z"/>
  <path class="st5" d="M230.4,171.1c3.5-3.2,9.4-9.2,12.2-15.5"/>
  <path class="st5" d="M236.7,178.4c5.8-4.9,10.5-10.9,13.8-17.7"/>
  <path class="st5" d="M245.6,182.1c1.6-1.9,7-8.7,9.7-14.2"/>
  <path class="st17" d="M244.7,297.9h-87.3l19.8-62.7c.6-1.8,1.7-3.5,3.3-4.6,1.6-1.1,3.5-1.8,5.4-1.8h73.8c1.4,0,2.8.3,4.1,1,1.3.6,2.4,1.6,3.2,2.7.8,1.2,1.4,2.5,1.6,3.9.2,1.4.1,2.9-.3,4.2l-16.4,51.8c-.5,1.5-1.5,2.9-2.8,3.9-1.3,1-2.9,1.5-4.5,1.5Z"/>
  <path class="st17" d="M106.7,290.8c-.3.8-.3,1.7-.2,2.5.1.8.5,1.6,1,2.3.5.7,1.2,1.2,1.9,1.6.8.4,1.6.6,2.5.6h132.8c1.6,0,3.2-.5,4.5-1.5,1.3-1,2.3-2.3,2.8-3.9l.5-1.7H106.7Z"/>
  <path class="st14" d="M231.3,258c-2-2.8-11.3,4.6-11.9,5.2-.4-.6-5.1-7.9-8.7-5.2-3.1,2.4,3.6,13.2,5.4,15.9,0,0,.2.2.3.2.1,0,.2,0,.3,0s.2,0,.3,0c.1,0,.2-.1.3-.2,3.3-2.8,15.7-13.5,14-15.9Z"/>
  <path class="st14" d="M222.9,256c.7-2.4.7-4.5,0-4.7-.8-.2-2,1.5-2.7,3.8s-.7,4.5,0,4.7c.8.2,2-1.5,2.7-3.8Z"/>
  <path class="st14" d="M56.7,241.1c1.1.4,2.4.5,3.6.3,1.2-.2,2.3-.8,3.2-1.6.1,1.2.6,2.4,1.3,3.3.7,1,1.7,1.7,2.9,2.2,1.1.4,2.4.6,3.6.3,1.2-.2,2.3-.8,3.2-1.6.1,1.2.6,2.4,1.3,3.3.7,1,1.7,1.7,2.9,2.2,1.1.4,2.4.6,3.6.3,1.2-.2,2.3-.8,3.2-1.6,0,1,.4,1.9.9,2.7.5.8,1.1,1.5,1.9,2.1.8.5,1.7.9,2.6,1.1.9.2,1.9.1,2.8-.2l7.9-21.1c3-8.1,4.5-16.7,4.2-25.4l-.8-28.1s-18.1,1.5-28.7,14.6c-5.4,6.7-16.1,24.5-22.9,43.8.7,1.5,2,2.6,3.5,3.2Z"/>
  <path class="st10" d="M89.4,253.8c-1.1-.4-2.1-1.2-2.9-2.2-.7-1-1.2-2.1-1.3-3.4-.9.8-2,1.4-3.2,1.6-1.2.2-2.4.1-3.6-.3-1.1-.4-2.1-1.2-2.9-2.2-.7-1-1.2-2.1-1.3-3.3-.9.8-2,1.4-3.2,1.6-1.2.2-2.4.1-3.6-.3-1.1-.4-2.1-1.2-2.9-2.2-.7-1-1.2-2.1-1.3-3.3-.7.7-1.6,1.2-2.6,1.5-1,.3-2,.3-3,.1-1-.2-1.9-.6-2.7-1.2-.8-.6-1.5-1.4-1.9-2.3-5.9,16.7-9,34.7-3.2,47.5,12.3,27.8,49.4,18,58.1,15.4,8.7-2.6,25.7-11.3,37-9.8,11.3,1.5,24.2,7.2,26.2,0,0,0,6.9-.2,4.7-6.8,0,0,3.5-.4,4-3,1-5.1-11.3-9.8-11.3-9.8,0,0,9.8,1.6,11.8-.5,2.6-2.6,0-6.8-15.9-10.7-17.5-4.2-40.7-1.7-75.1,4.5l4-10.8c-1.4.4-2.8.3-4.1-.2Z"/>
  <path class="st5" d="M101.6,230.1l-11.5,33.6"/>
  <path class="st5" d="M171.8,271.9c-5.6-2.1-14.9-5.4-22.1-6.6"/>
  <path class="st5" d="M176.2,284c-7.2-3.2-20.9-9.1-28.3-10.2"/>
  <path class="st5" d="M89.6,263.8c-3.9.6-9.9,1.7-16,2.9"/>
  <path class="st5" d="M171.1,291.8c-5.4-2.7-16.7-8.2-24.7-9.7"/>
  <path class="st11" d="M412,225.4s-4.1,9.2-14.8,9.2-14.8-9.2-14.8-9.2c0,0-30.2,69-.5,105.2h30.7c29.6-36.3-.5-105.2-.5-105.2Z"/>
  <path class="st17" d="M397.2,234.6c10.7,0,14.8-9.2,14.8-9.2h-29.6s4.1,9.2,14.8,9.2Z"/>
  <path class="st1" d="M424.9,286.8c-16.7.3-36.4,6.3-51.6,27.6"/>
  <path class="st1" d="M370.6,269.9c11.2-2.7,32.4-5.3,52.9-.4"/>
  <path class="st1" d="M423.4,304.5c-7.5,0-21.2,8.5-19.7,25.6"/>
  <path class="st3" d="M395.3,231.6c-.3-7.4-2.3-36.9-14-54.1"/>
  <path class="st17" d="M392.9,208.9c1.5-2.5-6.4-10-17.7-16.6-11.3-6.7-21.6-10-23.1-7.5-1.5,2.5,6.4,10,17.7,16.6,11.3,6.7,21.6,10,23.1,7.5Z"/>
  <path class="st17" d="M388.5,135.4c2.2-1.3,1.1-7.4-2.5-13.7-3.6-6.3-8.3-10.4-10.5-9.1-2.2,1.3-1.1,7.4,2.5,13.7,3.6,6.3,8.3,10.4,10.5,9.1Z"/>
  <path class="st0" d="M349.8,162.1c1.2-2.6,6.7-2.8,13.5-.8-4.2-7.4-5.4-14.4-2.7-16.1,2.8-1.8,8.6,2.2,13.7,9,.9-7,3.3-12,6.2-12,3.7,0,6.7,8.1,6.7,18.1,0,2.9-.2,5.7-.8,8.5-1.6-.7-3.4-1.1-5.1-.9-1.8.1-3.5.7-4.9,1.6-1.5.9-2.7,2.2-3.6,3.8-.9,1.5-1.3,3.3-1.3,5-2.7-.7-5.3-1.6-7.8-2.7-9.2-4.1-15.4-10.1-13.9-13.5Z"/>
  <path class="st17" d="M376.3,169.6c1.5-1,3.2-1.5,5-1.7,1.8-.1,3.6.2,5.2.9-.9,4.7-2.5,8.1-4.5,9.2-1.9,1.3-5.8,1.4-10.5.3,0-1.7.5-3.5,1.3-5,.8-1.5,2-2.8,3.5-3.8Z"/>
  <path class="st3" d="M399.2,231.1c1.4-8.2,8.9-48.3,20.9-71"/>
  <path class="st17" d="M460.4,215.7c.9-2.7-10.6-8.8-25.7-13.6-15-4.9-27.9-6.7-28.8-4-.9,2.7,10.6,8.8,25.7,13.6,15,4.9,27.9,6.7,28.8,4Z"/>
  <path class="st0" d="M417.8,124.9c2.9-.3,5.8,4.5,7.3,11.4,4.4-7.3,9.9-11.8,12.8-10.3,2.9,1.5,2.3,8.5-1.2,16.3,6.5-2.6,12.1-3,13.5-.5,1.8,3.2-3.8,9.8-12.5,14.7-2.5,1.4-5.1,2.6-7.8,3.5-.1-1.8-.7-3.4-1.7-4.9-1-1.5-2.3-2.7-3.8-3.5-1.5-.8-3.3-1.3-5-1.3-1.8,0-3.5.4-5,1.3-.7-2.7-1.2-5.4-1.5-8.2-1-10,1.3-18.3,4.9-18.7Z"/>
  <path class="st17" d="M424.3,151.6c1.6.8,2.9,2,3.9,3.5,1,1.5,1.6,3.2,1.7,5-4.5,1.5-8.3,1.8-10.2.6-2.1-1-4.1-4.3-5.4-9,1.5-.8,3.2-1.3,5-1.3,1.7,0,3.5.4,5,1.2Z"/>
  <path class="st0" d="M448.8,172.5h0c-2.4,1.1-4.4,2.9-5.5,5.3-1.1,2.4-1.3,5.1-.5,7.7.8,2.5,2.5,4.7,4.8,6,2.3,1.3,5,1.7,7.6,1.2h0c-13.7,4.3-26.2,3.3-28-2.3-1.7-5.6,8-13.6,21.7-17.9Z"/>
  <path class="st9" d="M445.6,190c1.2-.5,2.2-1.4,2.7-2.6.6-1.2.6-2.5.3-3.7-.4-1.2-1.2-2.3-2.4-2.9-1.1-.6-2.5-.8-3.7-.5.3-1.7,1.1-3.3,2.2-4.6,1.1-1.3,2.5-2.4,4.1-3l6.3,20.1c-1.7.4-3.4.3-5.1-.1-1.7-.5-3.2-1.3-4.5-2.5Z"/>
  <path class="st17" d="M448.5,183.7c.4,1.2.3,2.6-.3,3.7-.5,1.2-1.5,2.1-2.7,2.6-1.3-1.2-2.3-2.8-2.8-4.5-.5-1.7-.6-3.5-.3-5.3,1.3-.3,2.6,0,3.7.6,1.1.6,2,1.7,2.3,2.9Z"/>
</svg>