<?xml version="1.0" encoding="UTF-8"?>
<svg id="Layer_1" data-name="Layer 1" xmlns="http://www.w3.org/2000/svg" viewBox="0 0 354.55 406.31">
  <defs>
    <style>
      .cls-1 {
        fill: #e5e5e6;
      }

      .cls-1, .cls-2, .cls-3, .cls-4, .cls-5, .cls-6, .cls-7, .cls-8, .cls-9, .cls-10, .cls-11, .cls-12, .cls-13, .cls-14, .cls-15, .cls-16, .cls-17, .cls-18, .cls-19, .cls-20, .cls-21, .cls-22, .cls-23, .cls-24, .cls-25, .cls-26, .cls-27, .cls-28, .cls-29, .cls-30, .cls-31, .cls-32, .cls-33, .cls-34, .cls-35, .cls-36, .cls-37, .cls-38, .cls-39, .cls-40, .cls-41 {
        fill-rule: evenodd;
      }

      .cls-2 {
        fill: #b9cbd5;
        stroke: #b7cbd4;
        stroke-linecap: round;
        stroke-linejoin: round;
      }

      .cls-3 {
        fill: #fff;
      }

      .cls-4 {
        fill: #f8a073;
      }

      .cls-5 {
        fill: #98a1d1;
      }

      .cls-6 {
        fill: #a65f38;
      }

      .cls-7 {
        fill: #833928;
      }

      .cls-8 {
        fill: #f69375;
      }

      .cls-9 {
        fill: #5088c7;
      }

      .cls-10 {
        fill: #883928;
      }

      .cls-11 {
        fill: #ac4832;
      }

      .cls-12 {
        fill: #3a221e;
      }

      .cls-13 {
        fill: #b03635;
      }

      .cls-14 {
        fill: #a0a9d6;
      }

      .cls-15 {
        fill: #f3797a;
      }

      .cls-16 {
        fill: #893928;
      }

      .cls-17 {
        fill: #f9aa82;
      }

      .cls-18 {
        fill: #3c76bb;
      }

      .cls-19 {
        fill: #4d6e8b;
      }

      .cls-20 {
        fill: #bd6c3f;
      }

      .cls-21 {
        fill: #cddbe8;
      }

      .cls-22 {
        fill: #f7956f;
      }

      .cls-23 {
        fill: #5a90cc;
      }

      .cls-24 {
        fill: #6d3721;
      }

      .cls-25 {
        fill: #f0825c;
      }

      .cls-26 {
        fill: #97b3c1;
      }

      .cls-27 {
        fill: #632b1f;
      }

      .cls-28 {
        fill: #c2c4c5;
      }

      .cls-29 {
        fill: #bf6c41;
      }

      .cls-30 {
        fill: #f08b57;
      }

      .cls-31 {
        fill: #d2e9ee;
      }

      .cls-32 {
        fill: #c3c3c5;
      }

      .cls-42 {
        fill: #f3f3f3;
      }

      .cls-33 {
        fill: #3973ba;
      }

      .cls-34 {
        fill: #8d472a;
      }

      .cls-35 {
        fill: #412011;
      }

      .cls-36 {
        fill: #ef754e;
      }

      .cls-37 {
        fill: #f79967;
      }

      .cls-38 {
        fill: #a2572e;
      }

      .cls-39 {
        fill: #bec3e3;
      }

      .cls-40 {
        fill: #f0815c;
      }

      .cls-41 {
        fill: #f8a383;
      }
    </style>
  </defs>
  <g>
    <path class="cls-22" d="M52.87,104.16s.08,9.85,0,16.45c-.06,5.3,0,13.37-3.31,15.54-2.75,1.81-15.58,6.82-15.58,6.82,0,0,16.25,31.94,36.7,31.44,17.45-.43,24.69-35.88,24.69-35.88,0,0-11.59-1.95-14.32-4.18-2.45-2-1.61-3.18-2.1-9.23-.44-5.47.56-20.43.56-20.43l-26.64-.54h0Z"/>
    <path class="cls-36" d="M54.53,119.07c1.35,6.92,7.22,25.02,20,20.22,4-1.5,3.73-10.52,4.25-14.8.93-7.66.83-11.75,1.43-14.47,0,0-24.12-6.79-24.7-1.99-.43,3.61-1.71,7.27-.97,11.04h0Z"/>
    <path class="cls-22" d="M95.38,90.9c5.09,2.44-.4,12.58-3.24,15.77-2.93,3.28-2.72.03-3.07,1.48-1,4.23-2.58,7.7-3.2,9.3-1.51,3.93-5.93,12.19-14.91,12.46-8.19.25-17.54-7.32-19.33-11.94-1.18-3.05-2.7-5.91-4.07-9.97,0,0-2.01,1.42-4.09-.17-2.48-1.89-8.98-11.99-5.35-15.64,2.54-2.55,5.45-1.59,7.06,1.37.28.52-.6-15.67,2.97-22.12,6.4-11.58,25.44-11.47,33.27-7.7,7.83,3.78,9.37,7.66,10.92,13.87,1.17,4.69-.34,11.27-.96,13.07-.99,2.88.56-1.45,4,.2h0Z"/>
    <path class="cls-8" d="M44.45,98.99c-.14.03-.3.08-.46.16-.37.19-.77.55-1.05,1.27-.25.62-.11,1.65.37,2.47.5.84,1.32,1.42,2.26,1.22.32-.07.53-.41.47-.76-.06-.35-.38-.58-.7-.51-.45.09-.8-.25-1.03-.65-.25-.42-.41-.94-.28-1.26.3-.77.86-.68.86-.68.28.07.57-.09.68-.38,0,0,.66-1.42-1.2-3.94-.91-1.22-1.88-1.4-2.64-1.11-1.12.42-1.9,2.03-1.61,3.48.07.35.39.57.71.49.32-.08.52-.42.46-.77-.16-.82.21-1.75.84-1.99.4-.15.85.07,1.32.7.74,1,.96,1.8,1.01,2.25h0Z"/>
    <path class="cls-8" d="M91.47,98.56c.13,0,.29.04.45.1.37.14.8.44,1.17,1.1.32.58.35,1.62.03,2.5-.33.9-1.01,1.59-1.91,1.53-.31-.02-.55-.33-.55-.69,0-.35.26-.62.57-.6.43.03.7-.36.86-.79.17-.45.24-.99.07-1.29-.4-.72-.9-.56-.9-.56-.25.11-.54,0-.69-.28,0,0-.82-1.32.53-4.06.66-1.34,1.53-1.65,2.28-1.47,1.1.26,2.06,1.74,2.01,3.22-.01.35-.27.62-.58.59-.31-.03-.55-.34-.54-.7.03-.83-.46-1.7-1.07-1.85-.39-.09-.78.18-1.12.88-.54,1.09-.62,1.91-.6,2.36h0Z"/>
    <path class="cls-8" d="M69.56,118.97c-.2-.06-.48-.07-.54.06-.23.44.77.74,1.22.77.14,0,.87.05,1.09-.03.17-.04.27-.21.23-.38-.04-.17-.21-.27-.38-.23-.17.03-.48.01-.64,0-.12-.01-.73-.12-.98-.19h0Z"/>
    <path class="cls-15" d="M65.66,115.28c.34-.45,1.96.06,5.12.12,2.66.05,4.18-.13,4.2.53.03.94-1.65,2.36-4.22,2.37-3.64.01-5.67-2.27-5.1-3.02h0Z"/>
    <path class="cls-36" d="M71.23,100.21l.49,3.04c.18,1.05.2,1.83.32,2.41.05.26.12.49.22.69.3.58.39,1.13.25,1.56-.14.44-.56.74-1.2.83-.16.02-.32.02-.49,0-.8-.12-1.67-.52-2.7-.52-.27,0-.5.18-.52.41-.02.23.18.43.45.43.97.04,1.76.47,2.52.61.29.05.58.07.86.03,1.21-.14,1.95-.74,2.24-1.55.22-.63.15-1.43-.28-2.27-.1-.2-.15-.44-.2-.73-.08-.54-.14-1.23-.31-2.11l-.57-3.01c-.04-.25-.31-.42-.61-.37-.29.05-.5.3-.45.55h0Z"/>
    <path class="cls-35" d="M61,93.63c1.33.01,2.39,1.66,2.37,3.67-.02,2.01-1.12,3.63-2.45,3.62-1.33-.01-2.39-1.66-2.37-3.67.02-2.01,1.12-3.63,2.45-3.61h0Z"/>
    <path class="cls-35" d="M80.08,94.66c1.14.06,1.98,1.65,1.87,3.54-.11,1.89-1.13,3.37-2.27,3.3-1.14-.07-1.98-1.65-1.87-3.54.11-1.89,1.12-3.37,2.26-3.3h0Z"/>
    <path class="cls-38" d="M57.6,89.62c2.38-.17,4.18-.11,5.84.23,2.07.43,3.03-.24,3.15-1.58.05-.62-1.07-1.74-2.97-2.09-2.36-.44-7.48-1.24-8.83.78-.49.74-1.03,2.93,2.82,2.66h0Z"/>
    <path class="cls-38" d="M85.33,89.8c-.88-.13-3.72-.39-6.56,0-1.74.24-2.96-.28-2.65-1.81.14-.68.91-1.16,2.99-1.5,3.01-.49,6.17-.36,7.1.18,2.14,1.25,1.68,3.5-.88,3.13h0Z"/>
    <path class="cls-29" d="M71.14,75.43c-1.84-4.41-12.67-5.7-13.36-2.16-.86,4.4-3.86,2.96-3.63,7.81.18,3.7,0,4.42-4.15,8.4-2.55,2.44,1.81,12.73-1.28,12.1-1.31-.26-1.76-4.67-3.72-7.95-1.15-1.91-3.29-3.24-4.93-2.65-1.04.38-2.08-.2-3.02-1.86-1.38-2.44-2.81-4.75-1.71-10.98.46-2.61-2.41-11.61,7.61-16.67,0,0-.07-1.98,1.73-4.81,3.47-5.45,11.16-8.55,16.84-9.14,13.2-1.38,20.48,2.18,25.37,8.11,6.96,8.44,16.12,6.66,17.59,11.9,1.97,7.04-1.12,13.8-5.24,16.28-5.34,3.21-5.42,8.51-7.77,13.87-3.06,6.98.36-5.59-3.48-12.49-2-3.57-13.88-2.65-16.86-9.78h0Z"/>
    <path class="cls-6" d="M79.09,78.46c3.55,2.58,14.19,6.67,22.42.6.23-.17.28-.49.11-.72-.17-.23-.49-.27-.71-.11-7.79,5.74-17.85,1.84-21.21-.61-.23-.17-.55-.11-.72.11-.17.23-.11.55.11.71h0Z"/>
    <path class="cls-6" d="M49.41,67.13c-2.55.12-4.1.93-5.02,2.13-.92,1.19-1.22,2.81-1.23,4.64,0,3.26.67,4.98.25,7.04-.38,1.87-.93,3.09-1.52,3.82-.49.6-.98.84-1.39.81-.28-.02-.53.18-.56.47-.02.28.18.53.47.56.54.05,1.2-.14,1.84-.72.82-.74,1.65-2.19,2.17-4.72.43-2.12-.23-3.89-.23-7.24,0-1.58.22-2.99,1.01-4.02.78-1.02,2.11-1.63,4.26-1.73.28-.01.5-.25.49-.54-.01-.28-.25-.5-.53-.49h0Z"/>
    <path class="cls-6" d="M51.48,61.69c.68-5.29,4.7-7.81,9.3-8.46,4.68-.67,9.96.58,13.05,2.91,4.08,3.07,7.3,6.47,10.67,8.88,3.48,2.49,7.12,3.97,11.98,3.13.28-.05.46-.31.42-.59-.05-.28-.31-.46-.59-.42-4.55.79-7.95-.61-11.21-2.95-3.37-2.41-6.57-5.8-10.65-8.87-3.27-2.46-8.86-3.81-13.81-3.1-5.04.72-9.42,3.54-10.17,9.34-.04.28.16.54.44.57.28.04.54-.16.57-.44h0Z"/>
    <path class="cls-31" d="M45.02,142.95s20.68,27.93,42.98,3.45c4.83-5.3,14.57,6.49,14.57,6.49l-12.26,41.46-42.3.43-13.3-41.42,10.3-10.41h0Z"/>
    <path class="cls-9" d="M112.06,404.34c-.01.24-.04.48-.07.71h-40.88c-.06-.26-.11-.52-.14-.8-1.28-10.79-3.35-68.35-7.02-67.07-1.71.59-6.98,44.26-9.27,64.76-.13,1.14-.68,2.17-1.56,3.11H13.32c.24-7.73-.21-9.01.24-16.07.3-4.64-1.56-47.26,1.63-82.66,1.84-20.38,5.35-38.37,11.91-45.33,0,0,27.9,7.13,43.36,8.82.15.02.31.03.46.05,1.15.12,2.3.2,3.45.25,11.69.52,23.19-2.13,29.33-3.36,4.07-.81,7.24,12.48,8.13,19.45.55,4.29.91,11.56,1.13,20.5.76,30.58-.13,80.68-.91,97.64Z"/>
    <path class="cls-33" d="M73.49,343.78c3.81,3.25,8.34,12.03,13.27,18.82,2.01,2.77,4.08,5.2,6.19,6.83,1.45,1.12,2.93,1.86,4.42,2.08,6.6.98,9.63-2.08,12.11-5.56.14-.2.1-.48-.11-.62-.2-.14-.48-.1-.62.1-2.31,3.23-5.11,6.1-11.25,5.19-1.35-.2-2.68-.89-4-1.9-2.05-1.58-4.06-3.96-6.01-6.65-4.97-6.85-9.57-15.7-13.41-18.98-.19-.16-.47-.14-.63.05-.16.19-.14.47.05.63h0Z"/>
    <path class="cls-33" d="M23.11,381.22c2.02,2,5.4,3.12,9.4,2.8,5.87-.47,13.09-4.05,19.17-12.5.14-.2.1-.48-.1-.63-.2-.14-.48-.1-.63.1-5.88,8.18-12.84,11.68-18.51,12.13-3.69.3-6.83-.7-8.7-2.54-.17-.17-.46-.17-.63,0-.17.18-.17.46,0,.64h0Z"/>
    <path class="cls-33" d="M20.5,323.22c.05.02.22.08.34.16.34.24.75.68,1.22,1.33,2.67,3.67,5.06,9.58,13.21,14.32.22.13.49.05.61-.16.13-.22.05-.49-.16-.61-8-4.66-10.31-10.47-12.94-14.08-.76-1.04-1.4-1.6-1.86-1.78-.38-.15-.68-.11-.91.04-.21.14-.38.39-.45.76-.08.45,0,1.14.27,2.01.59,1.85,2.13,4.56,4.9,7.35.17.17.46.18.64,0,.17-.17.17-.46,0-.63-3.13-3.15-4.62-6.18-4.9-7.87-.04-.29-.06-.53-.03-.71,0-.05.04-.11.05-.15h0Z"/>
    <path class="cls-23" d="M40.47,137.93c1.72-.87,5-4.35,5.92-2.44.75,1.57,16.6,45.02,22.26,45.25,5.22.22,18.61-40.29,19.35-43.56.67-2.99,4.05-.4,7.38.96,7.18,2.94,15.93,5.37,17.3,7.91,4.26,7.9,5.48,32.68,4.51,46.65-.94,13.49-6.57,39.66-6.33,58.01.29,21.27,5.16,39.93,5.21,51.36.07,16.86-99.52,11.76-102.77,2.44-1.91-5.46,5.65-19.91,4.37-31.7-1.45-13.29,3.68-14.49,1.18-31.55-2.64-18.05-1.43-31.53-2.3-43.27-1.39-18.67-8.43-50.62,1.18-54.62,10.38-4.32,21.96-5.05,22.75-5.44h0Z"/>
    <path class="cls-18" d="M31.75,275.59s-1.2,4.23.98,6.83c.86,1.03,2.25,1.83,4.49,1.97,3.07.19,7.85-.89,15.26-4.43,24.12-11.53,38.26-16.19,38.26-16.19.39-.13.62-.58.52-1.01-.1-.43-.49-.68-.87-.55,0,0-14.2,4.67-38.42,16.26-5.93,2.84-10.11,4.06-13.05,4.28-2.69.2-4.26-.44-5.12-1.47-1.67-1.99-.68-5.24-.68-5.24.13-.43-.08-.88-.45-1.01-.38-.12-.78.13-.91.56h0Z"/>
    <path class="cls-18" d="M94.96,144.38c-4.95,21.8-13.14,36.34-18.27,44.29-.15.24-.09.56.15.71.24.15.56.09.71-.15,5.16-8.01,13.42-22.65,18.41-44.62.06-.28-.11-.55-.39-.62-.28-.06-.55.11-.62.39h0Z"/>
    <path class="cls-18" d="M40.24,144.63c3.17,11.93,10.15,28.2,16.46,38.9,2.74,4.63,5.35,8.22,7.48,9.99.22.18.55.15.73-.07.18-.22.15-.55-.07-.73-2.07-1.72-4.6-5.22-7.25-9.72-6.27-10.62-13.21-26.78-16.35-38.63-.07-.28-.36-.44-.63-.37-.27.07-.44.35-.37.63h0Z"/>
    <path class="cls-18" d="M97.9,169.09l-4.85,22.91c-.06.28.12.55.4.61.28.06.55-.12.61-.4l4.85-22.91c.06-.28-.12-.55-.4-.61-.28-.06-.55.12-.61.4h0Z"/>
    <path class="cls-18" d="M28.83,175.07c2.09,9.84,3.61,20.31,3.16,27.06-.18,2.76-.67,4.88-1.64,6-.19.22-.16.54.05.73.22.19.54.16.73-.05,1.07-1.24,1.69-3.56,1.89-6.61.45-6.81-1.07-17.39-3.18-27.34-.06-.28-.33-.46-.61-.4-.28.06-.46.33-.4.61h0Z"/>
    <path class="cls-22" d="M34.93,218.22c11.28-4.53,37.17,2.89,43.96.93,3.92-1.13,6.87-1.22,10.34-9.77.58-1.43,3.19-8.25,4.21-10.25,1.83-3.62,2.88-5.8,6.57-7.25,6.35-2.49,11.36-3.81,14.77-4.56,2.84-.63,3.5,1.1,2.64,2.08-1.5,1.7-9.74,3.85-10.94,4.19-1,.28,2.21.58,5.5.65,4.05.09,8.62-.61,9.54.31.43.43.35,1.9-1.09,2.12-2.44.37-7.7.38-8.98.67-3.64.82,4.62,1.16,9.83,1.58,2.55.21,1.44,2.28.22,2.48-1.39.23-6.15.85-9.21.43-3.07-.43,4.03,1.36,5.52,1.45,5.05.3,4.64,2.96.28,2.95-6.22-.01-9.21.42-10.05.96-.85.54-5.62,10.93-7.3,14.57-2.33,5.06-7,3.63-10.11,5.74-4,2.73-8.61,3.96-16.17,5.71-10.91,2.52-17.89,3.43-22.23,4.31-10.35,2.11-34.14,8.52-40.75.44-4.45-5.45-7.85-31.4-7.69-40.57.15-8.57,19.46-10.19,22.48-4.8,2.17,3.87,5.63,26.84,8.66,25.62h0Z"/>
    <path class="cls-22" d="M102.01,184.65c-1.64,3.79-2.57,12.98-3.61,19.18-.58,3.47-1.05,7.27-3.27,6.81-6.1-1.27-13.88-1.33-21.03-1.75-6.46-.38-19.23-.31-22.53-.74-4.41-.58-22.19-3.36-21.15,3.15.61,3.81,1.25,11.67,4.5,10.1,4.97-2.39,8.5,1.93,12.43,1.48,11.35-1.31,27.06,5.36,29.73,6.36,7.52,2.81,26.52,10.79,36.89,8.24,9.1-2.24,7.46-40.63,8.59-47.13,1.26-7.27-18.56-10.33-20.56-5.7h0Z"/>
    <path class="cls-36" d="M34.03,221.56c3.81-.34,6.58.27,9.37.85,2.88.6,5.79,1.15,9.81.66,2.73-.33,6.79.67,11,2.05,6.45,2.12,13.24,5.16,16.32,5.94.28.07.56-.1.63-.37.07-.28-.1-.56-.37-.63-3.07-.78-9.83-3.81-16.26-5.92-4.38-1.44-8.6-2.44-11.45-2.1-3.88.48-6.69-.07-9.47-.65-2.88-.6-5.74-1.22-9.67-.86-.29.03-.49.28-.47.56.02.29.28.49.56.47h0Z"/>
    <path class="cls-23" d="M30.36,210.74c-4.66,2.4-25.99,11.38-27.82,4.84-1.15-4.1-.83-15.52-.99-17.55-.94-11.63-1.15-24.16-1.44-28.46-1.39-20.29,11.13-23.49,17.05-26.1,3.1-1.36,9.93,10.43,10.75,22.63,1.26,18.79,2.23,28.76,2.57,35.1.36,6.75,2.72,8.08-.11,9.54h0Z"/>
    <path class="cls-23" d="M100.45,166.85c-.69,7.15-6.38,31.37-7.61,38.23-1.03,5.76,31.25,13.68,32.48,8.32,2-8.77,4.86-43.76,4.67-49.59-.21-6.13-3.64-11.96-10.36-15.36-9.49-4.8-15.83-9.22-16.87-1.32-1.01,7.72-1.81,14.58-2.31,19.71h0Z"/>
    <path class="cls-22" d="M104.78,208.4c-2.48,1.44-4.51,2.78-9.43,2.21-6.43-.75-5.53-3.06-4.9-4.36.89-1.85,1.98-5.11,3-7.11,1.83-3.62,3.09-6.24,6.79-7.68,2.78-1.09,5.47-2.65,7.71-3.34,2.88-.89,4.75-.86,6.81-1.17,3.02-.44,3.64,1.73,2.78,2.71-.83.94-3.7,1.16-6.84,1.98-2.14.56-3.65,1.91-4.19,2.07-1,.29,3.82-.78,7.11-.7,3.48.08,5.87.25,7.15.49,2.57.47,1.89,3.3-.64,3.49-1.25.1-3.11-.07-4.91.03-1.74.1-3.12.24-3.76.32-3.49.47,5-.17,9.82,1.13,2.48.66,1.46,2.73.23,2.94-.98.16-3.31-.22-5.87-.17-1.06.02-1.99-.05-3.64.22-3.05.5,4.44,1.04,5.93,1.13,5.05.3,4.52,3.67.17,3.66-6.22-.01-9.21.42-10.05.96-.21.14-1.91.43-3.24,1.2h0Z"/>
    <path class="cls-36" d="M82.73,209.97c6.41.33,13.54.92,17.29,1.29.28.03.54-.18.57-.47.03-.28-.18-.54-.47-.56-3.76-.37-10.91-.96-17.34-1.29-.28-.01-.53.21-.54.49-.01.29.2.53.49.54h0Z"/>
    <path class="cls-36" d="M30.39,210.89c.71,2.34,2.12,7.02,2.57,9.62.05.28.32.47.6.42.28-.05.47-.32.42-.6-.46-2.64-1.89-7.38-2.6-9.75-.08-.27-.37-.43-.64-.35-.27.08-.43.37-.35.64h0Z"/>
  </g>
  <g>
    <path class="cls-6" d="M288.39,44.74s-24.47,2.04-26.95,26.96c-2.48,24.92-6.5,30.67-7.78,35.93-1.7,6.99,4.32,16.71,10.37,11.77,4.35-3.56,11.66-4.3,16.29-4.76,13.47-1.35,21.73,1.05,31.26,1.03,6.85-.01,14.32-6.49,16.46-9.55,6.61-9.47-8.24-32.91-8.4-34.98-.5-6.32-6.6-29.46-31.24-26.4h0Z"/>
    <path class="cls-17" d="M278.14,101.87c.88,4.21,1.48,18.13,1.39,21.34-.14,4.64-15.22,6.28-15.22,6.28,0,0,9.17,39,28.11,39.42,22.71.51,28.71-39.01,28.71-39.01,0,0-17.24-5.68-17.59-8.35-.52-3.94-.27-20.16-.31-21.91-.13-5.61-26.53-4.72-25.08,2.23h0Z"/>
    <path class="cls-37" d="M280.13,114.27c1.04,5.65,4.99,9.14,8.35,9.29,8.92.4,12.85-7.79,13.84-13.21.58-3.18.96-6.77.94-7.46-.13-5.61-25.8-4.24-24.35,2.71.41,1.95.29,3.62,1.22,8.67h0Z"/>
    <path class="cls-17" d="M268.84,85.74c-.57-3.74-.96-7.29-1.4-10.3-2.36-16.05,8.76-25.03,19.99-26.45,13.58-1.72,29.12,6.52,26.01,33.46.04-.13,1.88-2.04,3.41-2.05,1.9,0,2.95,1.04,2.64,3.7-1.21,10.1-6.57,14.2-7.84,10.31-6.51,24.42-26.7,24.87-33.22,16.5-3.58-4.6-6.45-9.62-7.95-15.49-3.17,3.11-6.82-2.82-7.47-7.91-.35-2.76-.41-4.68,1.64-5.33,2.04-.64,4.01,2.6,4.2,3.57h0Z"/>
    <path class="cls-13" d="M281.59,99.73c2.71.61,10.42.32,13-.15,1.75-.32-1.09,7.15-5.86,7.35-2.12.09-3.79.4-5.67-1.77-1.69-1.95-2.72-5.71-1.48-5.43h0Z"/>
    <path class="cls-3" d="M294.69,99.57c-.27.95-.87,2.18-1.53,2.34-2.28.55-9.1.75-10.54-.04-.92-.51-.97-1.32-1.22-2.15.06,0,.12,0,.19.01,2.71.61,10.42.32,13-.15.04,0,.07-.01.1-.01h0Z"/>
    <path class="cls-7" d="M298.7,78.48c1.27,0,2.3,1.47,2.3,3.29s-1.03,3.29-2.3,3.29-2.3-1.47-2.3-3.29,1.03-3.29,2.3-3.29h0Z"/>
    <path class="cls-30" d="M286.49,84.64c-.36,2.08-1.19,4.3-2.09,5.88-.37.64-.49,1.55-.39,2.06.11.53.33.91.73,1.28.89.82,2.75.84,4.64-.2.38-.21.61-.48.37-.84-.25-.36-.47-.14-.92.03-.95.35-1.82.37-2.44.13-.45-.18-.69-.61-.74-.85-.08-.43.11-.92.27-1.21.69-1.22,1.45-4.18,1.61-6.11.04-.43-.04-.89-.47-.93-.43-.04-.53.32-.57.76h0Z"/>
    <path class="cls-7" d="M277.02,78.71c1.32,0,2.39,1.42,2.39,3.17s-1.07,3.17-2.39,3.17-2.39-1.42-2.39-3.17,1.07-3.17,2.39-3.17h0Z"/>
    <path class="cls-7" d="M272.66,76.05c1.08-1.61,3.61-2.88,6.52-2.27.92.2,2.03-.04,2.23-.95.2-.92-.65-1.44-1.54-1.75-5.06-1.8-8.03.77-9.25,3.06-.44.83-.88,1.98-.1,2.5.78.52,1.62.18,2.15-.6h0Z"/>
    <path class="cls-7" d="M304.9,72.41c-1.84-1.87-4.9-3.43-9.54-1.71-.93.35-2.13,1.15-1.85,2.38.21.91,1.05,1,1.98.66,2.95-1.1,6.32-.81,7.48.38.67.68,1.61,1.09,2.34.44.73-.65.25-1.46-.42-2.14h0Z"/>
    <path class="cls-20" d="M294.47,55.85c.1-.87-.27-1.13-2.31-.92-5.7.61-16.94,3.32-20.12,15.25-5.86,21.96-5.95,29.22-11.08,36.34-4.07,5.66,4.67,15.63,6.03,18.16,1.47,2.75-16.5,3.23-21.67-13.04-3.17-9.98-.5-22.58,5.9-30.35,1.83-2.22.95-4.63,0-6.44-1.39-2.64-4.89-9.52,3.56-20.32,5.66-7.24,11.76-9.8,15.66-14.73,5.6-7.07,14.67-10.24,24.16-10.25,11.77-.02,15.25,6.94,14.7,9.68-.37,1.85,20.29-4.75,16.71,31.42-1.78,18.02,2.84,14.03,5.09,21.11,2.07,6.51.55,10.72-5.2,16.63-4.95,5.09-10.63,7.77-18.06,7.31-4.75-.3.03-9.34,1.69-13.42,3.32-8.15,7.62-13.25,2.16-17.94-3.45-2.96-15.52-15.39-17.03-23.98-.34-1.91-.36-3.15-.2-4.51h0Z"/>
    <path class="cls-6" d="M302.83,56.57s-1.7,11.32,12.27,17.75c3.91,1.8,5.99,3.7,6.91,5.65,1.04,2.22.54,4.46-.36,6.57-.95,2.26-2.35,4.36-3,6.14-.1.28.04.58.31.68.27.1.58-.04.68-.31.65-1.77,2.04-3.86,2.99-6.1,1.01-2.38,1.52-4.93.34-7.44-.99-2.1-3.19-4.21-7.42-6.16-13.16-6.05-11.67-16.64-11.67-16.64.04-.29-.16-.56-.45-.6-.29-.04-.56.16-.6.45h0Z"/>
    <path class="cls-6" d="M265.85,69.92s.39,5.49-.52,11.48c-.6,3.95-1.76,8.11-3.99,11.04-2.88,3.77-4.58,6.12-5.46,7.84-.96,1.86-1.01,3.04-.6,4.38.09.28.38.44.66.35.28-.09.44-.38.35-.66-.34-1.1-.26-2.06.53-3.59.87-1.68,2.53-3.98,5.36-7.68,2.33-3.05,3.57-7.4,4.19-11.52.93-6.11.53-11.71.53-11.71-.02-.29-.27-.51-.56-.49-.29.02-.51.27-.49.57h0Z"/>
    <path class="cls-6" d="M270.03,47.13c-5.83,4.99-10.45,8.7-13,12.17-1.34,1.81-2.12,3.57-2.26,5.39-.14,1.84.36,3.75,1.65,5.88.15.25.48.33.73.18s.33-.48.18-.73c-1.15-1.9-1.62-3.61-1.5-5.25.13-1.65.86-3.22,2.06-4.85,2.52-3.42,7.09-7.06,12.84-11.99.22-.19.25-.53.06-.75-.19-.22-.52-.25-.75-.06h0Z"/>
    <path class="cls-6" d="M304.51,39.84c-.72-2.04-2.97-3.98-6.35-4.76-4.85-1.11-12.1.18-20.24,7.14-.22.19-.25.52-.06.75.19.22.52.25.75.06,7.78-6.66,14.67-7.97,19.31-6.91,2.95.67,4.96,2.3,5.59,4.08.1.28.4.42.67.33.28-.1.42-.4.32-.68h0Z"/>
    <path class="cls-6" d="M298.49,50.82s1.59-2.62,3.9-5.1c1.51-1.62,3.33-3.2,5.22-3.91.27-.1.41-.41.31-.68-.1-.27-.41-.41-.68-.31-2.03.76-4,2.44-5.62,4.18-2.39,2.57-4.03,5.27-4.03,5.27-.15.25-.07.57.18.73.25.15.57.07.73-.18h0Z"/>
    <path class="cls-6" d="M250.32,95.11s-1.21-3.21,2.93-8.55c.18-.23.14-.56-.1-.74-.23-.18-.56-.14-.74.1-4.61,5.95-3.08,9.59-3.08,9.59.11.27.42.4.69.3.27-.11.4-.42.3-.69h0Z"/>
    <path class="cls-16" d="M341.02,284.74s0,0,0,0c-.35,12.15-1.21,26.99-1.82,37.15-1.91,31.74-4.81,71.83-6.01,84.41h-36.33c-.95-14.59-2.85-83.01-7.51-82.94-5.33.08-9.18,61.89-11.94,82.87,0,.02,0,.05-.01.07h-38.15c-.11-.34-.17-.69-.15-1.06.31-8.75-.46-23.82,0-33.65.58-12.43,1.9-52.11,4.59-82.88,1.17-13.36,2.6-25.05,4.33-32.08,3.35-13.61,30.09-5.55,45.95-3.81,13.3,1.46,26.5-1.03,33.51-2.43,4.17-.83,12.46,8.9,13.35,15.89.45,3.54.45,10.41.22,18.46Z"/>
    <path class="cls-27" d="M325.25,372.27c-4.54,2.7-8.8,1.56-12.84-1.79-4.17-3.46-8.09-9.26-11.82-15.74-.13-.23-.42-.31-.65-.18-.23.13-.31.42-.18.65,3.79,6.6,7.8,12.48,12.04,16,4.37,3.64,9.01,4.81,13.93,1.88.23-.13.3-.43.17-.65-.14-.23-.43-.3-.65-.17h0Z"/>
    <path class="cls-27" d="M267.72,318.77c-.37-.08-.83-.2-1.36-.35-4.91-1.4-15.5-5.42-15.5-5.42-.25-.09-.52.03-.61.28-.09.25.03.52.28.61,0,0,10.65,4.03,15.58,5.45.89.26,1.61.43,2.05.48.27.03.47.02.59-.02.18-.05.29-.16.36-.27.07-.12.1-.26.06-.44-.02-.1-.08-.23-.18-.37-.14-.2-.41-.47-.77-.79-2.68-2.34-11.25-7.91-13.1-10.13-.17-.2-.47-.23-.67-.06-.2.17-.23.47-.06.67,1.86,2.24,10.5,7.87,13.2,10.23.05.04.1.08.14.13h0Z"/>
    <path class="cls-27" d="M245.62,376.75c3.3,1.23,7.26.36,11.34-2.13,5.96-3.64,12.2-10.72,16.97-19.42.13-.23.04-.52-.19-.65-.23-.13-.52-.04-.64.19-4.68,8.54-10.79,15.5-16.64,19.07-3.79,2.31-7.45,3.19-10.51,2.05-.25-.09-.52.04-.61.28-.09.25.03.52.28.61h0Z"/>
    <path class="cls-31" d="M266.94,132.31s23.12,29.88,46.51,0c8.34-10.66,12.15,8.45,12.15,8.45l-14.22,43.95-41.35-2.13-10.96-43.25,7.87-7.02h0Z"/>
    <path class="cls-11" d="M274.03,125.54c-10.48,4.05-26.71,7.57-29.83,8.45-5.17,1.46-.64,16.66,0,24.5,1.19,14.61,1.06,19.99,1.63,24.85,1.94,16.43,2.47,34.09,3.22,46.27.39,6.38-6.31,44.52-7.01,54.24-.95,13.29,34.42,12.79,50.54,14.16,33.62,2.84,49.17-9.26,50.07-17.56,2.75-25.48-8.83-48.68-6.81-66.56.83-7.28.23-38.54,1.35-49.62.95-9.46,7.46-30.56-.25-32.12-7.72-1.57-16.95-3.27-27.32-7.09-2.42-.89-.59,3.14-4.02,13.13-4.26,12.43-10.77,28.34-14.68,28.37-4.36.03-12.72-22.27-14.57-29.22-2.14-8.02-.97-12.31-2.33-11.78h0Z"/>
    <path class="cls-10" d="M315.97,128.93c-6.23,23.85-15.78,39.58-21.71,48.16-.18.26-.12.61.14.79.26.18.62.12.79-.14,5.97-8.64,15.6-24.48,21.88-48.52.08-.3-.1-.62-.41-.69-.31-.08-.62.1-.7.41h0Z"/>
    <path class="cls-7" d="M254.32,271.71c-.23,1.28-1.12,5.73,1.69,8.49,1.4,1.38,3.72,2.37,7.54,2.29,3.69-.07,8.81-1.12,15.91-3.76,28.19-10.48,40.33-19.04,40.33-19.04.21-.14.25-.43.11-.63-.14-.2-.43-.25-.63-.11,0,0-12.08,8.51-40.13,18.93-6.96,2.59-11.99,3.64-15.61,3.71-3.48.07-5.62-.78-6.89-2.03-1.25-1.23-1.65-2.84-1.73-4.28-.08-1.5.19-2.82.3-3.41.05-.24-.12-.48-.36-.52-.25-.04-.48.12-.52.37h0Z"/>
    <path class="cls-10" d="M266.03,131.49c3.03,12.12,9.9,28.68,16.18,39.6,2.72,4.73,5.34,8.4,7.49,10.23.22.19.56.17.75-.05.19-.22.17-.55-.06-.74-2.09-1.77-4.62-5.36-7.26-9.95-6.24-10.84-13.06-27.3-16.07-39.33-.07-.28-.36-.45-.64-.38-.29.07-.46.35-.39.63h0Z"/>
    <path class="cls-10" d="M322.68,161.97l-1.14,25.8c-.02.32.23.58.54.6.32.01.58-.23.6-.54l1.14-25.8c.01-.31-.23-.58-.54-.59-.32-.02-.58.23-.59.54h0Z"/>
    <path class="cls-10" d="M254.15,193.91c1.46-11,2.23-22.64,1.17-30.01-.43-3.02.65-3.5,1.13-.16,1.07,7.45.31,19.21-1.17,30.33-.04.31-.33.53-.64.49-.31-.04-.53-.33-.49-.64h0Z"/>
    <path class="cls-5" d="M270.29,171.2c-1.4-.04-2.56.89-2.66,2.14-.86,10.69-4.58,56.93-5.51,68.55-.06.68.22,1.35.75,1.86.53.51,1.27.8,2.03.8,9.4,0,38.26,0,46.74-.01,1.35,0,2.46-.9,2.57-2.11.99-10.34,5.31-55.72,6.4-67.11.06-.67-.19-1.34-.7-1.85-.51-.51-1.23-.82-1.98-.84-9.43-.28-38.87-1.16-47.63-1.43h0Z"/>
    <path class="cls-39" d="M273.33,171.35c-1.38-.03-3.06,1.5-3.16,2.73-.92,10.57-4.44,57.37-5.32,67.9-.2,2.3,1.22,2.56,1.99,2.56,1.55,0,1.61.01,2.4,0,8.88-.15,34.6.14,42.46.02,1.33-.02,2.41-.91,2.52-2.1,1.03-10.23,5.62-55.57,6.78-67.05.07-.68-.19-1.35-.71-1.87-.52-.52-1.25-.82-2.01-.83-8.89-.16-36.82-1.23-44.95-1.38h0Z"/>
    <path class="cls-14" d="M287.01,173.83l-5.59,66.94c-.03.34.26.65.64.69.38.04.71-.21.74-.55l5.59-66.94c.03-.34-.26-.65-.64-.69-.38-.04-.72.21-.74.55h0Z"/>
    <path class="cls-4" d="M324.33,183.18c-.55,6.17-2.28,23.9-1.21,30.41.5,3.04,1.29,5.83-.32,5.39-6.93-1.91-13.99,1.14-22.2-1.1-7.1-1.94-10.19-3.82-13.27-8.66-3.08-4.84-6.31-8.66-12.16-10.4-5.85-1.74-10.85-2.58-11.96.44-.78,2.11-2.33,1.19-3.96,3.64-.9,1.35-2.22,3.22-.35,5.6,1.12,1.43-.22.88-1.04,3.46-.54,1.71.14,2.55,1.17,4.63,1.03,2.07-.06,2.69-.15,3.77-.14,1.65.6,3.28,3.25,4.77,6.9,3.88,15.43,1.74,22.91,4.54,4.26,1.59,40.49,17.66,53.33,11.35,6.82-3.35,11.82-52.63,8.51-58.35-3.31-5.72-21.99-5.69-22.55.53h0Z"/>
    <path class="cls-11" d="M336.76,132.16c6.93.57,17.94,8.63,17.79,18.78-.2,13.06-.34,20.44-.71,29.62-.36,8.86-1.81,16.03-2.5,23.69-.61,6.74-26.83,3.59-30.62.03-3.22-3.01.61-12.35.65-16.92.05-4.56,3.44-3.03,2.23-10.91-.42-2.71,1.26-11.63,1.76-18.45.99-13.51,6.13-26.28,11.41-25.84h0Z"/>
    <path class="cls-17" d="M306.77,219.47c7.09-3.53,10.61-5.17,11.42-2.49.58,1.94-1.66,2.81-4.33,4.89-1.32,1.03-4.17,3.78.82,5.79,6.15,2.47,6.8,3.33,15.24,3.96,4.55.34,5.97.52,6.63,1.52.46.7.96,2.07-.42,3.11-.42.32,3.84.25,4.06,2.21.29,2.56-1.86,2.73-4.02,2.91-.77.06,2.17.4,2.17,2.32,0,2.42-2.67,2.61-3.28,2.68-.07,0,1.31.44,1.37,1.39.09,1.26-.67,2.24-3.94,1.92-4.86-.49-5.91-.78-11.15-.87-4.97-.08-6.45.1-9.58-1.55-6.38-3.38-11.9-7.48-15.57-8.12-4.01-.69-19.35.05-27.31-.06-14.62-.19-23.27.21-32.9-3.48-9.5-3.64-7.71-36.85-7-42.06.63-4.6,25.07-9.15,23.34,4.74-.76,6.04-1.96,11.07-2.25,13.72-.18,1.61.41,4.23,1.7,4.01,11.6-1.94,16.47,4.17,30.43,6.66,5.38.96,9.85,2.34,13.43.45,3.55-1.87,7.8-1.99,11.13-3.65h0Z"/>
    <path class="cls-11" d="M233.34,139.74c3.4-3.04,9.53-5.96,12.44-5.74,10.91.83,11.42,20.08,10.16,33.96-1.22,13.46-2.65,26.72-3.26,36.46-.37,5.86-29.67,4.47-28.52-2.35,2.35-13.88,2.68-25.66,3.27-31.89.54-5.7.92-11.12,1.32-18.54.34-6.35,1.2-8.88,4.58-11.9h0Z"/>
  </g>
  <g>
    <path class="cls-2" d="M238.42,405.05h-50.19c-2.2-19.36-8-57.92-11.43-57.76-3.32.15-9.02,41.23-9.79,57.76h-54.58s0-.1,0-.15c.17-9.63,1.61-29.62,3.29-50.14,1.18-14.34,2.48-28.95,3.56-40.46.8-8.58,1.49-15.45,1.9-19.21,1.76-16.01,3.91-38.72,3.91-38.72h.2s6.18.1,6.18.1l16.68.26,3.45.05,28.53.43,1.51.02,2.48.04,41.03-.18h.38s.11,6.95.34,12.72c.02.51.04,1.02.06,1.51.08,1.74.16,3.3.26,4.4.49,5.52.55,8.23,1.37,11.07h0c.48,1.66,1.21,3.35,2.43,5.68,2.12,4.05,2.68,10.84,2.92,17.13.19,4.83.19,9.37.57,12.13,2.1,15.29,3.1,27.57,3.41,36.33.06,1.63.09,3.14.1,4.52.2,21.51,1.35,33.71,1.46,42.46Z"/>
    <path class="cls-26" d="M124.58,400.35s3.75,4.72,9.66,4.61c2.51-.04,5.43-.95,8.6-3.51,10.26-8.24,17.94-18.21,17.94-18.21.17-.22.13-.55-.09-.72-.22-.17-.55-.13-.72.09,0,0-7.6,9.87-17.77,18.03-2.95,2.37-5.65,3.24-7.98,3.28-5.41.09-8.83-4.23-8.83-4.23-.18-.22-.5-.26-.72-.08-.22.18-.26.5-.08.72h0Z"/>
    <path class="cls-26" d="M195.99,366.22c7.89,7,14.35,11.07,19.53,12.79,5.35,1.78,9.38,1.07,12.27-1.44.21-.19.24-.51.05-.72-.19-.21-.51-.24-.72-.05-2.65,2.31-6.36,2.87-11.28,1.24-5.09-1.69-11.42-5.71-19.17-12.59-.21-.19-.54-.17-.72.04-.19.21-.17.54.04.72h0Z"/>
    <path class="cls-41" d="M162.63,73.19c-.2,6.97,1.52,24.47,0,28.6-2.41,6.56-25.92,11.33-28.44,13.38-2.52,2.05,16.93,23.92,45,24.41,34.97.61,45.52-24.14,45.76-26.03.32-2.6-21.98-5.57-26.94-12.27-4.96-6.7-2.48-19.26-2.84-27.94-.31-7.49-32.35-6.3-32.53-.15h0Z"/>
    <path class="cls-40" d="M163.5,83.06c.02,5.22,6.81,16.96,15.95,16.8,11.25-.2,14-11.51,14.83-15.27.9-4.11.58-7.7.43-11.21-.31-7.49-31.91-6.33-32.08-.19-.07,2.36.86,6.07.88,9.87h0Z"/>
    <path class="cls-41" d="M156.04,15.02c-9.21,8.39-3.08,30.56-3.6,33.21-.21,1.04-5.25-3.42-6.66,3.12-1.57,7.26,3.82,16.82,7.81,13.11.94-.87,6.41,27.54,24.96,27.81,19.51.29,24.07-24.34,25.14-28.76,0,0,3.5,2.17,6.21-2.02,2.58-3.98,4.78-15.08-5.27-13.05-1.96.4,6.35-23.6.64-31.62-6.51-9.15-32.86-16.73-49.24-1.82h0Z"/>
    <path class="cls-15" d="M172.02,74.89c.06-.52,3.6-.04,7.11-.09,3.54-.05,6.98-.42,6.93-.02-.17,1.29-1.43,3.91-7.2,3.94-4.1.02-7.01-2.48-6.84-3.83h0Z"/>
    <path class="cls-25" d="M176.85,52.64c-.12,2.41-1.05,6.5-1.61,7.62-.57,1.14-1.2,2.48-1.39,3.7-.16,1.01-.03,1.95.5,2.71.55.78,1.54,1.43,3.29,1.67.57.08,1.11-.3,1.19-.84.08-.54-.31-1.05-.89-1.13-.95-.13-1.55-.38-1.85-.8-.28-.4-.26-.91-.15-1.45.19-1,.72-2.07,1.19-3.01.62-1.23,1.68-5.72,1.81-8.38.03-.55-.42-1.01-1-1.04-.58-.02-1.07.4-1.1.95h0Z"/>
    <path class="cls-12" d="M165.84,48.23c1.43,0,2.58,1.62,2.58,3.62s-1.16,3.62-2.58,3.62-2.58-1.62-2.58-3.62,1.16-3.62,2.58-3.62h0Z"/>
    <path class="cls-12" d="M191.94,48.64c1.43,0,2.58,1.62,2.58,3.62s-1.16,3.62-2.58,3.62-2.58-1.62-2.58-3.62,1.16-3.62,2.58-3.62h0Z"/>
    <path class="cls-24" d="M160.19,44.94c1.47-.31,3.14-.76,5.34-.8,1.51-.03,3.12.23,5.25.42,1.02.09,1.85.29,2.25-1.12.27-.94-.46-1.57-1.4-1.96-5.52-2.23-10.81-.87-13.31.81-.84.56-1.2,1.79-.45,2.45.41.36,1.03.48,2.32.21h0Z"/>
    <path class="cls-24" d="M200.39,41.72c-2.53-2.27-9.92-2.56-13.45-.5-1.24.72-1.83,1.61-1.51,2.53.32.92,1.37,1.27,2.8.88,3.91-1.08,8.36-.59,10.43.16.95.35,1.96.19,2.46-.65.48-.81.11-1.88-.74-2.43h0Z"/>
    <path class="cls-40" d="M148.07,52.86c.08-.9.48-1.44,1.03-1.5.31-.04.65.1.95.37.57.5,1.02,1.43,1.14,2.8,0,.09-.05.19-.12.32-.16.32-.42.72-.65,1.17-.31.63-.56,1.37-.49,2.18.07.81.47,1.71,1.47,2.65.17.16.44.15.61,0,.17-.16.16-.42,0-.58-.77-.71-1.11-1.38-1.2-2.01-.14-.95.3-1.77.67-2.41.18-.32.35-.6.45-.83.09-.22.14-.41.12-.57-.21-2.33-1.32-3.56-2.34-3.85-1.14-.32-2.34.38-2.5,2.18-.02.22.15.42.39.44.24.02.45-.15.47-.37h0Z"/>
    <path class="cls-40" d="M208.78,52.77c-.08-.91-.48-1.44-1.03-1.5-.31-.04-.65.1-.95.37-.57.5-1.02,1.43-1.14,2.81,0,.09.05.19.12.32.17.32.42.72.65,1.17.31.63.56,1.37.49,2.18-.07.81-.47,1.71-1.47,2.65-.17.16-.44.15-.61,0-.17-.16-.16-.42,0-.58.77-.71,1.11-1.38,1.2-2.01.14-.95-.31-1.77-.67-2.41-.18-.32-.35-.59-.45-.83-.1-.22-.14-.41-.12-.57.21-2.33,1.32-3.57,2.34-3.85,1.13-.32,2.33.38,2.5,2.18.02.22-.15.42-.39.44-.24.02-.45-.15-.47-.37h0Z"/>
    <path class="cls-34" d="M154.49,49.67c.86-.24-1.04-11.02,2.23-13.67,2.64-2.15,1.34-8.79,3.4-9.82,5.68-2.8,26.73,2.63,35.82-.49,6.6-2.26,2.58,10.16,6.25,13.25,0,0,.46,7.52.31,9.18-.11,1.25,1.55,2.89,3.87-.09,2.33-2.99,11.74-31.12,1.51-34.11-2-.59-.72-20.53-37.74-11.65-29.15,7-31.92,38.2-23.29,35.55,0,0,2.1,7.75,2.63,9.86.02.1.51.04,2.21.61,1.3.43,2.11,1.57,2.79,1.37h0Z"/>
    <path class="cls-24" d="M198.37,22.26c1.79-3.04,4.35-5.31,7.56-6.06.46-.11.75-.57.64-1.03-.11-.46-.57-.75-1.03-.64-3.65.85-6.6,3.4-8.64,6.86-.24.41-.11.94.3,1.18.41.24.94.11,1.18-.3h0Z"/>
    <path class="cls-24" d="M162.03,16.22s1.86,5.36,9.27,7.6c.45.14.93-.12,1.07-.57.14-.45-.12-.93-.57-1.07-6.45-1.96-8.14-6.54-8.14-6.54-.16-.45-.65-.68-1.1-.52-.45.16-.68.65-.52,1.1h0Z"/>
    <path class="cls-24" d="M148.94,35.43s3.84-.37,6.7-5.07c.25-.41.12-.94-.29-1.18-.41-.25-.94-.12-1.18.29-2.34,3.86-5.41,4.26-5.41,4.26-.47.05-.81.48-.76.95.05.47.48.81.95.76h0Z"/>
    <path class="cls-24" d="M175.57,15.37s5.09,7.1,10.41,9.47c.44.19.94,0,1.14-.44.19-.43,0-.94-.43-1.14-4.98-2.22-9.72-8.9-9.72-8.9-.28-.39-.81-.48-1.2-.2-.39.28-.48.81-.2,1.2h0Z"/>
    <path class="cls-24" d="M204.68,22.03c3.38,2.96,2.37,7.21,1.86,9.13-.12.46.15.93.61,1.05.46.12.93-.15,1.05-.61.61-2.3,1.65-7.33-2.39-10.87-.36-.31-.9-.28-1.21.08-.31.36-.28.9.08,1.21h0Z"/>
    <path class="cls-23" d="M161.47,100.01c.86-.57,1.04.17,1.42.87,2.31,4.33,8.82,29.42,16.57,29.49,9.27.09,16.38-30.07,17.19-31.23.46-.65,5.35,2.63,9.39,3.42,5.55,1.09,18.3,6.05,20.71,11.81,3.95,9.48,9.89,42.12,6.85,57.86-2.99,15.45-9.71,50.68-8.65,79.11.74,19.89.42,25.54,0,31.71-1.3,19.24-90.46,18.38-94.18,7.72-2.18-6.25-.81-10.52-1.19-17.83-.64-12.42,5.43-23.66,4.39-41.33-1.22-20.84-4.65-44.92-5.1-57.1-.8-21.64-6.23-59.52,4.77-64.1,11.88-4.94,26.98-9.84,27.83-10.4h0Z"/>
    <path class="cls-3" d="M156.96,98.21s-39.08,13.9-41.55,17.45c-2.48,3.55,7.88,78.58,7.54,83.32-.12,1.62,2.07,21.48-4.69,43.79-1.57,5.17,1.87,15.32,1.68,21.23-.32,9.97-5.01,24.01-5.65,33.91-2.26,35.18-2.94,42.16-3.52,52.66-.5,8.89,60.2,11.63,61.23,6.49.9-4.46,3.71-38.38,5.83-38.83,2.12-.45,5.82,28.27,6.9,36.11,1,7.27,54.25,7.39,58,1,3.75-6.39-5.09-61.39-5.82-72.06-.49-7.16-1.73-15.43-2.43-27.65-1.57-27.71,2.94-46.71,2.85-50.16-.17-6.63,10.98-80.35,11.8-84.11.82-3.76-47.27-22.15-47.27-22.15,0,0-3.99,18.01-6.68,26.82-3.51,11.49-14.36,42.15-14.36,42.15-10.72-20.36-18.24-44.64-23.86-69.96h0Z"/>
    <path class="cls-21" d="M180.28,179.15l-.22,108.23c0,.42.34.75.75.75s.75-.34.75-.75l.22-108.23c0-.41-.34-.75-.75-.75-.42,0-.75.34-.75.75h0Z"/>
    <path class="cls-21" d="M194.32,280.08l-.22-8.3c4.62.01,28.39.06,32.22-.5.41-.06.7-.44.64-.85-.06-.41-.44-.7-.85-.64-4.22.62-32.78.48-32.78.48-.2,0-.4.08-.54.23-.14.15-.22.34-.21.55l.24,9.08c.01.42.36.74.77.73.42-.01.74-.36.73-.77h0Z"/>
    <path class="cls-21" d="M201.77,167.72s12.6,1.57,21.63,1.42c2.36-.04,4.49-.2,6.09-.54,1.18-.24,2.1-.6,2.68-1.03.33-.25.4-.72.15-1.06-.25-.33-.72-.4-1.05-.15-.45.33-1.17.57-2.08.76-1.53.32-3.56.46-5.81.5-8.94.16-21.42-1.41-21.42-1.41-.41-.05-.79.24-.84.65-.05.41.24.79.65.84h0Z"/>
    <path class="cls-21" d="M147.99,279.35h-17.66l.19-8.06h35.48l-.3,8.79c-.02.42.31.77.72.78.42.01.77-.31.78-.73l.33-9.57c0-.2-.07-.4-.21-.55-.14-.15-.34-.23-.54-.23h-36.99c-.41,0-.74.33-.75.74l-.22,9.57c0,.2.07.4.21.54.14.15.34.23.54.23h18.43c.41,0,.75-.34.75-.75s-.34-.75-.75-.75h0Z"/>
    <path class="cls-41" d="M169.15,206.36c8.57-.92,16.26-1.86,24.03-4.09,4.49-1.29,7.86-1.39,11.83-11.18.67-1.64,3.66-9.44,4.81-11.73,2.09-4.14,3.29-6.64,7.52-8.3,7.26-2.85,13-4.36,16.9-5.22,3.25-.72,4,1.26,3.02,2.38-1.71,1.95-11.14,4.4-12.52,4.8-1.14.32,2.53.66,6.29.74,4.64.1,9.87-.7,10.92.36.48.49.4,2.17-1.25,2.42-2.79.42-8.81.44-10.28.77-4.17.94,5.29,1.33,11.25,1.81,2.92.24,1.65,2.61.25,2.84-1.59.27-7.03.98-10.54.49-3.51-.49,4.61,1.56,6.32,1.66,5.78.34,5.3,3.39.31,3.38-7.12-.02-10.53.48-11.51,1.1-.97.62-7.13,16.48-12.63,16.33-2.58-.08-7.88,10.09-18.49,17.27-8.32,5.62-10.46,6.68-17.52,9.68-11.13,4.72-17.25,2.4-21.32-1.22-4.07-3.62-5.21-16.45-3.11-20.5,2.1-4.05,10.45-3.22,15.72-3.78h0Z"/>
    <path class="cls-41" d="M191.73,190.58s-24.76-.24-29.81-.9c-5.05-.66-17.32-2.26-23.46,2.13-3.9,2.79-6.3,3.39-11.52,9.39-2.59,2.97-2.33,9.56-5.06,12.31-3.02,3.05-1.1,9.34,4.74,8.72,9.34-.98,14.79-2.48,21.25-8.62,6.47-6.15,4.14-8.62,8.52-8.36,9.34.55,31.58,4.17,34.67,5.19,3.09,1.03.67-19.86.67-19.86h0Z"/>
    <path class="cls-3" d="M144.68,195.94c2.39,2.6,9.95,1.37,10.31,4.15.36,2.79-.15,3.15,4.63,4.13,4.77.98,13.5-1.43,16.54.08,3.04,1.51-1.1,1.86-.34,15.42.76,13.56,2.84,11.46,3.44,12.38,1.43,2.2-6.06,5.9-12.42,5.59-4.5-.21-11.02-3.76-14.44-3.2-16.45,2.71-31.85-5.4-37.17-7.33-8.9-3.24-10.87-6.47-10.46-18.67.13-3.91.9-7.16-1.2-14.64-1.32-4.69-.17-11.44-.42-13.76-1.16-10.96-4.13-23.12-4.39-28.04-1.18-22.34,9.14-33.71,15.91-36.69,3.55-1.56,18.35,4.83,21.18,26.2,2.82,21.36-1.73,41.09,4.82,42.92,6.61,1.84,1.63,8.86,4.01,11.46h0Z"/>
    <path class="cls-3" d="M174.57,189.81c.45,2.45.7,8.21.16,13.35-.77,7.36-.95,10.89.95,12.45.99.81,4.87,2.96,16.95,4.39,18.67,2.21,29.86,3.97,33.77,4.37,10.93,1.12,20.49-.97,23.97-2.09,3.48-1.11,6.52-1.86,8.02-7.95,1.49-6.09,3.2-13.3.42-25.48-2.78-12.18-1.53-15.64-2.1-23.07-.47-6.15-1.79-9.71-2.01-16.37-.23-7.01,1.91-16.74-3.87-26.33-5.03-8.36-11.14-9.29-15.68-7.94-2.93.87-6.72,16.79-9.99,26.76-2.2,6.69-6.27,20.48-2.93,22.26,3.34,1.78.97,14.94,3.35,16.93,2.38,1.99-1.33-.04-1.12,3.59.23,3.95-2.8,4.16-2.8,4.16,0,0-22.3-.63-25.48,0-3.19.63-9.97,1.15-12.75,0-1.92-.8-9.39-1.93-8.87.97h0Z"/>
    <path class="cls-41" d="M222.8,189.96c-1.3.02-4.88-1.06-9.38-1.12-7.4-.1-7.73.14-7.02-1.35,1.01-2.12,2.27-5.85,3.43-8.14,2.09-4.14,3.29-6.64,7.52-8.3,3.18-1.24,6.55-3.19,9.12-3.98,3.3-1.02,5.55-.96,7.78-1.24,3.51-.45,4.13,1.56,3.15,2.67-.95,1.08-4.24,1.33-7.83,2.27-2.45.64-4.2,2.06-4.82,2.23-1.14.32,3.78-.34,7.54-.25,3.99.09,8.23.66,9.61,1.25.81.35.81,2.6-1.11,2.85-1.42.18-4-.05-6.06.06-2,.11-3.57.27-4.3.37-3.99.54,5.74.33,11.25,1.81,2.83.76,1.65,2.61.25,2.84-1.13.19-3.79-.25-6.72-.2-1.21.02-2.28-.06-4.16.25-3.5.57,5.02,1.73,6.73,1.83,5.78.34,5.24,3.67.25,3.65-7.12-.02-10.53.48-11.51,1.1-.24.16-1.95,1.36-3.71,1.38h0Z"/>
    <path class="cls-21" d="M135.13,148.81c1.31,4.17,1.65,9.34,2.04,13.7.27,3.02.57,5.67,1.18,7.39.72,2.04.89,3.22,1.05,4.13.18,1.05.36,1.77,1.15,2.85.6.81,1.5,1.42,2.23,2.04.38.33.73.64.82,1.07.09.42-.09.91-.57,1.57-1.03,1.42-1.2,2.64-1.08,3.59.2,1.51,1.2,2.36,1.2,2.36.31.27.79.24,1.06-.08.27-.31.24-.79-.07-1.06,0,0-.58-.52-.7-1.42-.09-.66.09-1.51.81-2.51.68-.94.9-1.71.87-2.35-.03-.7-.34-1.28-.83-1.81-.7-.76-1.85-1.37-2.53-2.3-.61-.84-.74-1.4-.88-2.22-.17-.95-.35-2.21-1.11-4.37-.58-1.64-.84-4.16-1.1-7.02-.4-4.47-.77-9.75-2.1-14.02-.12-.4-.55-.62-.94-.5-.4.12-.62.55-.49.94h0Z"/>
    <path class="cls-21" d="M140.84,197.12c-2.96,1.48-6.84,4.15-10.02,6.87-2.89,2.48-5.19,5.01-5.79,6.69-.14.39.07.82.46.96.39.14.82-.06.96-.45.55-1.54,2.71-3.79,5.35-6.05,4.05-3.47,9.27-6.9,12.02-7.59.65-.16.76-.61.77-.83,0-.17-.04-.35-.18-.52-.09-.12-.34-.32-.81-.43-1.83-.43-9.48-.41-18.3,5.73-.34.24-.42.71-.19,1.05.24.34.71.42,1.05.19,6.05-4.22,11.5-5.42,14.68-5.6h0Z"/>
    <path class="cls-21" d="M152.97,201.41c-3.43,1.48-10.28,4.49-13.48,9.09-.24.34-.15.81.19,1.05.34.24.81.15,1.05-.19,3.04-4.37,9.58-7.16,12.84-8.56.38-.17.56-.61.39-.99-.16-.38-.61-.56-.99-.39h0Z"/>
    <path class="cls-21" d="M123.15,231.42s27.22,5.99,36.15,7.05c6.37.76,13.41.01,17.36-1.34,1.09-.37,1.96-.79,2.54-1.23.49-.37.81-.78.95-1.18.14-.39-.06-.82-.45-.96-.39-.14-.82.06-.96.45-.08.24-.34.44-.68.65-.47.3-1.11.58-1.87.84-3.8,1.3-10.57,2-16.7,1.27-8.9-1.07-36.01-7.03-36.01-7.03-.41-.09-.81.17-.9.57-.09.41.16.81.57.9h0Z"/>
    <path class="cls-21" d="M198.3,221.02c12.46,2.6,31.85,4.83,33.81,4.83.41,0,.75-.34.75-.75s-.34-.75-.75-.75c-1.95,0-21.16-2.23-33.51-4.8-.41-.09-.81.18-.89.58-.08.41.18.81.58.89h0Z"/>
    <path class="cls-21" d="M228.58,191.56c3.3.4,8.63,1.62,12.6,3.7.37.19.82.05,1.02-.32.19-.37.05-.82-.32-1.02-4.05-2.13-9.46-3.39-12.91-3.83-1.57-.2-2.76-.22-3.29-.1-.57.13-.78.47-.84.71-.05.21-.04.45.12.7.1.15.32.37.75.57,3.83,1.87,10.63,3.06,17.16,10.62.27.32.75.35,1.06.08.31-.27.35-.75.08-1.06-5.6-6.49-11.38-8.46-15.43-10.05h0Z"/>
    <path class="cls-21" d="M125.49,242.55s-.39,2.34,2.93,5.45c3,2.81,9.24,6.38,22.28,9.33.41.09.81-.16.9-.57.09-.41-.16-.81-.57-.9-12.61-2.85-18.68-6.24-21.58-8.96-2.59-2.42-2.46-4.16-2.46-4.16.05-.41-.24-.79-.65-.84-.41-.05-.79.24-.84.65h0Z"/>
    <path class="cls-19" d="M205.94,131.57c-.12-2.03-.29-3.68-.26-5.13.03-1.27.22-2.35.81-3.36,1.36-2.32,4.96-3.57,8.22-3.83,6.14-.48,8.85,1.55,9.43,3.4.49,1.59.85,6.32.85,6.32.05.59.57,1.04,1.16.99.59-.05,1.04-.57.99-1.16,0,0-.41-5.09-.94-6.79-.73-2.34-3.9-5.52-11.65-4.91-3.97.31-8.26,2.06-9.92,4.88-1.46,2.49-1.12,5.31-.84,9.71.04.59.55,1.04,1.14,1.01.59-.04,1.04-.55,1.01-1.14h0Z"/>
    <path class="cls-19" d="M215.98,118.04c-.34-3.24-.9-8.43-3.02-12.91-1.47-3.12-3.7-5.9-7.06-7.54-.53-.26-1.18-.04-1.44.5-.26.54-.04,1.18.49,1.44,3.65,1.78,5.69,5.14,6.93,8.65,1.29,3.68,1.69,7.53,1.96,10.1.06.59.59,1.02,1.18.96.59-.06,1.02-.59.96-1.18h0Z"/>
    <path class="cls-21" d="M204.24,131.89l2.73,25.44s.73,8.55,10.98,8.68c.37,0,.68-.23.7-.53.01-.3-.28-.54-.65-.55-9.06-.12-9.68-7.7-9.68-7.7,0,0,0,0,0-.01l-2.73-25.44c-.03-.3-.36-.51-.73-.48-.37.03-.64.3-.61.6h0Z"/>
    <path class="cls-21" d="M217.92,164.19c1.77-.22,2.84.1,2.82,1.39-.02,1.18-1.29,1.74-2.9,1.5-1.5-.22-2.7-.83-2.63-1.71.07-.89,1.08-.97,2.71-1.17h0Z"/>
    <path class="cls-21" d="M226.81,129.15l2.29,25.49s.96,8.52-9.21,10.69c-.37.08-.72-.09-.8-.38-.07-.29.17-.59.54-.67,8.99-1.91,8.11-9.47,8.11-9.47h0s-2.29-25.5-2.29-25.5c-.03-.29.26-.57.63-.61.37-.04.7.16.73.46h0Z"/>
    <path class="cls-21" d="M219.57,163.53c-1.8.13-2.8.66-2.53,1.92.25,1.15,1.62,1.45,3.18.9,1.44-.51,2.53-1.34,2.28-2.2-.25-.85-1.27-.73-2.92-.61h0Z"/>
    <path class="cls-19" d="M153.22,98.3c-5.03,4.47-10.7,10.45-12.09,25.96-1.43,15.98-1.58,35.25-1.58,35.25,0,.58.47,1.06,1.05,1.07.58,0,1.06-.47,1.07-1.05,0,0,.15-19.18,1.57-35.08,1.31-14.67,6.62-20.34,11.39-24.56.44-.39.48-1.06.09-1.5-.39-.44-1.06-.48-1.5-.09h0Z"/>
    <path class="cls-28" d="M140.8,162.97c4.17.19,7.39,3.73,7.2,7.9-.19,4.17-3.73,7.39-7.9,7.2-4.16-.19-7.39-3.73-7.2-7.9.19-4.17,3.73-7.39,7.9-7.2h0Z"/>
    <path class="cls-1" d="M140.65,166.23c2.36.11,4.19,2.12,4.08,4.48-.11,2.36-2.12,4.19-4.48,4.08-2.36-.11-4.19-2.12-4.08-4.48.11-2.36,2.12-4.19,4.48-4.08h0Z"/>
    <path class="cls-32" d="M142.44,164l.05-4.07c.01-.89-.84-1.62-1.9-1.63-1.06-.01-1.93.7-1.94,1.59l-.05,4.07c-.01.89.84,1.62,1.9,1.63,1.06.01,1.93-.7,1.94-1.59h0Z"/>
    <path class="cls-3" d="M158.37,94.47s.79,2.78,3.01,10.82c5.04,18.21,15.31,56.22,19.01,56.28,2.64.05,11.29-27.05,16.82-49.12,2.96-11.8,3.97-17.26,4.32-17.33.92-.19,2.8-.36,5.64,3.47,5.08,6.84,11.41,18.37,10.79,21.32-.26,1.22-12.62,3.04-14.77,4.98-1.52,1.37,9.01,11.74,9.01,11.74,0,0-11.04,9.06-18.21,17.89-4.8,5.91-13.8,18.18-13.8,18.18,0,0-11.48-14.58-18.32-22.74-5.29-6.31-13.44-12.98-13.44-12.98l9.01-11.72s-10.38-6.4-13.39-5.85c-1.9.35,2.54-10.78,7.3-19.25,2.76-4.91,5.96-5.29,7.03-5.69h0Z"/>
    <path class="cls-21" d="M181,172.06s-11.49-14.6-18.34-22.77c-4.36-5.2-10.65-10.64-12.81-12.47l8.4-10.93c.19-.25.26-.57.19-.88-.08-.3-.28-.56-.57-.69,0,0-9.94-4.63-13.48-5.89-.54-.19-1.13.09-1.32.63-.19.54.09,1.13.63,1.32,2.75.98,9.43,4.03,12.13,5.28l-8.22,10.7c-.34.44-.27,1.07.17,1.43,0,0,8.07,6.6,13.31,12.84,6.84,8.15,18.31,22.72,18.31,22.72.35.45,1,.52,1.45.17.45-.35.52-1,.17-1.45h0Z"/>
    <path class="cls-21" d="M218.78,117.17c-.22-.91-.56-1.9-.98-2.93-.63-1.51-1.44-3.11-2.3-4.65-.72-1.29-1.47-2.53-2.17-3.64-.34-.53-.67-1.04-.97-1.49-.41-.61-.78-1.14-1.1-1.57,0,0,0,0,0,0-.31-.43-.57-.75-.73-.94-.51-.56-1.06-.51-1.29-.45-.04,0-.06.02-.08.03-.17.07-.32.19-.44.35-.04.05-.07.11-.1.16-.03.05-.05.12-.07.21-.04.13-.05.29,0,.49.04.21.15.39.29.53h0c.08.08.17.14.27.19.41.48,1.17,1.55,2.07,2.93.46.7.94,1.48,1.44,2.31,1.02,1.71,2.07,3.62,2.89,5.44h0c.14.3.26.6.38.89.29.7.55,1.37.74,2,.25.82.4,1.55.38,2.16,0,.07,0,.14-.01.21-.36.16-1.37.63-2.34.94-2.24.73-5.33,1.58-7.93,2.37h0c-1.04.31-2,.62-2.8.91-.81.29-1.45.56-1.82.8-.52.33-.81.91-.59,1.76.11.43.41,1.02.87,1.68.34.48.77,1.03,1.25,1.6.67.79,1.45,1.63,2.25,2.47.17.18.34.36.52.53.24.25.48.49.72.73,1.41,1.42,2.76,2.69,3.58,3.45-.83.84-2.3,2.31-4.15,4.21-.39.4-.8.82-1.22,1.25-6.24,6.45-15.66,16.5-20.48,23.22-.24.34-.25.78-.05,1.12.07.12.17.23.29.32.47.33,1.11.23,1.44-.24,4.47-6.24,12.95-15.38,19.09-21.76.42-.43.82-.85,1.22-1.26,3.56-3.68,6.08-6.17,6.08-6.17.2-.2.31-.47.31-.75,0-.28-.13-.55-.34-.74,0,0-1.85-1.68-3.93-3.75-.36-.35-.72-.72-1.07-1.08-.75-.76-1.48-1.54-2.14-2.29-.75-.84-1.39-1.64-1.82-2.3-.11-.16-.21-.36-.28-.51.52-.25,1.26-.52,2.14-.81,3.31-1.08,8.56-2.38,11.08-3.37.75-.29,1.29-.58,1.57-.82.33-.27.48-.58.53-.81.05-.23.08-.48.08-.74.02-.64-.08-1.39-.28-2.2Z"/>
    <path class="cls-42" d="M249.28,121.36c-.18,0-.37-.07-.51-.2-7.14-6.86-35.57-16.77-35.85-16.87-.38-.13-.59-.55-.45-.93.13-.38.55-.59.93-.45,1.18.41,29.02,10.12,36.39,17.2.29.28.3.75.02,1.04-.14.15-.34.23-.53.23Z"/>
    <path class="cls-42" d="M107.59,121.94c-.11,0-.23-.03-.33-.1-.27-.18-.34-.55-.15-.82,6.89-10.11,40.59-20.36,42.02-20.79.31-.09.64.08.73.39.09.31-.08.64-.39.73-.35.1-34.73,10.56-41.39,20.33-.11.17-.3.26-.49.26Z"/>
  </g>
</svg>