<?xml version="1.0" encoding="UTF-8"?>
<svg id="Layer_2" data-name="Layer 2" xmlns="http://www.w3.org/2000/svg" viewBox="0 0 3200 1800">
  <defs>
    <style>
      .cls-1 {
        fill: #dd6862;
      }

      .cls-1, .cls-2, .cls-3, .cls-4, .cls-5, .cls-6, .cls-7, .cls-8, .cls-9, .cls-10, .cls-11, .cls-12, .cls-13, .cls-14, .cls-15, .cls-16, .cls-17, .cls-18, .cls-19, .cls-20, .cls-21, .cls-22, .cls-23, .cls-24, .cls-25, .cls-26, .cls-27, .cls-28, .cls-29, .cls-30, .cls-31, .cls-32, .cls-33, .cls-34 {
        fill-rule: evenodd;
      }

      .cls-2 {
        fill: #c2c3c5;
      }

      .cls-3 {
        fill: #4c6d8a;
      }

      .cls-4 {
        fill: #fff;
      }

      .cls-5 {
        fill: #6c3620;
      }

      .cls-6 {
        fill: #fe966e;
      }

      .cls-7 {
        fill: #257c7a;
      }

      .cls-8 {
        fill: #fea482;
      }

      .cls-9 {
        fill: #35b0ad;
      }

      .cls-10 {
        fill: #ff9473;
      }

      .cls-11 {
        fill: #bf6c41;
      }

      .cls-12 {
        fill: #3273c1;
      }

      .cls-13 {
        fill: #5790d5;
      }

      .cls-14 {
        fill: #3a221e;
      }

      .cls-15 {
        fill: #f1815c;
      }

      .cls-16 {
        fill: #a1562f;
      }

      .cls-17 {
        fill: #c2c4c5;
      }

      .cls-18 {
        fill: #a65e38;
      }

      .cls-19 {
        fill: #3277c9;
      }

      .cls-20 {
        fill: #773800;
      }

      .cls-21 {
        fill: #31a3a0;
      }

      .cls-22 {
        fill: #d2e9ee;
      }

      .cls-23 {
        fill: #feab81;
      }

      .cls-24 {
        fill: #4b88d2;
      }

      .cls-25 {
        fill: #e4e5e6;
      }

      .cls-26 {
        fill: #8d462a;
      }

      .cls-35 {
        fill: #f2f2f2;
      }

      .cls-27 {
        fill: #fe9965;
      }

      .cls-28 {
        fill: #f0754d;
      }

      .cls-29 {
        fill: #421d06;
      }

      .cls-30 {
        fill: #ff7a7a;
      }

      .cls-31 {
        fill: #b9cbd5;
        stroke: #b7cbd4;
        stroke-linecap: round;
        stroke-linejoin: round;
      }

      .cls-32 {
        fill: #ccdbe8;
      }

      .cls-33 {
        fill: #f1825c;
      }

      .cls-34 {
        fill: #96b3c0;
      }
    </style>
  </defs>
  <g>
    <path class="cls-6" d="M908.88,432.67s.3,38.37.02,64.09c-.22,20.64,0,52.08-12.91,60.57-10.71,7.05-60.7,26.58-60.7,26.58,0,0,63.32,124.47,143.01,122.51,68-1.66,96.2-139.78,96.2-139.78,0,0-45.15-7.58-55.81-16.3-9.53-7.77-6.28-12.38-8.2-35.97-1.73-21.3,2.2-79.61,2.2-79.61l-103.79-2.09h0Z"/>
    <path class="cls-28" d="M915.33,490.78c5.25,26.95,28.12,97.48,77.92,78.78,15.6-5.86,14.52-40.98,16.55-57.65,3.64-29.84,3.22-45.78,5.55-56.39,0,0-93.99-26.45-96.23-7.76-1.69,14.06-6.66,28.32-3.79,43.02h0Z"/>
    <path class="cls-6" d="M1074.49,381c19.83,9.52-1.55,49.03-12.63,61.46-11.41,12.79-10.61.1-11.96,5.78-3.89,16.47-10.06,30-12.45,36.25-5.89,15.32-23.09,47.5-58.09,48.55-31.9.97-68.35-28.53-75.31-46.52-4.61-11.89-10.53-23.01-15.86-38.83,0,0-7.82,5.55-15.95-.66-9.65-7.37-34.99-46.72-20.84-60.93,9.89-9.94,21.23-6.18,27.51,5.33,1.11,2.03-2.34-61.04,11.56-86.18,24.93-45.1,99.12-44.69,129.62-29.98,30.5,14.72,36.51,29.85,42.57,54.03,4.57,18.27-1.33,43.89-3.75,50.94-3.86,11.24,2.2-5.66,15.58.76h0Z"/>
    <path class="cls-10" d="M876.08,412.54c-.55.11-1.16.31-1.79.64-1.43.75-3,2.16-4.11,4.94-.97,2.43-.44,6.45,1.45,9.64,1.93,3.28,5.14,5.55,8.82,4.76,1.26-.26,2.08-1.58,1.83-2.95-.24-1.37-1.46-2.27-2.72-2-1.74.37-3.11-.99-4.02-2.54-.98-1.65-1.58-3.66-1.09-4.92,1.18-2.98,3.34-2.66,3.34-2.66,1.1.27,2.22-.36,2.65-1.48,0,0,2.56-5.55-4.69-15.34-3.55-4.77-7.31-5.45-10.3-4.32-4.35,1.65-7.4,7.89-6.26,13.57.27,1.35,1.51,2.22,2.76,1.93,1.25-.29,2.04-1.63,1.78-2.99-.64-3.18.82-6.82,3.26-7.75,1.55-.59,3.31.26,5.14,2.73,2.89,3.91,3.72,7.01,3.94,8.76h0Z"/>
    <path class="cls-10" d="M1059.25,410.87c.53.04,1.12.15,1.74.38,1.45.53,3.11,1.7,4.55,4.3,1.25,2.27,1.37,6.32.1,9.73-1.3,3.52-3.92,6.21-7.45,5.96-1.2-.09-2.15-1.28-2.14-2.67.02-1.38,1.02-2.43,2.22-2.35,1.67.12,2.73-1.42,3.34-3.08.66-1.77.92-3.84.28-5.02-1.55-2.79-3.5-2.16-3.5-2.16-.98.42-2.1-.04-2.68-1.09,0,0-3.2-5.13,2.05-15.83,2.56-5.22,5.95-6.42,8.88-5.72,4.27,1.02,8.02,6.77,7.83,12.54-.05,1.38-1.07,2.41-2.27,2.29-1.21-.11-2.15-1.33-2.1-2.71.11-3.24-1.78-6.63-4.17-7.2-1.52-.37-3.02.71-4.35,3.42-2.09,4.26-2.4,7.45-2.34,9.21h0Z"/>
    <path class="cls-10" d="M973.9,490.38c-.78-.22-1.85-.28-2.12.24-.9,1.73,3.01,2.9,4.77,2.99.56.04,3.39.19,4.26-.13.65-.16,1.05-.82.88-1.47-.17-.64-.83-1.04-1.47-.88-.67.1-1.87.06-2.51-.02-.45-.05-2.83-.45-3.82-.73h0Z"/>
    <path class="cls-30" d="M958.72,476c1.34-1.75,7.63.23,19.94.47,10.38.19,16.29-.5,16.38,2.05.13,3.66-6.45,9.2-16.45,9.24-14.19.06-22.11-8.84-19.87-11.76h0Z"/>
    <path class="cls-28" d="M980.42,417.3l1.92,11.84c.71,4.1.79,7.13,1.23,9.38.19,1.03.48,1.93.87,2.69,1.16,2.28,1.52,4.38.96,6.09-.56,1.71-2.16,2.88-4.68,3.25-.63.09-1.26.06-1.92-.03-3.12-.45-6.49-2.02-10.51-2.02-1.05-.03-1.96.69-2.05,1.6-.08.91.7,1.67,1.75,1.69,3.79.16,6.86,1.84,9.8,2.39,1.13.2,2.25.26,3.36.13,4.7-.56,7.6-2.88,8.71-6.05.87-2.46.57-5.55-1.1-8.85-.4-.76-.59-1.71-.77-2.86-.32-2.1-.54-4.79-1.21-8.22l-2.24-11.73c-.17-.98-1.22-1.62-2.37-1.43-1.14.19-1.93,1.15-1.77,2.13h0Z"/>
    <path class="cls-29" d="M940.54,391.67c5.19.06,9.33,6.46,9.25,14.29-.08,7.83-4.37,14.15-9.55,14.09-5.19-.06-9.33-6.46-9.25-14.3.08-7.83,4.36-14.14,9.55-14.08h0Z"/>
    <path class="cls-29" d="M1014.87,395.65c4.45.25,7.72,6.43,7.3,13.78-.42,7.35-4.38,13.12-8.83,12.86-4.45-.26-7.72-6.43-7.3-13.78.42-7.36,4.38-13.12,8.82-12.86h0Z"/>
    <path class="cls-16" d="M927.31,376.02c9.29-.66,16.29-.43,22.74.9,8.07,1.69,11.79-.93,12.26-6.16.21-2.4-4.15-6.77-11.57-8.15-9.21-1.71-29.14-4.85-34.4,3.05-1.92,2.87-4.02,11.43,10.97,10.36h0Z"/>
    <path class="cls-16" d="M1035.34,376.71c-3.42-.5-14.48-1.52-25.57,0-6.79.93-11.54-1.08-10.32-7.06.53-2.63,3.56-4.53,11.64-5.86,11.74-1.92,24.02-1.4,27.67.72,8.34,4.85,6.54,13.63-3.43,12.2h0Z"/>
    <path class="cls-11" d="M980.04,320.73c-7.18-17.19-49.36-22.23-52.05-8.4-3.34,17.16-15.03,11.54-14.14,30.44.68,14.4.01,17.23-16.18,32.72-9.94,9.52,7.06,49.59-5,47.14-5.08-1.03-6.84-18.18-14.5-30.96-4.47-7.46-12.8-12.64-19.21-10.31-4.04,1.47-8.11-.76-11.76-7.23-5.36-9.51-10.94-18.5-6.65-42.77,1.8-10.16-9.4-45.25,29.67-64.97,0,0-.28-7.71,6.75-18.75,13.53-21.22,43.5-33.3,65.63-35.62,51.45-5.39,79.81,8.49,98.86,31.6,27.1,32.9,62.81,25.94,68.52,46.37,7.67,27.42-4.36,53.79-20.4,63.43-20.81,12.5-21.12,33.17-30.28,54.05-11.92,27.18,1.42-21.77-13.57-48.65-7.77-13.93-54.1-10.33-65.69-38.1h0Z"/>
    <path class="cls-18" d="M1011.04,332.53c13.84,10.07,55.29,25.99,87.36,2.35.89-.65,1.08-1.9.42-2.79-.65-.88-1.9-1.07-2.78-.41-30.35,22.37-69.56,7.16-82.65-2.37-.89-.64-2.14-.44-2.79.44-.64.89-.44,2.14.44,2.78h0Z"/>
    <path class="cls-18" d="M895.38,288.42c-9.93.47-15.96,3.62-19.57,8.32-3.57,4.65-4.77,10.95-4.78,18.09,0,12.69,2.6,19.4.97,27.44-1.47,7.29-3.61,12.02-5.93,14.87-1.9,2.33-3.81,3.29-5.43,3.14-1.1-.09-2.06.72-2.16,1.81-.09,1.1.72,2.06,1.81,2.16,2.12.18,4.67-.53,7.19-2.8,3.18-2.88,6.44-8.52,8.44-18.4,1.68-8.27-.89-15.16-.88-28.22,0-6.16.87-11.65,3.95-15.67,3.04-3.96,8.23-6.36,16.59-6.75,1.1-.06,1.95-.99,1.9-2.09-.05-1.1-.99-1.94-2.08-1.9h0Z"/>
    <path class="cls-18" d="M903.47,267.21c2.64-20.6,18.33-30.42,36.22-32.96,18.24-2.6,38.82,2.28,50.86,11.33,15.91,11.97,28.44,25.19,41.58,34.62,13.55,9.72,27.75,15.48,46.68,12.18,1.08-.19,1.8-1.23,1.62-2.31-.19-1.08-1.23-1.81-2.31-1.62-17.71,3.09-30.97-2.39-43.66-11.49-13.12-9.4-25.62-22.6-41.51-34.56-12.74-9.58-34.51-14.84-53.81-12.09-19.65,2.8-36.71,13.78-39.61,36.4-.14,1.1.63,2.09,1.72,2.23,1.09.14,2.09-.63,2.23-1.72h0Z"/>
    <path class="cls-22" d="M878.27,583.81s80.56,108.82,167.45,13.45c18.82-20.66,56.78,25.28,56.78,25.28l-47.75,161.55-164.79,1.67-51.8-161.38,40.12-40.57h0Z"/>
    <path class="cls-24" d="M1139.5,1602.24c-.04.94-.14,1.86-.29,2.76h-159.26c-.24-1.01-.43-2.04-.55-3.1-4.98-42.04-13.05-266.32-27.35-261.34-6.66,2.31-27.2,172.44-36.12,252.34-.49,4.43-2.63,8.46-6.06,12.1h-155.08c.92-30.13-.82-35.12.94-62.6,1.16-18.09-6.08-184.14,6.35-322.05,7.16-79.41,20.85-149.49,46.42-176.62,0,0,108.69,27.79,168.93,34.38.6.07,1.2.13,1.8.18,4.47.46,8.96.78,13.43.97,45.56,2.02,90.34-8.31,114.29-13.1,15.85-3.17,28.22,48.63,31.69,75.79,2.13,16.72,3.54,45.04,4.41,79.86,2.96,119.16-.5,314.35-3.55,380.43Z"/>
    <path class="cls-12" d="M989.22,1366.3c14.84,12.65,32.49,46.89,51.69,73.34,7.82,10.78,15.91,20.27,24.13,26.61,5.67,4.38,11.42,7.25,17.21,8.12,25.71,3.83,37.54-8.11,47.19-21.65.56-.78.38-1.88-.41-2.43-.78-.56-1.87-.38-2.43.41-8.98,12.59-19.92,23.77-43.83,20.21-5.25-.78-10.45-3.45-15.6-7.42-8-6.16-15.83-15.43-23.43-25.9-19.37-26.69-37.28-61.18-52.26-73.95-.74-.63-1.84-.53-2.47.2-.63.73-.53,1.83.2,2.46h0Z"/>
    <path class="cls-12" d="M792.91,1512.18c7.88,7.77,21.05,12.14,36.62,10.9,22.85-1.83,51-15.77,74.68-48.71.56-.78.39-1.88-.4-2.44-.78-.56-1.88-.39-2.44.4-22.9,31.86-50.02,45.5-72.12,47.26-14.39,1.16-26.6-2.72-33.89-9.89-.68-.68-1.79-.67-2.47,0-.67.69-.67,1.8.02,2.48h0Z"/>
    <path class="cls-12" d="M782.73,1286.17c.21.07.86.31,1.32.64,1.32.94,2.91,2.63,4.77,5.2,10.41,14.31,19.71,37.32,51.46,55.81.84.49,1.91.2,2.4-.63.49-.84.2-1.91-.63-2.39-31.16-18.15-40.19-40.81-50.41-54.85-2.97-4.07-5.47-6.22-7.25-6.93-1.46-.59-2.65-.42-3.55.15-.83.53-1.49,1.51-1.75,2.98-.29,1.76-.02,4.46,1.07,7.82,2.31,7.2,8.29,17.78,19.09,28.66.68.68,1.79.69,2.48,0,.68-.68.68-1.79,0-2.47-12.2-12.29-18.02-24.1-19.1-30.65-.17-1.11-.22-2.05-.1-2.77.04-.19.14-.44.18-.57h0Z"/>
    <path class="cls-13" d="M860.55,564.23c6.72-3.38,19.47-16.97,23.07-9.49,2.94,6.13,64.67,175.4,86.72,176.32,20.34.85,72.52-156.99,75.4-169.7,2.63-11.64,15.77-1.57,28.76,3.74,27.98,11.44,62.07,20.93,67.39,30.8,16.61,30.78,21.34,127.31,17.57,181.75-3.66,52.57-25.62,154.54-24.66,226,1.11,82.87,20.12,155.56,20.31,200.1.29,65.68-387.75,45.83-400.43,9.52-7.43-21.28,22.02-77.59,17.01-123.5-5.65-51.79,14.35-56.44,4.61-122.93-10.3-70.31-5.56-122.83-8.96-168.61-5.41-72.76-32.85-197.22,4.6-212.8,40.44-16.84,85.55-19.66,88.62-21.21h0Z"/>
    <path class="cls-19" d="M826.58,1100.62s-4.68,16.49,3.83,26.62c3.35,4,8.77,7.13,17.48,7.67,11.95.74,30.6-3.45,59.46-17.26,93.97-44.94,149.06-63.07,149.06-63.07,1.5-.5,2.42-2.26,2.04-3.93-.38-1.68-1.9-2.64-3.4-2.15,0,0-55.32,18.19-149.7,63.34-23.12,11.05-39.41,15.83-50.84,16.67-10.48.78-16.58-1.71-19.95-5.73-6.51-7.76-2.66-20.41-2.66-20.41.5-1.68-.3-3.44-1.77-3.92-1.46-.48-3.06.49-3.56,2.17h0Z"/>
    <path class="cls-19" d="M1072.88,589.4c-19.28,84.95-51.22,141.57-71.18,172.55-.6.93-.33,2.18.6,2.78.94.6,2.18.33,2.78-.6,20.12-31.21,52.3-88.25,71.72-173.85.25-1.08-.43-2.16-1.52-2.4-1.08-.25-2.15.43-2.4,1.52h0Z"/>
    <path class="cls-19" d="M859.66,590.36c12.33,46.5,39.54,109.89,64.13,151.55,10.66,18.05,20.86,32.02,29.16,38.92.86.71,2.13.6,2.84-.26.71-.86.59-2.13-.27-2.84-8.06-6.71-17.91-20.34-28.26-37.88-24.43-41.37-51.45-104.33-63.71-150.52-.29-1.08-1.39-1.71-2.47-1.43-1.07.29-1.71,1.38-1.43,2.46h0Z"/>
    <path class="cls-19" d="M1084.33,685.65l-18.89,89.27c-.23,1.09.47,2.16,1.56,2.39,1.09.23,2.16-.47,2.39-1.56l18.89-89.26c.23-1.09-.47-2.16-1.56-2.39-1.09-.23-2.16.46-2.39,1.55h0Z"/>
    <path class="cls-19" d="M815.21,708.97c8.16,38.36,14.06,79.14,12.32,105.42-.71,10.76-2.61,19-6.38,23.39-.73.84-.63,2.12.21,2.84.84.73,2.12.64,2.84-.21,4.17-4.85,6.57-13.87,7.35-25.75,1.75-26.55-4.15-67.77-12.4-106.52-.23-1.09-1.3-1.78-2.39-1.55-1.09.23-1.79,1.3-1.56,2.39h0Z"/>
    <path class="cls-6" d="M838.97,877.1c43.97-17.64,144.84,11.25,171.3,3.64,15.28-4.39,26.78-4.73,40.29-38.07,2.27-5.58,12.45-32.15,16.39-39.94,7.12-14.09,11.21-22.61,25.58-28.25,24.73-9.69,44.26-14.83,57.55-17.78,11.07-2.46,13.63,4.29,10.29,8.09-5.83,6.63-37.93,15-42.64,16.34-3.91,1.11,8.6,2.25,21.43,2.53,15.78.35,33.6-2.39,37.19,1.22,1.66,1.67,1.37,7.39-4.26,8.24-9.52,1.44-29.99,1.48-35,2.61-14.19,3.19,18.01,4.53,38.31,6.16,9.95.8,5.63,8.88.84,9.68-5.42.9-23.95,3.33-35.89,1.68-11.95-1.66,15.71,5.31,21.52,5.65,19.69,1.15,18.06,11.54,1.08,11.5-24.24-.06-35.87,1.64-39.18,3.75-3.31,2.12-21.91,42.58-28.44,56.77-9.06,19.7-27.26,14.14-39.38,22.38-15.6,10.62-33.53,15.45-63,22.26-42.5,9.84-69.7,13.36-86.6,16.8-40.34,8.22-133.03,33.2-158.76,1.72-17.35-21.23-30.57-122.36-29.96-158.09.57-33.37,75.83-39.72,87.58-18.72,8.44,15.08,21.94,104.57,33.76,99.82h0Z"/>
    <path class="cls-6" d="M1100.32,746.3c-6.39,14.77-10.01,50.56-14.07,74.73-2.28,13.52-4.1,28.34-12.72,26.55-23.77-4.94-54.1-5.2-81.93-6.81-25.16-1.46-74.94-1.22-87.78-2.9-17.19-2.27-86.47-13.08-82.39,12.28,2.39,14.83,4.86,45.46,17.54,39.37,19.36-9.29,33.12,7.52,48.43,5.75,44.21-5.12,105.44,20.9,115.82,24.78,29.31,10.94,103.34,42.05,143.74,32.1,35.46-8.72,29.07-158.32,33.47-183.65,4.92-28.31-72.3-40.24-80.11-22.2h0Z"/>
    <path class="cls-28" d="M835.48,890.1c14.84-1.34,25.64,1.05,36.5,3.3,11.23,2.32,22.55,4.5,38.21,2.57,10.65-1.3,26.45,2.61,42.84,8,25.13,8.26,51.6,20.1,63.6,23.15,1.08.28,2.17-.38,2.45-1.46.28-1.08-.38-2.17-1.46-2.45-11.95-3.04-38.3-14.84-63.34-23.07-17.05-5.61-33.51-9.52-44.59-8.17-15.12,1.86-26.05-.28-36.9-2.52-11.22-2.32-22.36-4.74-37.67-3.36-1.11.1-1.93,1.08-1.82,2.18.09,1.11,1.08,1.93,2.18,1.82h0Z"/>
    <path class="cls-13" d="M821.18,847.96c-18.14,9.34-101.25,44.33-108.4,18.87-4.49-15.98-3.22-60.47-3.87-68.39-3.67-45.33-4.48-94.13-5.62-110.87-5.41-79.04,43.37-91.52,66.44-101.68,12.08-5.31,38.68,40.63,41.88,88.15,4.91,73.22,8.7,112.04,10,136.75,1.4,26.28,10.58,31.49-.43,37.16h0Z"/>
    <path class="cls-13" d="M1094.26,676.93c-2.69,27.85-24.86,122.21-29.64,148.97-4.02,22.43,121.77,53.31,126.54,32.42,7.8-34.17,18.94-170.51,18.19-193.21-.8-23.88-14.19-46.61-40.37-59.85-36.97-18.69-61.68-35.92-65.71-5.13-3.94,30.08-7.07,56.81-9,76.81h0Z"/>
    <path class="cls-6" d="M1111.12,838.83c-9.68,5.59-17.57,10.84-36.74,8.59-25.05-2.93-21.53-11.94-19.1-16.99,3.45-7.2,7.73-19.91,11.67-27.71,7.12-14.09,12.06-24.31,26.44-29.94,10.81-4.25,21.31-10.31,30.05-13.01,11.24-3.46,18.51-3.35,26.54-4.54,11.76-1.72,14.17,6.75,10.82,10.56-3.23,3.68-14.43,4.52-26.66,7.72-8.35,2.18-14.21,7.45-16.31,8.05-3.9,1.11,14.87-3.05,27.69-2.75,13.58.32,22.85.99,27.86,1.91,10,1.83,7.35,12.84-2.5,13.61-4.87.38-12.13-.27-19.14.12-6.8.38-12.15.92-14.66,1.26-13.6,1.84,19.49-.65,38.26,4.39,9.64,2.59,5.68,10.65.89,11.45-3.83.64-12.91-.87-22.89-.68-4.14.07-7.76-.2-14.17.84-11.9,1.94,17.3,4.07,23.12,4.41,19.68,1.15,17.63,14.3.64,14.25-24.24-.06-35.87,1.64-39.18,3.75-.83.53-7.42,1.69-12.63,4.69h0Z"/>
    <path class="cls-28" d="M1025.23,844.95c24.97,1.28,52.75,3.57,67.37,5.01,1.11.1,2.09-.71,2.2-1.81.1-1.1-.7-2.09-1.81-2.19-14.65-1.44-42.51-3.74-67.56-5.03-1.11-.06-2.05.8-2.11,1.91-.06,1.11.79,2.05,1.91,2.12h0Z"/>
    <path class="cls-28" d="M821.27,848.54c2.75,9.12,8.27,27.35,10.02,37.49.19,1.1,1.23,1.83,2.33,1.65,1.1-.19,1.83-1.23,1.64-2.33-1.78-10.28-7.35-28.74-10.14-37.97-.32-1.07-1.45-1.67-2.51-1.35-1.07.32-1.67,1.45-1.35,2.51h0Z"/>
  </g>
  <g>
    <path class="cls-23" d="M1871.66,479.85c1.12,15.03,8.12,78.81,1.8,86.99-15,19.45-52.79,13.6-50.17,25.88,4.61,21.61,40.95,103.68,88.9,101.35,58.18-2.82,96.54-73.5,107.41-93.45,7.92-14.53-22.37-23.12-42.14-26.24-18.96-2.98-12.49-90.86-12.63-97.02-.43-19.69-95.37-27.14-93.17,2.48h0Z"/>
    <path class="cls-27" d="M1881.02,528.91c3.91,16.79,12.82,47.25,41,48.06,25.87.74,32.02-17.46,36.56-38.27,4.2-19.29,4.61-47.64,4.95-59.37.56-19.68-91.7-20.36-86.62,4.04,1.42,6.84-.34,26.33,4.12,45.54h0Z"/>
    <path class="cls-23" d="M1826.29,441.39s-15.15-16.74-18.17,4.5c-1.98,13.94,27.47,46.14,35.7,33.1,0,0,26.7,68.88,72.1,69.29,51.69.46,73.84-52.28,78.42-69.29,0,0,3.53,5.88,12.48,3.31,9.6-2.74,20.85-20.2,24.28-35.51,3.94-17.54-6.35-21.5-17.44-16.17-7.28,3.5-2.87-13.1-3.24-31.96-.45-23.65-9.87-63.15-25.68-76.71-29.22-25.06-91.11-34.02-129.43,0-34.75,30.84-29.02,119.45-29.02,119.45h0Z"/>
    <path class="cls-20" d="M2021.69,292.44s24.7-27.35,52.5-14.25c27.67,13.03,39.02,50.29,22.55,104.19-15.59,51.02-6.53,86.51,3.95,106.61,4.37,8.37-29.92-7.34-46.99-36.54-14.74-25.19-8.43-68.19-9.99-79.99-2.21-16.8-9.41-25.2-9.41-25.2,0,0,10.27-14.27,9.41-22.35-2.97-27.96-22.03-32.47-22.03-32.47h0Z"/>
    <path class="cls-9" d="M2012.04,286c14.46-4.46,29.52,7.7,37.57,28.23,8.08,20.6-.36,39.31-14.82,43.77-14.46,4.46-32.6-10.9-38.41-29.75-5.82-18.86,1.2-37.79,15.66-42.25h0Z"/>
    <path class="cls-20" d="M1884.78,335.29s-1.81,20.15-30.53,54.03c-21.36,25.2-12.75,72.55-8.49,86.09,5.62,17.82-59.16-31.96-40.02-127.69,15.43-77.18,66.9-78.64,72.53-76.19,5.62,2.45,25.11-41.59,82.76-12.58,137.34,69.14,53.21,204.95,32.62,211.4-7.85,2.46,11.6-47.16-13.93-79.14-17.04-21.36-38.17-4.7-55.66-45.99-1.97-4.66-1.46,12.94-.34,18.14,1.98,9.13,12.31,28.09,6.77,26.26-38.92-12.88-43.8-35.3-45.71-54.33h0Z"/>
    <path class="cls-20" d="M1868.92,400.67s3.85-3.27,10.25-3.97c3.27-.37,7.18-.05,11.58,1.61,2.84,1.07,5.9-.66,6.84-3.86.94-3.21-.59-6.67-3.42-7.74-6.1-2.29-11.52-2.68-16.07-2.18-9.99,1.11-15.89,6.55-15.89,6.55-2.35,2.09-2.75,5.94-.89,8.58,1.85,2.64,5.25,3.1,7.59,1h0Z"/>
    <path class="cls-20" d="M1977.76,391.08s-5.9-5.44-15.9-6.55c-4.54-.5-9.97-.11-16.06,2.18-2.83,1.07-4.36,4.53-3.42,7.74.95,3.2,4.02,4.93,6.84,3.86,4.4-1.66,8.31-1.98,11.59-1.61,6.39.7,10.24,3.97,10.24,3.97,2.34,2.09,5.74,1.64,7.59-1,1.85-2.64,1.46-6.49-.88-8.58h0Z"/>
    <path class="cls-20" d="M1879.02,417.55c4.73,0,8.57,5.33,8.57,11.92s-3.83,11.92-8.57,11.92-8.56-5.34-8.56-11.92,3.83-11.92,8.56-11.92h0Z"/>
    <path class="cls-20" d="M1959,417.55c-4.73,0-8.57,5.33-8.57,11.92s3.84,11.92,8.57,11.92,8.57-5.34,8.57-11.92-3.84-11.92-8.57-11.92h0Z"/>
    <path class="cls-1" d="M1902.95,493.55c9.07,1.25,23.71,1.63,33.46-.66,6.54-1.53-.91,18.71-18.85,18.56-11.81-.1-18.91-18.5-14.61-17.9h0Z"/>
    <path class="cls-15" d="M1914.15,449.87c.39,6.75-2,8.51-5.9,13.73-1.97,2.63-2.34,4.97-1.94,6.95.37,1.85,1.46,3.5,3.06,4.86,1.83,1.57,4.35,2.79,6.55,3.69,1.47.61,3.17-.1,3.78-1.58.61-1.48-.09-3.18-1.57-3.79-1.59-.65-3.44-1.47-4.81-2.59-.62-.51-1.18-1.03-1.32-1.73-.14-.7.21-1.44.9-2.36,4.93-6.6,7.53-8.99,7.04-17.53-.09-1.59-1.46-2.82-3.06-2.73-1.6.09-2.82,1.46-2.73,3.06h0Z"/>
    <path class="cls-23" d="M1712.32,741.27c-12.78,11.44-21.44,79.05-20.15,96.06,1.28,16.88-19.75,46.08-25.7,77.04-5.96,30.97-15.77,210.37-21.04,223.05-5.28,12.67-9.29,34.78-16.94,57.6-7.66,22.82-4.62,55.47,12.36,79.7,17.59,25.09,24.18,26.82,32.28,25.48,9.69-1.6,6.93-12.9,4.02-23.31-2.2-7.85-5.78-12.77-7.13-18.23-.88-3.59-2.02-8.48-4.42-16.45-2.27-7.51.7-17.71,4.3-30.43.8-2.84,1.79-5.99,3.46,1.67.58,2.64,1.57,6.04,1.21,7.89-1.84,9.36-1.4,17.75,1.03,19.31,7.8,4.97,11.66-4.18,14.82-18.99,1.31-6.12,2.63-12.24,1.7-18.23-1.06-6.9-1.11-15.1-2.16-22.01-4.72-30.85.5-51.97,18.7-108.58,19.57-60.84,33.95-117.87,32.36-147.53-1.68-31.26,58.15-157.94,44.73-175.11-9.73-12.44-60.65-20.37-73.43-8.93h0Z"/>
    <path class="cls-22" d="M1645.56,1113.91c-1.73,19,52.33,16.56,53.44,12.33,24.94-94.19,45.91-157.68,44.53-189.88-1.38-32.2,37.68-141.09,37.68-141.09l-75.64-31.99c2.12-3.92-7.64,37.48-18.6,78.29-6.82,25.36-13.14,43.63-22.4,70.65-11.63,33.95-11.68,121.34-19.01,201.69h0Z"/>
    <path class="cls-9" d="M1765.74,596.83c-15.2-4.5-57.57,15.36-60.08,43.24-2.51,27.86-16.49,67.72-10.44,87.96,5.67,18.99-15.33,46.32-7.45,56.74,9.48,12.56-11.37,31.42-2.34,37.54,34.5,23.37,90.23,18.52,95.85,9.28,14.07-23.12,5.89-136.59,15.53-164.51,9.65-27.91-15.88-65.74-31.07-70.25h0Z"/>
    <path class="cls-21" d="M2088,1605h-137.64c-5.97-54.39-14.13-339.42-26.75-335.03-6.07,2.11-28.95,261.23-39.87,335.03h-140.05c-.32-39.32,2.13-117.83.39-150.45-.91-17.24-7.5-181.35,6.63-310.2,7.25-66.04,19.94-122.82,41.63-145.82,0,0,72.09,18.43,127.5,27.62,5.64.94,11.1,1.78,16.29,2.49,3.71.51,7.28.96,10.68,1.33,11.22,1.23,23.77,2.89,36.69,4.64,2.82.38,5.66.77,8.51,1.15,37.8,5.13,76.95,10.3,94.1,6.88,14.49-2.9,11.98,43.22,13.4,47.71,3.52,11.08,5.45,33.21,6.24,62.41,3.44,127.29-14.81,388.72-17.75,452.24Z"/>
    <path class="cls-7" d="M1966.44,1289.15s32.15,98.38,66.16,144.31c7.45,10.07,15.04,17.64,22.37,21.26,7.81,3.86,15.39,3.45,22.42-2.8.72-.64.78-1.74.14-2.47-.64-.72-1.75-.78-2.47-.14-5.8,5.17-12.08,5.47-18.53,2.28-6.95-3.43-14.06-10.68-21.11-20.21-33.77-45.61-65.64-143.31-65.64-143.31-.3-.92-1.29-1.42-2.21-1.12-.91.3-1.42,1.29-1.11,2.21h0Z"/>
    <path class="cls-7" d="M1761.69,1452.13c9.64,5.58,28.91,16.72,56.35,4.91,13.9-5.98,25.96-17.01,36.13-29.62,15.08-18.68,26.03-40.8,32.88-54.63.42-.86.07-1.91-.79-2.34-.87-.42-1.92-.07-2.34.79-6.76,13.66-17.57,35.53-32.46,53.99-9.81,12.15-21.39,22.84-34.79,28.6-25.91,11.15-44.11.54-53.21-4.73-.83-.48-1.9-.19-2.39.64-.48.84-.2,1.91.64,2.4h0Z"/>
    <path class="cls-7" d="M1790.1,1206.35c.15,0,.45.03.67.07,1.34.29,3.23,1.07,5.61,2.23,16.88,8.28,55.61,35.27,77.12,50.25.79.55,1.89.36,2.44-.43.54-.79.35-1.88-.44-2.43-21.64-15.07-60.59-42.19-77.58-50.52-3.22-1.58-5.74-2.49-7.27-2.64-1.23-.12-2.08.19-2.62.64-2.18,1.84-3.1,3.88-3.12,5.98-.04,2.85,1.75,5.99,4.92,9.1,10.83,10.61,38.17,21.89,45.22,25.17.87.41,1.92.03,2.32-.85.4-.87.03-1.92-.85-2.32-6.88-3.21-33.66-14.13-44.24-24.51-1.45-1.41-2.58-2.81-3.25-4.17-.54-1.11-.78-2.17-.53-3.2.21-.83.75-1.61,1.59-2.37h0Z"/>
    <path class="cls-22" d="M1847.64,583.81c20.52,43.26,40.76,46.91,69.64,47.65,31.47.81,61.59-13.8,81.66-47.65.88-1.48,60.58,7.82,66.16,24.87,5.58,17.05-49.23,226.97-49.23,226.97,0,0-156.03,23.91-194.02-10.04-3.35-2.99-33.9-207.92-33.9-207.92l59.69-33.88h0Z"/>
    <path class="cls-9" d="M1854.11,575.05c7.51,10.79,41.44,131.83,62.66,126.97,12.15-2.79,77.44-123.32,81.75-126.97,4.31-3.64,57.83,14.55,78.1,21.15,27.38,8.91-9.47,84.28-5.19,116.87,12.61,96.36,9.42,135.18,12.16,199.33,2.74,64.21,31.9,166.46,34.46,231.7.75,19.09-176.44,31.51-235.85,26.21-39.59-3.53-141.44-2.83-138.02-43.17,1.75-20.77,28.76-192.09,23.23-221.76-13.85-74.45-13.23-123.12-.76-190.03,12.49-67.03-27.01-113.32-4.93-119.14,27.52-7.25,87.91-27.57,92.4-21.15h0Z"/>
    <path class="cls-7" d="M2032.86,974.8c-.29,1.37-.85,3.68-1.76,5.69-8.65,19.17-42.52,60.25-101.11,86.18-1.58.7-2.29,2.54-1.59,4.13.7,1.58,2.54,2.29,4.12,1.59,49.34-21.84,81.57-54.21,96.6-76.1,6.84-9.98,10.12-18,10.23-22.14.06-2.18-.64-3.71-1.6-4.68-1.11-1.11-2.75-1.76-5.06-1.28-3.26.67-9.23,4.68-17.54,13.61-16.56,17.82-42.84,29.85-71.63,38.28-43.84,12.83-93.49,17.18-124.52,19.92-1.72.15-2.99,1.67-2.84,3.39.15,1.71,1.67,2.98,3.38,2.84,31.34-2.76,81.47-7.18,125.74-20.15,29.96-8.77,57.21-21.47,74.45-40.02,4.83-5.19,8.66-8.59,11.53-10.44.52-.33,1.1-.62,1.59-.84h0Z"/>
    <path class="cls-7" d="M1822,600.09c13.34,47.68,50.72,131.01,69.42,172.66.42.95,1.58,1.38,2.56.97.99-.41,1.44-1.53,1.01-2.48-18.64-41.54-55.94-124.61-69.23-172.15-.28-1-1.34-1.58-2.38-1.31-1.03.28-1.65,1.31-1.37,2.31h0Z"/>
    <path class="cls-7" d="M2026.4,591.77c-25.18,57.41-86.75,160.99-118.1,200.32-.64.79-.44,1.92.42,2.52.87.6,2.08.44,2.72-.35,31.47-39.48,93.29-143.45,118.56-201.08.4-.92-.08-1.98-1.08-2.37-1-.39-2.13.04-2.52.95h0Z"/>
    <path class="cls-27" d="M1925.17,703.18c-.79-4.57-2.3-8.86-3.21-12.01-1.04-3.63-3.83-10.08-10.48-9.44-4.46.42-7.22,5.59-7.81,7.89-.93,3.67-1.13,8.25-.65,11.52,1,6.72,6.49,10.8,6.42,22.22-.02,4.63,7.17,15.12,10.33,17.19,20.03,13.13,30.85-1.66,27.16-11.51-3.45-9.19-19.15-10.82-21.75-25.86h0Z"/>
    <path class="cls-23" d="M2147.35,788.03c-.97-14.24-60.26-17.9-64.57-5.88-15.91,44.36,2,91.52-8.28,81.48-10.21-9.96-55.43-29.4-76.86-46.36-12.97-10.27-33.19-22.65-32.91-44.42.24-19.18-11.66-31.42-13.27-36.62-4.53-14.61-18.83-18.61-36.15-18.51-19.48.12-53.98,2.49-47.75,20.76,0,0-10.3,10.5,1.55,20.77,0,0-5.39,11.66,9.03,17.29,0,0-5.78,9.52,10.73,22.54,4.55,3.6,10.23,9.48,17.07,7.96,3.97-.88,6.9-5.12,7.79-7.81,1.71-5.2-3.4,12.85,5.08,21.65,15.45,16.02,25.76,10.79,31.63,15.77,12.57,10.66,20.83,20.32,31.07,30.81,30.49,31.24,49.41,72.69,96.97,90.59,28.19,10.62,48.99-14.87,57.56-43.63,14.5-48.63,13.44-94.9,11.31-126.39h0Z"/>
    <path class="cls-27" d="M1930.51,774.03s-4.99-2-12.87-3.33c-3.83-.64-8.35-1.1-13.26-1.11-3.4,0-6.99.21-10.68.76-4.48.67-10.37,2.78-11.97,3.51-.18.07-3.92,1.7-3.52,2.75.4,1.06,8.65-2.26,13.54-2.89,8.61-1.11,13.58-.89,21.48,0,4.67.54,16.65,2.33,16.65,2.33.56.17,1.16-.15,1.33-.71.18-.56-.14-1.16-.7-1.34h0Z"/>
    <path class="cls-27" d="M1930.43,753.82s-6.04-1.6-15.03-2.62c-4.5-.51-9.72-.84-15.25-.77-3.99.04-8.12.29-12.27.86-6.16.85-8,1.55-13.66,3.83-1.06.4-5.35,3.14-4.86,4.16.2.41,6.4-2.95,16.72-4.24,9.17-1.14,24.74-1.62,30.25-1.18,9.4.75,13.71,2.05,13.71,2.05.58.11,1.14-.27,1.25-.85.11-.58-.28-1.14-.85-1.25h0Z"/>
    <path class="cls-27" d="M1928.16,734.51s-6.02-1.65-14.97-2.71c-4.48-.53-9.68-.87-15.21-.84-3.97.03-8.1.26-12.23.82-6.14.83-7.71,1.24-13.37,3.53-1.05.41-5.05,2.19-4.76,3.29.16.61,11.08-3.02,16.74-3.69,11.32-1.35,20.73-1.18,28.73-.41,10.35,1,14.66,2.12,14.66,2.12.58.11,1.13-.27,1.25-.85.11-.57-.27-1.13-.84-1.25h0Z"/>
    <path class="cls-27" d="M1916.25,809.62c-3.44-.95-2.48-7.04-2.21-10.83,0,0-1.47,2.46-2.57,2.2-1.1-.26-1.78-1.35-1.52-2.45,0,0,.06-1.23-.98-2.97-.53-.9-1.34-1.9-2.54-2.94-1.66-1.52-1.23-3.29.53-3.98,3.7-1.45,9.07.27,11.48,2.04,3.1,2.28,4.06,4.88,5.2,7.62,3.36,8.1-2.19,12.74-7.38,11.31h0Z"/>
    <path class="cls-22" d="M1995.68,813.98c-2.25-.39-1.08,3.84-8.11,19.38-6.2,13.73-12.07,18.7-16.2,23.75-3.97,4.85,4.45,8.53,48.86,57.18,35.06,38.42,55.17,50.42,67.19,53.56,22.3,5.83,53.33-15.67,61.16-57.42,3.29-17.48,7.75-88.06,4.67-109.25-.92-6.29-75.06.51-75.06.51,0,0-2.27,53-1.68,58,.46,3.93-18.74-7.44-39.55-20.59-18.38-11.6-35.51-24.14-41.29-25.13h0Z"/>
    <path class="cls-9" d="M2059.19,834.76c13.3,30.25,101.25,4.8,105.74-13.73,3.56-14.71-7.38-48.65-7.98-85.28-.63-38.46-2.08-57.23-8.79-79.95-11.5-38.9-41.13-56.48-72.11-59.41-43.98-4.17-32.78,65.29-21.92,93.1,11.04,28.27-4.71,123.06,5.06,145.27h0Z"/>
    <path class="cls-7" d="M2052.84,711.97c-.48,15.69,1.33,28.66,2.93,41.49,2.31,18.63,4.13,36.97-2.9,63.44-.47,1.78.59,3.61,2.37,4.08,1.78.47,3.61-.59,4.08-2.37,7.31-27.52,5.48-46.59,3.08-65.97-1.56-12.52-3.34-25.17-2.88-40.46.06-1.84-1.39-3.38-3.22-3.44-1.84-.06-3.39,1.39-3.44,3.22h0Z"/>
    <path class="cls-7" d="M1760.63,705.79c.47,15.3-1.33,27.95-2.87,40.46-2.4,19.39-4.25,38.46,3.07,65.98.48,1.78,2.3,2.84,4.08,2.37,1.78-.48,2.85-2.3,2.37-4.08-7.03-26.46-5.2-44.8-2.89-63.44,1.58-12.83,3.4-25.8,2.92-41.49-.06-1.84-1.59-3.29-3.44-3.23-1.84.06-3.29,1.59-3.23,3.44h0Z"/>
    <path class="cls-3" d="M2010.8,684.2c1.12-6.43,1.85-11.75,3.04-16.24,1.05-3.95,2.44-7.2,5.03-9.92,5.95-6.24,18.04-7.43,28.33-5.78,19.39,3.1,26.23,11.5,26.64,17.74.34,5.33-2.09,20.44-2.09,20.44-.3,1.9.97,3.68,2.85,3.97,1.87.3,3.63-.99,3.93-2.88,0,0,2.53-16.25,2.16-21.99-.51-7.88-7.94-20.22-32.41-24.14-12.54-2.01-27.12.23-34.36,7.84-6.4,6.72-7.43,15.78-9.89,29.77-.33,1.89.91,3.68,2.77,4.02,1.87.33,3.66-.93,3.99-2.82h0Z"/>
    <path class="cls-3" d="M2052.04,649.39c1.38-10.42,3.54-27.08.33-42.71-2.23-10.89-7.03-21.27-16.21-28.93-1.46-1.22-3.63-1-4.84.47-1.21,1.48-1,3.67.46,4.89,9.95,8.31,13.77,20.38,14.96,32.29,1.24,12.48-.41,24.85-1.51,33.1-.25,1.9,1.07,3.64,2.95,3.9,1.88.25,3.61-1.1,3.86-2.99h0Z"/>
    <path class="cls-32" d="M2005.31,683.93l-10.62,81.74s-4.15,27.3,27.47,35.43c1.15.29,2.29-.21,2.56-1.14.26-.92-.45-1.91-1.6-2.2-27.97-7.18-24.19-31.4-24.19-31.4,0,0,0-.02,0-.03l10.61-81.74c.13-.95-.73-1.86-1.9-2.04-1.17-.18-2.22.44-2.34,1.39h0Z"/>
    <path class="cls-32" d="M2023.43,795.39c5.65.63,8.7,2.43,7.68,6.45-.93,3.68-5.29,4.48-10.09,2.51-4.47-1.82-7.76-4.61-6.86-7.33.89-2.72,4.09-2.21,9.27-1.63h0Z"/>
    <path class="cls-32" d="M2077.25,692.33l-12.02,81.55s-3.43,27.41-36.52,26.54c-1.2-.04-2.17-.84-2.18-1.8,0-.96.97-1.71,2.16-1.69,29.26.77,32.22-23.55,32.22-23.55v-.04l12.02-81.54c.14-.95,1.23-1.6,2.41-1.46,1.19.15,2.04,1.03,1.91,1.98h0Z"/>
    <path class="cls-32" d="M2029.03,794.57c-5.68-.94-9.17-.05-9.27,4.1-.1,3.8,3.94,5.76,9.16,5.2,4.86-.53,8.83-2.31,8.71-5.18-.13-2.86-3.38-3.24-8.59-4.12h0Z"/>
    <path class="cls-3" d="M1829.38,572.26c-15.1,15.36-31.91,35.71-33.17,85.86-1.3,51.66,2.13,113.64,2.13,113.64.1,1.88,1.69,3.33,3.56,3.22,1.86-.1,3.29-1.71,3.19-3.59,0,0-3.42-61.68-2.13-113.09,1.2-47.4,16.95-66.71,31.23-81.24,1.31-1.33,1.3-3.49-.02-4.82-1.33-1.34-3.46-1.33-4.78,0h0Z"/>
    <path class="cls-17" d="M1803.01,782.65c13.28-.21,24.25,10.52,24.48,23.95.23,13.44-10.36,24.51-23.65,24.71-13.28.21-24.25-10.52-24.48-23.95-.24-13.43,10.36-24.51,23.64-24.71h0Z"/>
    <path class="cls-25" d="M1803.19,793.17c7.54-.11,13.77,5.98,13.9,13.6.13,7.63-5.89,13.91-13.42,14.03-7.53.11-13.76-5.98-13.89-13.6-.14-7.63,5.88-13.91,13.41-14.03h0Z"/>
    <path class="cls-2" d="M1808.42,785.63l-.67-13.09c-.15-2.86-3-5.05-6.37-4.87-3.36.17-5.98,2.63-5.83,5.49l.67,13.1c.15,2.86,3,5.04,6.36,4.87,3.37-.18,5.99-2.63,5.84-5.5h0Z"/>
  </g>
  <g>
    <path class="cls-31" d="M1663.51,1605h-170.9c-7.48-65.93-27.23-197.22-38.92-196.68-11.29.52-30.71,140.38-33.35,196.68h-185.85c.01-.16.01-.33.01-.5.59-32.78,5.48-100.85,11.21-170.75,4.01-48.84,8.44-98.57,12.11-137.78,2.74-29.23,5.06-52.6,6.47-65.4,6-54.53,13.3-131.83,13.3-131.83h.69s21.06.33,21.06.33l56.79.87,11.74.18,97.14,1.48,5.13.08,8.44.13,139.7-.6h1.3s.39,23.67,1.15,43.33c.06,1.75.13,3.46.21,5.13.26,5.94.55,11.23.88,14.99,1.66,18.8,1.87,28.02,4.65,37.7v.02c1.62,5.63,4.12,11.4,8.26,19.32,7.21,13.78,9.11,36.91,9.93,58.32.64,16.46.63,31.9,1.93,41.31,7.14,52.07,10.54,93.89,11.6,123.71.19,5.55.31,10.68.35,15.39.68,73.24,4.61,114.8,4.97,144.57Z"/>
    <path class="cls-34" d="M1275.87,1589s12.77,16.07,32.9,15.71c8.56-.15,18.48-3.25,29.3-11.94,34.95-28.06,61.09-61.99,61.09-61.99.59-.76.45-1.87-.31-2.46-.76-.59-1.87-.44-2.45.32,0,0-25.89,33.62-60.52,61.4-10.04,8.07-19.22,11.04-27.17,11.17-18.41.32-30.08-14.4-30.08-14.4-.61-.76-1.7-.88-2.46-.29-.76.6-.88,1.7-.29,2.46h0Z"/>
    <path class="cls-34" d="M1519.01,1472.79c26.86,23.85,48.86,37.7,66.49,43.56,18.22,6.05,31.95,3.66,41.79-4.9.73-.64.81-1.74.17-2.47-.64-.73-1.74-.8-2.47-.18-9.04,7.87-21.67,9.78-38.39,4.23-17.33-5.76-38.88-19.44-65.27-42.86-.73-.64-1.83-.57-2.47.15-.64.73-.58,1.83.15,2.47h0Z"/>
    <path class="cls-8" d="M1405.42,474.99c-.67,23.74,5.16,83.31-.02,97.4-8.22,22.35-88.25,38.6-96.83,45.57-8.58,6.98,57.64,81.44,153.21,83.11,119.07,2.07,155.01-82.18,155.82-88.62,1.11-8.84-74.84-18.97-91.75-41.78-16.9-22.83-8.45-65.57-9.68-95.15-1.05-25.49-110.16-21.45-110.76-.53h0Z"/>
    <path class="cls-15" d="M1408.4,508.61c.08,17.77,23.2,57.75,54.31,57.19,38.31-.68,47.66-39.19,50.49-52.01,3.08-13.98,1.96-26.23,1.46-38.16-1.06-25.49-108.65-21.56-109.25-.64-.22,8.02,2.93,20.67,2.98,33.61h0Z"/>
    <path class="cls-8" d="M1383,276.89c-31.36,28.56-10.47,104.06-12.26,113.08-.71,3.54-17.87-11.65-22.68,10.64-5.33,24.71,13.02,57.27,26.6,44.66,3.19-2.96,21.84,93.76,84.99,94.68,66.44.98,81.94-82.88,85.59-97.93,0,0,11.93,7.41,21.16-6.86,8.77-13.55,16.28-51.34-17.94-44.43-6.67,1.35,21.62-80.37,2.19-107.66-22.18-31.16-111.88-56.98-167.66-6.18h0Z"/>
    <path class="cls-30" d="M1437.42,480.77c.22-1.76,12.24-.14,24.22-.3,12.06-.17,23.78-1.44,23.6-.06-.56,4.38-4.85,13.3-24.52,13.4-13.97.07-23.86-8.46-23.3-13.04h0Z"/>
    <path class="cls-33" d="M1453.84,405.01c-.41,8.22-3.58,22.14-5.49,25.96-1.95,3.9-4.09,8.46-4.74,12.59-.55,3.45-.09,6.63,1.71,9.22,1.87,2.66,5.26,4.86,11.22,5.68,1.95.27,3.77-1.02,4.04-2.86.29-1.85-1.07-3.56-3.02-3.83-3.24-.44-5.28-1.28-6.29-2.73-.95-1.36-.87-3.1-.53-4.93.64-3.4,2.46-7.07,4.05-10.25,2.1-4.18,5.71-19.48,6.17-28.53.09-1.87-1.43-3.45-3.39-3.55-1.97-.08-3.65,1.35-3.74,3.22h0Z"/>
    <path class="cls-14" d="M1416.37,390.01c4.86,0,8.8,5.52,8.8,12.32s-3.94,12.32-8.8,12.32-8.8-5.52-8.8-12.32,3.94-12.32,8.8-12.32h0Z"/>
    <path class="cls-14" d="M1505.25,391.38c4.85,0,8.8,5.53,8.8,12.33s-3.94,12.32-8.8,12.32-8.8-5.53-8.8-12.32,3.94-12.33,8.8-12.33h0Z"/>
    <path class="cls-5" d="M1397.11,378.8c5-1.06,10.68-2.6,18.19-2.74,5.14-.09,10.62.78,17.89,1.43,3.47.31,6.3,1,7.67-3.81.92-3.19-1.57-5.36-4.78-6.66-18.81-7.6-36.8-2.95-45.33,2.74-2.86,1.91-4.09,6.1-1.53,8.34,1.39,1.23,3.52,1.63,7.89.7h0Z"/>
    <path class="cls-5" d="M1534.02,367.81c-8.6-7.73-33.77-8.7-45.8-1.69-4.23,2.46-6.22,5.49-5.13,8.62,1.1,3.14,4.68,4.34,9.54,3,13.3-3.67,28.48-2,35.53.56,3.25,1.18,6.67.66,8.36-2.22,1.62-2.76.37-6.39-2.51-8.27h0Z"/>
    <path class="cls-15" d="M1355.86,405.76c.29-3.08,1.64-4.92,3.51-5.11,1.06-.12,2.2.33,3.25,1.25,1.93,1.69,3.46,4.86,3.89,9.54.03.29-.18.65-.41,1.1-.56,1.09-1.44,2.44-2.21,4-1.07,2.15-1.92,4.66-1.66,7.43.25,2.76,1.58,5.82,5.02,9.02.57.53,1.5.52,2.07-.02.57-.55.56-1.44-.02-1.97-2.61-2.42-3.8-4.71-4.1-6.84-.47-3.22,1.03-6.02,2.28-8.2.62-1.08,1.19-2.03,1.54-2.81.32-.75.46-1.41.41-1.95-.73-7.94-4.5-12.13-7.98-13.11-3.87-1.09-7.96,1.29-8.52,7.42-.07.76.53,1.44,1.33,1.5.81.07,1.52-.5,1.59-1.26h0Z"/>
    <path class="cls-15" d="M1562.57,405.45c-.29-3.09-1.64-4.92-3.51-5.12-1.07-.12-2.2.33-3.25,1.25-1.93,1.69-3.46,4.87-3.89,9.55-.03.29.19.64.41,1.09.56,1.1,1.45,2.44,2.22,4,1.07,2.15,1.91,4.66,1.66,7.43-.25,2.77-1.58,5.82-5.02,9.02-.58.53-1.51.52-2.07-.02-.57-.55-.56-1.43.02-1.97,2.61-2.42,3.8-4.71,4.1-6.83.47-3.22-1.04-6.02-2.28-8.2-.62-1.08-1.2-2.02-1.54-2.81-.33-.75-.46-1.4-.41-1.94.72-7.94,4.5-12.14,7.98-13.12,3.86-1.09,7.95,1.29,8.52,7.42.07.76-.53,1.44-1.34,1.51-.8.06-1.52-.5-1.58-1.26h0Z"/>
    <path class="cls-26" d="M1377.71,394.88c2.92-.83-3.55-37.51,7.6-46.55,9-7.3,4.55-29.95,11.59-33.43,19.33-9.54,91.02,8.94,121.97-1.66,22.48-7.7,8.78,34.59,21.28,45.12,0,0,1.57,25.61,1.07,31.27-.37,4.25,5.27,9.85,13.18-.32,7.92-10.17,39.97-105.98,5.16-116.15-6.82-2-2.45-69.91-128.52-39.66-99.26,23.83-108.7,130.08-79.31,121.05,0,0,7.15,26.39,8.95,33.57.08.33,1.75.15,7.53,2.07,4.42,1.46,7.19,5.33,9.5,4.68h0Z"/>
    <path class="cls-5" d="M1527.12,301.58c6.1-10.34,14.82-18.07,25.73-20.62,1.57-.37,2.55-1.95,2.18-3.52-.37-1.58-1.94-2.55-3.52-2.18-12.43,2.91-22.49,11.58-29.43,23.35-.82,1.39-.36,3.19,1.03,4.01,1.39.82,3.19.36,4.01-1.03h0Z"/>
    <path class="cls-5" d="M1403.4,280.99s6.34,18.24,31.55,25.88c1.55.47,3.18-.41,3.65-1.95.47-1.54-.41-3.18-1.95-3.65-21.96-6.67-27.73-22.25-27.73-22.25-.54-1.52-2.23-2.32-3.75-1.77-1.52.54-2.31,2.22-1.77,3.74h0Z"/>
    <path class="cls-5" d="M1358.82,346.41s13.08-1.24,22.8-17.28c.84-1.38.4-3.19-.99-4.03-1.38-.84-3.19-.4-4.03.99-7.97,13.14-18.43,14.5-18.43,14.5-1.6.18-2.76,1.62-2.59,3.23.17,1.6,1.62,2.76,3.23,2.59h0Z"/>
    <path class="cls-5" d="M1449.49,278.1s17.35,24.16,35.46,32.26c1.48.65,3.22,0,3.87-1.48.66-1.47,0-3.21-1.47-3.87-16.97-7.57-33.09-30.31-33.09-30.31-.94-1.32-2.77-1.62-4.09-.68-1.32.94-1.62,2.76-.68,4.08h0Z"/>
    <path class="cls-5" d="M1548.61,300.78c11.52,10.09,8.08,24.54,6.34,31.1-.41,1.57.52,3.17,2.08,3.58,1.56.41,3.17-.52,3.58-2.08,2.07-7.83,5.61-24.96-8.14-37.01-1.22-1.06-3.07-.94-4.13.28-1.07,1.22-.95,3.07.27,4.14h0Z"/>
    <path class="cls-13" d="M1401.47,566.31c2.94-1.93,3.55.56,4.83,2.97,7.87,14.73,30.05,100.17,56.41,100.43,31.56.32,55.77-102.39,58.54-106.35,1.57-2.23,18.2,8.94,31.96,11.66,18.9,3.72,62.32,20.61,70.51,40.22,13.47,32.29,33.69,143.44,23.32,197.01-10.18,52.62-33.05,172.56-29.44,269.37,2.52,67.74,1.42,86.97,0,107.99-4.41,65.52-308.01,62.58-320.7,26.28-7.43-21.27-2.77-35.81-4.05-60.71-2.16-42.29,18.49-80.56,14.96-140.74-4.15-70.95-15.83-152.97-17.35-194.44-2.73-73.7-21.21-202.69,16.23-218.28,40.44-16.83,91.89-33.51,94.78-35.4h0Z"/>
    <path class="cls-4" d="M1386.14,560.2s-133.06,47.34-141.48,59.41c-8.43,12.08,26.84,267.56,25.68,283.7-.4,5.52,7.05,73.14-15.96,149.11-5.34,17.62,6.36,52.18,5.71,72.3-1.1,33.96-17.06,81.77-19.22,115.47-7.69,119.79-9.99,143.57-11.99,179.31-1.69,30.28,204.99,39.6,208.49,22.11,3.05-15.18,12.65-130.68,19.87-132.23,7.22-1.55,19.81,96.26,23.48,122.95,3.4,24.76,184.72,25.16,197.5,3.4,12.78-21.76-17.35-209.05-19.82-245.37-1.67-24.39-5.89-52.54-8.26-94.16-5.35-94.34,10-159.05,9.7-170.79-.58-22.58,37.38-273.6,40.17-286.42,2.78-12.8-160.97-75.42-160.97-75.42,0,0-13.59,61.31-22.74,91.31-11.95,39.14-48.91,143.51-48.91,143.51-36.5-69.34-62.1-151.99-81.23-238.21h0Z"/>
    <path class="cls-32" d="M1465.54,835.78l-.74,368.53c0,1.42,1.15,2.57,2.56,2.57s2.57-1.14,2.57-2.56l.74-368.53c0-1.41-1.15-2.56-2.56-2.57-1.42,0-2.57,1.15-2.57,2.56h0Z"/>
    <path class="cls-32" d="M1513.34,1179.49l-.74-28.28c15.72.05,96.67.21,109.73-1.7,1.4-.2,2.37-1.5,2.16-2.9-.2-1.41-1.51-2.38-2.91-2.17-14.37,2.11-111.61,1.64-111.61,1.64-.69,0-1.35.28-1.84.77-.49.5-.75,1.16-.73,1.86l.81,30.91c.04,1.42,1.22,2.53,2.63,2.5,1.42-.04,2.53-1.22,2.5-2.63h0Z"/>
    <path class="cls-32" d="M1538.71,796.88s42.91,5.36,73.66,4.83c8.05-.15,15.28-.69,20.74-1.82,4.02-.83,7.14-2.03,9.11-3.5,1.12-.86,1.35-2.46.51-3.59-.86-1.13-2.46-1.36-3.59-.51-1.52,1.13-3.97,1.93-7.07,2.58-5.2,1.08-12.11,1.58-19.8,1.71-30.43.53-72.93-4.79-72.93-4.79-1.41-.17-2.69.82-2.86,2.23-.18,1.4.82,2.68,2.23,2.86h0Z"/>
    <path class="cls-32" d="M1355.57,1176.99h-60.13l.64-27.46h120.8l-1.02,29.93c-.06,1.42,1.06,2.61,2.47,2.65,1.42.05,2.61-1.06,2.65-2.48l1.11-32.58c.03-.69-.23-1.36-.72-1.87-.48-.5-1.14-.78-1.84-.78h-125.96c-1.39,0-2.53,1.11-2.56,2.51l-.76,32.58c-.02.69.25,1.36.73,1.85.48.5,1.14.77,1.83.77h62.76c1.41,0,2.56-1.14,2.56-2.56s-1.15-2.56-2.56-2.56h0Z"/>
    <path class="cls-8" d="M1427.64,928.45c29.18-3.14,55.38-6.33,81.83-13.93,15.28-4.39,26.78-4.73,40.29-38.07,2.27-5.58,12.45-32.15,16.39-39.94,7.13-14.09,11.21-22.61,25.59-28.25,24.72-9.69,44.25-14.83,57.54-17.78,11.07-2.46,13.63,4.29,10.29,8.09-5.83,6.63-37.93,15-42.64,16.34-3.9,1.11,8.6,2.25,21.43,2.53,15.79.35,33.6-2.39,37.2,1.22,1.65,1.67,1.36,7.39-4.27,8.24-9.51,1.44-29.99,1.48-35,2.61-14.19,3.19,18.01,4.53,38.31,6.16,9.95.8,5.63,8.88.84,9.68-5.42.9-23.94,3.33-35.89,1.68-11.94-1.66,15.71,5.31,21.53,5.65,19.68,1.15,18.06,11.54,1.07,11.5-24.24-.06-35.86,1.64-39.18,3.75-3.31,2.11-24.29,56.13-43.02,55.59-8.78-.26-26.83,34.37-62.96,58.81-28.32,19.15-35.61,22.76-59.66,32.95-37.91,16.06-58.72,8.18-72.59-4.14-13.86-12.32-17.75-56.02-10.6-69.8,7.15-13.78,35.58-10.95,53.52-12.89h0Z"/>
    <path class="cls-8" d="M1504.52,874.71s-84.31-.8-101.5-3.07c-17.19-2.26-58.99-7.68-79.89,7.25-13.27,9.49-21.46,11.55-39.23,31.98-8.81,10.12-7.92,32.54-17.23,41.93-10.27,10.37-3.74,31.79,16.14,29.7,31.82-3.35,50.35-8.43,72.37-29.37,22.03-20.94,14.09-29.37,29.01-28.48,31.8,1.89,107.53,14.19,118.05,17.69,10.51,3.5,2.27-67.63,2.27-67.63h0Z"/>
    <path class="cls-4" d="M1344.32,892.98c8.13,8.86,33.88,4.65,35.11,14.14,1.23,9.5-.5,10.72,15.76,14.07,16.26,3.35,45.97-4.87,56.33.27,10.34,5.14-3.75,6.34-1.15,52.52,2.59,46.18,9.67,39.02,11.72,42.17,4.88,7.51-20.62,20.08-42.29,19.04-15.31-.73-37.52-12.81-49.18-10.89-56.01,9.23-108.44-18.4-126.56-24.97-30.31-11.02-37.01-22.02-35.62-63.59.44-13.31,3.05-24.39-4.1-49.85-4.49-15.98-.58-38.96-1.42-46.86-3.95-37.33-14.07-78.74-14.95-95.49-4.03-76.09,31.11-114.79,54.17-124.94,12.08-5.32,62.5,16.46,72.11,89.21,9.61,72.74-5.89,139.93,16.4,146.14,22.51,6.26,5.54,30.17,13.67,39.03h0Z"/>
    <path class="cls-4" d="M1446.08,872.09c1.52,8.35,2.38,27.96.55,45.45-2.62,25.05-3.24,37.08,3.23,42.38,3.38,2.76,16.6,10.1,57.73,14.95,63.58,7.52,101.69,13.5,115,14.87,37.23,3.81,69.78-3.3,81.62-7.1,11.86-3.8,22.22-6.33,27.3-27.07,5.08-20.74,10.9-45.29,1.45-86.76-9.46-41.47-5.21-53.27-7.14-78.55-1.59-20.94-6.1-33.05-6.85-55.74-.79-23.89,6.49-57.02-13.17-89.65-17.14-28.46-37.93-31.63-53.4-27.03-9.98,2.98-22.88,57.18-34.03,91.13-7.48,22.78-21.34,69.72-9.98,75.78,11.36,6.05,3.31,50.88,11.41,57.65,8.1,6.77-4.54-.13-3.82,12.22.77,13.44-9.52,14.18-9.52,14.18,0,0-75.92-2.14-86.77,0-10.85,2.14-33.95,3.92-43.41,0-6.53-2.72-31.97-6.57-30.19,3.29h0Z"/>
    <path class="cls-8" d="M1610.32,872.61c-4.43.06-16.63-3.59-31.95-3.8-25.21-.35-26.33.46-23.9-4.59,3.45-7.2,7.74-19.92,11.67-27.71,7.13-14.09,11.21-22.61,25.59-28.25,10.81-4.24,22.3-10.86,31.04-13.55,11.24-3.47,18.9-3.26,26.5-4.23,11.96-1.53,14.06,5.3,10.71,9.1-3.23,3.68-14.42,4.52-26.66,7.72-8.35,2.18-14.31,7.01-16.41,7.61-3.9,1.11,12.87-1.14,25.69-.84,13.58.32,28.04,2.24,32.71,4.26,2.77,1.2,2.74,8.84-3.78,9.7-4.85.63-13.6-.17-20.62.22-6.8.38-12.15.92-14.66,1.26-13.59,1.84,19.55,1.11,38.31,6.16,9.64,2.6,5.63,8.88.84,9.68-3.83.64-12.91-.87-22.89-.68-4.14.07-7.75-.2-14.17.84-11.9,1.94,17.11,5.88,22.92,6.22,19.69,1.15,17.84,12.49.85,12.44-24.24-.06-35.86,1.64-39.18,3.75-.83.53-6.62,4.62-12.63,4.69h0Z"/>
    <path class="cls-32" d="M1311.79,732.48c4.45,14.19,5.62,31.8,6.95,46.67.92,10.29,1.93,19.31,4.02,25.17,2.47,6.95,3.04,10.97,3.58,14.05.62,3.56,1.23,6.02,3.91,9.69,2.03,2.76,5.09,4.83,7.59,6.95,1.3,1.11,2.47,2.19,2.79,3.65.32,1.44-.3,3.09-1.94,5.36-3.5,4.85-4.1,9-3.69,12.21.67,5.13,4.08,8.03,4.08,8.03,1.07.93,2.69.81,3.62-.26.93-1.06.82-2.68-.25-3.61,0,0-1.96-1.77-2.37-4.84-.29-2.26.29-5.13,2.76-8.54,2.31-3.21,3.07-5.82,2.98-8-.09-2.38-1.15-4.37-2.82-6.15-2.39-2.58-6.29-4.66-8.61-7.84-2.09-2.85-2.51-4.77-3-7.54-.57-3.25-1.18-7.52-3.8-14.88-1.98-5.57-2.87-14.15-3.75-23.91-1.35-15.22-2.61-33.22-7.16-47.74-.42-1.35-1.86-2.11-3.21-1.69-1.35.42-2.1,1.87-1.68,3.21h0Z"/>
    <path class="cls-32" d="M1331.23,896.99c-10.08,5.03-23.29,14.12-34.11,23.38-9.86,8.43-17.68,17.05-19.73,22.78-.47,1.34.22,2.8,1.56,3.28,1.33.48,2.8-.22,3.28-1.55,1.87-5.23,9.23-12.91,18.23-20.61,13.8-11.81,31.58-23.51,40.94-25.85,2.2-.55,2.59-2.09,2.61-2.84,0-.57-.14-1.2-.62-1.79-.31-.41-1.17-1.09-2.75-1.46-6.24-1.46-32.27-1.41-62.31,19.52-1.16.81-1.45,2.4-.64,3.57.81,1.16,2.4,1.45,3.56.64,20.61-14.36,39.15-18.46,49.97-19.08h0Z"/>
    <path class="cls-32" d="M1372.53,911.61c-11.69,5.05-34.99,15.27-45.89,30.94-.8,1.16-.52,2.76.64,3.57,1.16.8,2.76.52,3.57-.64,10.33-14.88,32.61-24.36,43.71-29.16,1.3-.56,1.9-2.07,1.34-3.37-.56-1.3-2.07-1.9-3.37-1.34h0Z"/>
    <path class="cls-32" d="M1271,1013.77s92.68,20.39,123.11,24.02c21.68,2.6,45.67.04,59.12-4.55,3.71-1.26,6.66-2.7,8.64-4.2,1.68-1.27,2.74-2.66,3.23-4.02.48-1.34-.21-2.8-1.55-3.28-1.34-.48-2.8.22-3.28,1.55-.29.8-1.15,1.48-2.31,2.22-1.61,1.03-3.78,1.99-6.38,2.87-12.94,4.41-36.01,6.81-56.86,4.32-30.31-3.63-122.62-23.95-122.62-23.95-1.38-.3-2.74.57-3.05,1.95-.31,1.38.56,2.75,1.95,3.06h0Z"/>
    <path class="cls-32" d="M1526.88,978.35c42.43,8.84,108.44,16.46,115.14,16.46,1.41,0,2.56-1.14,2.56-2.56s-1.14-2.56-2.56-2.56c-6.64,0-72.05-7.6-114.1-16.36-1.38-.29-2.74.6-3.03,1.98-.29,1.39.6,2.75,1.99,3.04h0Z"/>
    <path class="cls-32" d="M1630.01,878.06c11.24,1.35,29.39,5.5,42.91,12.59,1.25.66,2.8.17,3.46-1.08.65-1.25.18-2.8-1.08-3.46-13.8-7.24-32.22-11.56-43.97-13.05-5.35-.68-9.4-.75-11.2-.35-1.93.43-2.66,1.6-2.86,2.41-.18.71-.14,1.52.42,2.39.34.51,1.11,1.24,2.55,1.95,13.03,6.38,36.21,10.43,58.45,36.17.92,1.08,2.54,1.2,3.62.27,1.07-.92,1.19-2.54.26-3.62-19.08-22.09-38.75-28.79-52.55-34.22h0Z"/>
    <path class="cls-32" d="M1278.98,1051.7s-1.32,7.98,9.97,18.54c10.22,9.56,31.48,21.74,75.88,31.76,1.38.31,2.75-.55,3.07-1.93.31-1.38-.55-2.75-1.93-3.07-42.95-9.7-63.62-21.26-73.5-30.51-8.82-8.25-8.38-14.15-8.38-14.15.17-1.41-.82-2.69-2.23-2.86-1.4-.17-2.69.82-2.86,2.22h0Z"/>
    <path class="cls-3" d="M1552.9,673.77c-.42-6.9-1-12.55-.88-17.46.1-4.32.75-8,2.76-11.44,4.62-7.9,16.9-12.15,28-13.02,20.92-1.64,30.13,5.27,32.1,11.59,1.69,5.4,2.91,21.53,2.91,21.53.16,2.02,1.93,3.53,3.94,3.37,2.02-.17,3.53-1.93,3.37-3.95,0,0-1.41-17.34-3.21-23.13-2.5-7.98-13.29-18.8-39.68-16.72-13.53,1.07-28.13,7-33.77,16.63-4.97,8.49-3.8,18.07-2.87,33.06.12,2.02,1.86,3.56,3.89,3.44,2.02-.13,3.56-1.87,3.44-3.89h0Z"/>
    <path class="cls-3" d="M1587.11,627.71c-1.16-11.04-3.07-28.71-10.29-43.98-5.02-10.63-12.59-20.09-24.05-25.67-1.81-.89-4.02-.13-4.9,1.69-.89,1.82-.13,4.03,1.69,4.91,12.42,6.05,19.39,17.5,23.58,29.44,4.4,12.52,5.76,25.64,6.67,34.38.21,2.02,2.02,3.48,4.03,3.27,2.02-.21,3.48-2.02,3.27-4.03h0Z"/>
    <path class="cls-32" d="M1547.13,674.86l9.29,86.62s2.48,29.1,37.37,29.55c1.26.02,2.32-.79,2.37-1.81.05-1.01-.95-1.85-2.21-1.86-30.85-.41-32.95-26.22-32.95-26.22,0-.02,0-.03,0-.04l-9.29-86.63c-.11-1.01-1.23-1.74-2.49-1.64-1.25.11-2.19,1.01-2.08,2.03h0Z"/>
    <path class="cls-32" d="M1593.69,784.85c6.02-.76,9.65.33,9.6,4.72-.06,4.01-4.39,5.91-9.86,5.1-5.1-.76-9.2-2.81-8.95-5.82.25-3.02,3.69-3.3,9.22-4h0Z"/>
    <path class="cls-32" d="M1623.99,665.54l7.79,86.78s3.26,29.03-31.36,36.39c-1.25.27-2.47-.31-2.72-1.3-.24-.99.58-2.01,1.83-2.27,30.61-6.51,27.62-32.25,27.62-32.25v-.04l-7.79-86.79c-.09-1,.88-1.94,2.15-2.09,1.27-.15,2.39.55,2.48,1.57h0Z"/>
    <path class="cls-32" d="M1599.31,782.62c-6.14.44-9.53,2.24-8.61,6.52.84,3.92,5.53,4.93,10.81,3.05,4.92-1.75,8.6-4.58,7.76-7.49-.85-2.9-4.32-2.49-9.96-2.08h0Z"/>
    <path class="cls-3" d="M1373.41,560.48c-17.14,15.21-36.45,35.57-41.17,88.39-4.86,54.41-5.38,120.03-5.38,120.03-.02,1.99,1.58,3.62,3.57,3.64,1.99,0,3.62-1.59,3.64-3.58,0,0,.51-65.3,5.35-119.44,4.46-49.94,22.56-69.26,38.77-83.64,1.49-1.33,1.62-3.61.3-5.09-1.32-1.49-3.6-1.63-5.09-.3h0Z"/>
    <path class="cls-17" d="M1331.11,780.69c14.19.66,25.17,12.71,24.51,26.9-.65,14.19-12.71,25.17-26.9,24.51-14.18-.65-25.17-12.71-24.51-26.9.66-14.19,12.71-25.17,26.9-24.51h0Z"/>
    <path class="cls-25" d="M1330.59,791.81c8.05.38,14.28,7.21,13.91,15.26-.38,8.05-7.21,14.28-15.26,13.91-8.04-.38-14.28-7.21-13.91-15.26.38-8.05,7.21-14.28,15.26-13.91h0Z"/>
    <path class="cls-2" d="M1336.67,784.21l.17-13.86c.04-3.02-2.86-5.52-6.47-5.56-3.61-.04-6.56,2.39-6.6,5.42l-.17,13.85c-.04,3.03,2.86,5.52,6.47,5.56,3.61.04,6.57-2.39,6.59-5.41h0Z"/>
    <path class="cls-4" d="M1390.94,547.44s2.68,9.48,10.25,36.83c17.17,62.02,52.14,191.42,64.73,191.64,8.98.16,38.45-92.12,57.29-167.25,10.08-40.18,13.5-58.78,14.71-59.03,3.12-.64,9.52-1.22,19.21,11.82,17.3,23.31,38.86,62.56,36.73,72.61-.88,4.15-42.97,10.36-50.3,16.97-5.17,4.65,30.67,39.97,30.67,39.97,0,0-37.58,30.84-61.99,60.92-16.33,20.12-46.99,61.91-46.99,61.91,0,0-39.08-49.65-62.4-77.44-18.03-21.49-45.78-44.19-45.78-44.19l30.68-39.91s-35.36-21.79-45.6-19.92c-6.48,1.18,8.66-36.71,24.87-65.55,9.4-16.72,20.29-18,23.92-19.36h0Z"/>
    <path class="cls-32" d="M1468,811.64s-39.13-49.7-62.46-77.52c-14.86-17.71-36.26-36.24-43.63-42.46l28.62-37.23c.65-.85.88-1.94.64-2.98-.26-1.03-.97-1.9-1.93-2.35,0,0-33.84-15.75-45.9-20.05-1.82-.64-3.84.3-4.49,2.14-.65,1.82.3,3.83,2.13,4.49,9.38,3.34,32.1,13.72,41.31,17.96l-28,36.42c-1.16,1.51-.91,3.66.56,4.86,0,0,27.47,22.46,45.31,43.73,23.29,27.75,62.33,77.36,62.33,77.36,1.2,1.52,3.41,1.79,4.93.58,1.53-1.2,1.79-3.41.59-4.93h0Z"/>
    <path class="cls-32" d="M1596.63,624.76c-.74-3.09-1.89-6.47-3.35-9.99-2.13-5.13-4.9-10.6-7.82-15.85-2.45-4.4-5.01-8.63-7.39-12.38-1.16-1.82-2.27-3.53-3.31-5.08-1.4-2.08-2.67-3.89-3.73-5.33,0,0,0-.01-.01-.01-1.07-1.48-1.93-2.57-2.5-3.19-1.74-1.91-3.62-1.74-4.39-1.53-.12.03-.22.06-.28.09-.59.25-1.1.63-1.49,1.19-.13.17-.23.36-.33.56-.09.18-.18.42-.25.7-.12.43-.17.99-.02,1.67.14.72.5,1.34.99,1.81h.01c.27.28.58.49.92.65,1.38,1.65,3.98,5.27,7.05,9.98,1.55,2.38,3.21,5.03,4.9,7.85,3.48,5.82,7.05,12.34,9.84,18.54h.01c.46,1.02.9,2.03,1.31,3.03.99,2.38,1.86,4.68,2.52,6.81.85,2.78,1.35,5.28,1.29,7.36,0,.25-.02.49-.04.72-1.22.56-4.68,2.13-7.96,3.21-7.63,2.5-18.16,5.38-27,8.07h0c-3.55,1.07-6.82,2.11-9.53,3.09-2.77.99-4.94,1.91-6.21,2.72-1.78,1.13-2.76,3.09-2,5.98.39,1.47,1.41,3.46,2.97,5.72,1.15,1.65,2.61,3.5,4.27,5.46,2.28,2.68,4.93,5.56,7.67,8.42.58.61,1.17,1.22,1.76,1.82.82.84,1.63,1.66,2.44,2.48,4.81,4.82,9.4,9.16,12.18,11.76-2.84,2.85-7.83,7.88-14.12,14.33-1.32,1.36-2.71,2.79-4.15,4.27-21.24,21.95-53.34,56.17-69.73,79.08-.82,1.16-.85,2.66-.17,3.82.24.41.57.78.98,1.08,1.59,1.14,3.78.77,4.91-.81,15.21-21.26,44.08-52.36,64.99-74.08,1.42-1.48,2.8-2.91,4.15-4.29,12.12-12.52,20.69-21,20.69-21,.68-.68,1.06-1.6,1.04-2.57-.01-.97-.44-1.88-1.15-2.52,0,0-6.3-5.73-13.37-12.77-1.21-1.2-2.44-2.44-3.66-3.69-2.54-2.59-5.05-5.25-7.3-7.79-2.54-2.87-4.73-5.58-6.19-7.82-.36-.55-.7-1.22-.96-1.75,1.76-.84,4.29-1.77,7.29-2.75,11.26-3.67,29.14-8.1,37.74-11.48,2.54-1,4.39-1.98,5.36-2.79,1.13-.93,1.63-1.96,1.8-2.77.16-.77.26-1.62.28-2.53.06-2.18-.28-4.72-.94-7.5Z"/>
    <path class="cls-35" d="M1700.5,639c-.62,0-1.25-.23-1.73-.7-24.32-23.35-121.11-57.1-122.09-57.44-1.3-.45-2-1.88-1.54-3.18.45-1.3,1.87-2,3.18-1.54,4.02,1.4,98.81,34.46,123.91,58.56,1,.96,1.03,2.54.07,3.54-.49.51-1.15.77-1.8.77Z"/>
    <path class="cls-35" d="M1218,641c-.39,0-.78-.11-1.12-.35-.91-.62-1.15-1.87-.53-2.78,23.45-34.42,138.2-69.32,143.08-70.79,1.06-.32,2.17.28,2.49,1.34.32,1.06-.28,2.17-1.34,2.49-1.18.36-118.27,35.95-140.92,69.21-.39.57-1.02.87-1.65.87Z"/>
  </g>
</svg>