<?xml version="1.0" encoding="UTF-8"?>
<svg id="Layer_1" xmlns="http://www.w3.org/2000/svg" version="1.1" viewBox="0 0 539 478">
  <!-- Generator: Adobe Illustrator 29.0.1, SVG Export Plug-In . SVG Version: 2.1.0 Build 192)  -->
  <defs>
    <style>
      .st0 {
        fill: #f79967;
      }

      .st0, .st1, .st2, .st3, .st4, .st5, .st6, .st7, .st8, .st9, .st10, .st11, .st12, .st13, .st14, .st15, .st16, .st17, .st18, .st19, .st20, .st21, .st22, .st23, .st24, .st25, .st26, .st27, .st28, .st29, .st30, .st31, .st32, .st33, .st34, .st35, .st36, .st37, .st38, .st39, .st40 {
        fill-rule: evenodd;
      }

      .st1 {
        fill: #bec3e3;
      }

      .st2 {
        fill: #fff;
      }

      .st3 {
        fill: #bd6c3f;
      }

      .st4 {
        fill: #97b3c1;
      }

      .st5 {
        fill: #c3c3c5;
      }

      .st6 {
        fill: #f8a073;
      }

      .st7 {
        fill: #3c76bb;
      }

      .st8 {
        fill: #ac4832;
      }

      .st9 {
        fill: #bf6c41;
      }

      .st10 {
        fill: #5088c7;
      }

      .st11 {
        fill: #833928;
      }

      .st12 {
        fill: #f3797a;
      }

      .st13 {
        fill: #6d3721;
      }

      .st14 {
        fill: #632b1f;
      }

      .st15 {
        fill: #a0a9d6;
      }

      .st16 {
        fill: #ef754e;
      }

      .st17 {
        fill: #a65f38;
      }

      .st18 {
        fill: #f69375;
      }

      .st19 {
        fill: #3a221e;
      }

      .st20 {
        fill: #c2c4c5;
      }

      .st21 {
        fill: #f8a383;
      }

      .st22 {
        fill: #893928;
      }

      .st23 {
        fill: #f7956f;
      }

      .st24 {
        fill: #d2e9ee;
      }

      .st25 {
        fill: #f08b57;
      }

      .st26 {
        fill: #e5e5e6;
      }

      .st27 {
        fill: #412011;
      }

      .st28 {
        fill: #f9aa82;
      }

      .st29 {
        fill: #883928;
      }

      .st30 {
        fill: #f0825c;
      }

      .st31 {
        fill: #5a90cc;
      }

      .st32 {
        fill: #4d6e8b;
      }

      .st33 {
        fill: #8d472a;
      }

      .st41 {
        fill: #f3f3f3;
      }

      .st34 {
        fill: #a2572e;
      }

      .st35 {
        fill: #3973ba;
      }

      .st36 {
        fill: #b03635;
      }

      .st37 {
        fill: #b9cbd5;
        stroke: #b7cbd4;
        stroke-linecap: round;
        stroke-linejoin: round;
      }

      .st38 {
        fill: #98a1d1;
      }

      .st39 {
        fill: #f0815c;
      }

      .st40 {
        fill: #cddbe8;
      }
    </style>
  </defs>
  <g>
    <path class="st23" d="M116.7,141s0,11,0,18.3c0,5.9,0,14.9-3.9,17.3-3.2,2-18.1,7.6-18.1,7.6,0,0,18.9,35.6,42.7,35,20.3-.5,28.7-40,28.7-40,0,0-13.5-2.2-16.7-4.7-2.9-2.2-1.9-3.5-2.4-10.3-.5-6.1.7-22.8.7-22.8l-31-.6h0Z"/>
    <path class="st16" d="M118.6,157.6c1.6,7.7,8.4,27.9,23.3,22.5,4.7-1.7,4.3-11.7,4.9-16.5,1.1-8.5,1-13.1,1.7-16.1,0,0-28.1-7.6-28.8-2.2-.5,4-2,8.1-1.1,12.3h0Z"/>
    <path class="st23" d="M166.2,126.3c5.9,2.7-.5,14-3.8,17.6-3.4,3.7-3.2,0-3.6,1.6-1.2,4.7-3,8.6-3.7,10.4-1.8,4.4-6.9,13.6-17.4,13.9-9.5.3-20.4-8.2-22.5-13.3-1.4-3.4-3.1-6.6-4.7-11.1,0,0-2.3,1.6-4.8-.2-2.9-2.1-10.5-13.4-6.2-17.4,3-2.8,6.3-1.8,8.2,1.5.3.6-.7-17.5,3.5-24.6,7.5-12.9,29.6-12.8,38.7-8.6,9.1,4.2,10.9,8.5,12.7,15.4,1.4,5.2-.4,12.6-1.1,14.6-1.2,3.2.7-1.6,4.7.2h0Z"/>
    <path class="st18" d="M106.9,135.3c-.2,0-.3,0-.5.2-.4.2-.9.6-1.2,1.4-.3.7-.1,1.8.4,2.8.6.9,1.5,1.6,2.6,1.4.4,0,.6-.5.5-.8,0-.4-.4-.6-.8-.6-.5.1-.9-.3-1.2-.7-.3-.5-.5-1-.3-1.4.3-.9,1-.8,1-.8.3,0,.7-.1.8-.4,0,0,.8-1.6-1.4-4.4-1.1-1.4-2.2-1.6-3.1-1.2-1.3.5-2.2,2.3-1.9,3.9s.5.6.8.5.6-.5.5-.9c-.2-.9.2-1.9,1-2.2.5-.2,1,0,1.5.8.9,1.1,1.1,2,1.2,2.5h0Z"/>
    <path class="st18" d="M161.6,134.8c.2,0,.3,0,.5.1.4.2.9.5,1.4,1.2.4.6.4,1.8,0,2.8-.4,1-1.2,1.8-2.2,1.7-.4,0-.6-.4-.6-.8s.3-.7.7-.7c.5,0,.8-.4,1-.9.2-.5.3-1.1,0-1.4-.5-.8-1-.6-1-.6-.3.1-.6,0-.8-.3,0,0-1-1.5.6-4.5.8-1.5,1.8-1.8,2.7-1.6,1.3.3,2.4,1.9,2.3,3.6,0,.4-.3.7-.7.7-.4,0-.6-.4-.6-.8,0-.9-.5-1.9-1.2-2.1-.5-.1-.9.2-1.3,1-.6,1.2-.7,2.1-.7,2.6h0Z"/>
    <path class="st18" d="M136.1,157.5c-.2,0-.6,0-.6,0-.3.5.9.8,1.4.9.2,0,1,0,1.3,0,.2,0,.3-.2.3-.4,0-.2-.2-.3-.4-.3-.2,0-.6,0-.7,0-.1,0-.8-.1-1.1-.2h0Z"/>
    <path class="st12" d="M131.6,153.4c.4-.5,2.3,0,6,.1,3.1,0,4.9-.1,4.9.6,0,1-1.9,2.6-4.9,2.6-4.2,0-6.6-2.5-5.9-3.4h0Z"/>
    <path class="st16" d="M138.1,136.6l.6,3.4c.2,1.2.2,2,.4,2.7,0,.3.1.5.3.8.3.6.5,1.3.3,1.7-.2.5-.7.8-1.4.9-.2,0-.4,0-.6,0-.9-.1-1.9-.6-3.1-.6s-.6.2-.6.5.2.5.5.5c1.1,0,2,.5,2.9.7.3,0,.7,0,1,0,1.4-.2,2.3-.8,2.6-1.7.3-.7.2-1.6-.3-2.5-.1-.2-.2-.5-.2-.8,0-.6-.2-1.4-.4-2.4l-.7-3.4c0-.3-.4-.5-.7-.4-.3,0-.6.3-.5.6h0Z"/>
    <path class="st27" d="M126.2,129.3c1.5,0,2.8,1.8,2.8,4.1,0,2.2-1.3,4-2.9,4-1.5,0-2.8-1.8-2.8-4.1,0-2.2,1.3-4,2.9-4h0Z"/>
    <path class="st27" d="M148.4,130.5c1.3,0,2.3,1.8,2.2,3.9s-1.3,3.8-2.6,3.7-2.3-1.8-2.2-3.9,1.3-3.8,2.6-3.7h0Z"/>
    <path class="st34" d="M122.2,124.8c2.8-.2,4.9-.1,6.8.3,2.4.5,3.5-.3,3.7-1.8,0-.7-1.2-1.9-3.5-2.3-2.7-.5-8.7-1.4-10.3.9-.6.8-1.2,3.3,3.3,3h0Z"/>
    <path class="st34" d="M154.5,125c-1-.1-4.3-.4-7.6,0-2,.3-3.4-.3-3.1-2,.2-.8,1.1-1.3,3.5-1.7,3.5-.5,7.2-.4,8.3.2,2.5,1.4,2,3.9-1,3.5h0Z"/>
    <path class="st9" d="M138,109c-2.1-4.9-14.8-6.3-15.6-2.4-1,4.9-4.5,3.3-4.2,8.7.2,4.1,0,4.9-4.8,9.4-3,2.7,2.1,14.2-1.5,13.5-1.5-.3-2-5.2-4.3-8.9-1.3-2.1-3.8-3.6-5.7-3-1.2.4-2.4-.2-3.5-2.1-1.6-2.7-3.3-5.3-2-12.2.5-2.9-2.8-12.9,8.9-18.6,0,0,0-2.2,2-5.4,4-6.1,13-9.5,19.6-10.2,15.4-1.5,23.8,2.4,29.5,9,8.1,9.4,18.8,7.4,20.5,13.3,2.3,7.8-1.3,15.4-6.1,18.1-6.2,3.6-6.3,9.5-9,15.4-3.6,7.8.4-6.2-4.1-13.9-2.3-4-16.2-3-19.6-10.9h0Z"/>
    <path class="st17" d="M147.2,112.4c4.1,2.9,16.5,7.4,26.1.7.3-.2.3-.5.1-.8s-.6-.3-.8-.1c-9.1,6.4-20.8,2-24.7-.7-.3-.2-.6-.1-.8.1-.2.3-.1.6.1.8h0Z"/>
    <path class="st17" d="M112.7,99.8c-3,.1-4.8,1-5.8,2.4-1.1,1.3-1.4,3.1-1.4,5.2,0,3.6.8,5.5.3,7.8-.4,2.1-1.1,3.4-1.8,4.3-.6.7-1.1.9-1.6.9-.3,0-.6.2-.7.5,0,.3.2.6.5.6.6,0,1.4-.2,2.1-.8,1-.8,1.9-2.4,2.5-5.3.5-2.4-.3-4.3-.3-8.1s.3-3.3,1.2-4.5c.9-1.1,2.5-1.8,5-1.9.3,0,.6-.3.6-.6,0-.3-.3-.6-.6-.5h0Z"/>
    <path class="st17" d="M115.1,93.7c.8-5.9,5.5-8.7,10.8-9.4,5.4-.7,11.6.6,15.2,3.2,4.8,3.4,8.5,7.2,12.4,9.9,4.1,2.8,8.3,4.4,13.9,3.5.3,0,.5-.3.5-.7,0-.3-.4-.5-.7-.5-5.3.9-9.3-.7-13.1-3.3-3.9-2.7-7.6-6.5-12.4-9.9-3.8-2.7-10.3-4.2-16.1-3.5-5.9.8-11,3.9-11.8,10.4,0,.3.2.6.5.6.3,0,.6-.2.7-.5h0Z"/>
    <path class="st24" d="M107.6,184.2s24.1,31.1,50,3.8c5.6-5.9,17,7.2,17,7.2l-14.3,46.2-49.2.5-15.5-46.1,12-11.6h0Z"/>
    <path class="st10" d="M185.6,475.4c0,.3,0,.5,0,.8h-47.6c0-.3-.1-.6-.2-.9-1.5-12-3.9-76.1-8.2-74.7-2,.7-8.1,49.3-10.8,72.1-.2,1.3-.8,2.4-1.8,3.5h-46.3c.3-8.6-.2-10,.3-17.9.3-5.2-1.8-52.6,1.9-92.1,2.1-22.7,6.2-42.7,13.9-50.5,0,0,32.5,7.9,50.5,9.8.2,0,.4,0,.5,0,1.3.1,2.7.2,4,.3,13.6.6,27-2.4,34.1-3.7,4.7-.9,8.4,13.9,9.5,21.7.6,4.8,1.1,12.9,1.3,22.8.9,34.1-.2,89.9-1.1,108.8h0Z"/>
    <path class="st35" d="M140.7,407.9c4.4,3.6,9.7,13.4,15.4,21,2.3,3.1,4.8,5.8,7.2,7.6,1.7,1.2,3.4,2.1,5.1,2.3,7.7,1.1,11.2-2.3,14.1-6.2.2-.2.1-.5-.1-.7-.2-.2-.6-.1-.7.1-2.7,3.6-5.9,6.8-13.1,5.8-1.6-.2-3.1-1-4.7-2.1-2.4-1.8-4.7-4.4-7-7.4-5.8-7.6-11.1-17.5-15.6-21.1-.2-.2-.5-.2-.7,0-.2.2-.2.5,0,.7h0Z"/>
    <path class="st35" d="M82,449.6c2.4,2.2,6.3,3.5,10.9,3.1,6.8-.5,15.2-4.5,22.3-13.9.2-.2.1-.5-.1-.7-.2-.2-.6-.1-.7.1-6.8,9.1-14.9,13-21.6,13.5-4.3.3-8-.8-10.1-2.8-.2-.2-.5-.2-.7,0-.2.2-.2.5,0,.7h0Z"/>
    <path class="st35" d="M79,385c0,0,.3,0,.4.2.4.3.9.8,1.4,1.5,3.1,4.1,5.9,10.7,15.4,16,.3.1.6,0,.7-.2.2-.2,0-.5-.2-.7-9.3-5.2-12-11.7-15.1-15.7-.9-1.2-1.6-1.8-2.2-2-.4-.2-.8-.1-1.1,0-.2.2-.4.4-.5.8,0,.5,0,1.3.3,2.2.7,2.1,2.5,5.1,5.7,8.2.2.2.5.2.7,0,.2-.2.2-.5,0-.7-3.6-3.5-5.4-6.9-5.7-8.8,0-.3,0-.6,0-.8,0,0,0-.1,0-.2h0Z"/>
    <path class="st31" d="M102.3,178.7c2-1,5.8-4.8,6.9-2.7.9,1.7,19.3,50.1,25.9,50.4,6.1.2,21.7-44.9,22.5-48.5.8-3.3,4.7-.4,8.6,1.1,8.4,3.3,18.5,6,20.1,8.8,5,8.8,6.4,36.4,5.3,52-1.1,15-7.6,44.2-7.4,64.6.3,23.7,6,44.5,6.1,57.2,0,18.8-115.9,13.1-119.7,2.7-2.2-6.1,6.6-22.2,5.1-35.3-1.7-14.8,4.3-16.1,1.4-35.1-3.1-20.1-1.7-35.1-2.7-48.2-1.6-20.8-9.8-56.4,1.4-60.8,12.1-4.8,25.6-5.6,26.5-6.1h0Z"/>
    <path class="st7" d="M92.1,332s-1.4,4.7,1.1,7.6c1,1.1,2.6,2,5.2,2.2,3.6.2,9.1-1,17.8-4.9,28.1-12.8,44.5-18,44.5-18,.5-.1.7-.6.6-1.1-.1-.5-.6-.8-1-.6,0,0-16.5,5.2-44.7,18.1-6.9,3.2-11.8,4.5-15.2,4.8-3.1.2-5-.5-6-1.6-1.9-2.2-.8-5.8-.8-5.8.2-.5,0-1-.5-1.1-.4-.1-.9.1-1.1.6h0Z"/>
    <path class="st7" d="M165.7,185.8c-5.8,24.3-15.3,40.5-21.3,49.3-.2.3-.1.6.2.8.3.2.7.1.8-.2,6-8.9,15.6-25.2,21.4-49.7,0-.3-.1-.6-.5-.7-.3,0-.6.1-.7.4h0Z"/>
    <path class="st7" d="M102,186.1c3.7,13.3,11.8,31.4,19.2,43.3,3.2,5.2,6.2,9.2,8.7,11.1.3.2.6.2.8,0s.2-.6,0-.8c-2.4-1.9-5.4-5.8-8.4-10.8-7.3-11.8-15.4-29.8-19-43,0-.3-.4-.5-.7-.4s-.5.4-.4.7h0Z"/>
    <path class="st7" d="M169.1,213.4l-5.6,25.5c0,.3.1.6.5.7s.6-.1.7-.4l5.6-25.5c0-.3-.1-.6-.5-.7s-.6.1-.7.4h0Z"/>
    <path class="st7" d="M88.7,220c2.4,11,4.2,22.6,3.7,30.1-.2,3.1-.8,5.4-1.9,6.7-.2.2-.2.6,0,.8.3.2.6.2.8,0,1.2-1.4,2-4,2.2-7.4.5-7.6-1.2-19.4-3.7-30.5,0-.3-.4-.5-.7-.4-.3,0-.5.4-.5.7h0Z"/>
    <path class="st23" d="M95.8,268.1c13.1-5,43.3,3.2,51.2,1,4.6-1.3,8-1.4,12-10.9.7-1.6,3.7-9.2,4.9-11.4,2.1-4,3.4-6.5,7.6-8.1,7.4-2.8,13.2-4.2,17.2-5.1,3.3-.7,4.1,1.2,3.1,2.3-1.7,1.9-11.3,4.3-12.7,4.7-1.2.3,2.6.6,6.4.7,4.7.1,10-.7,11.1.3.5.5.4,2.1-1.3,2.4-2.8.4-9,.4-10.5.7-4.2.9,5.4,1.3,11.4,1.8,3,.2,1.7,2.5.3,2.8-1.6.3-7.2.9-10.7.5-3.6-.5,4.7,1.5,6.4,1.6,5.9.3,5.4,3.3.3,3.3-7.2,0-10.7.5-11.7,1.1-1,.6-6.5,12.2-8.5,16.2-2.7,5.6-8.1,4-11.8,6.4-4.7,3-10,4.4-18.8,6.4-12.7,2.8-20.8,3.8-25.9,4.8-12.1,2.4-39.7,9.5-47.4.5-5.2-6.1-9.1-35-9-45.2.2-9.5,22.7-11.4,26.2-5.3,2.5,4.3,6.6,29.9,10.1,28.5h0Z"/>
    <path class="st23" d="M173.9,230.7c-1.9,4.2-3,14.5-4.2,21.4-.7,3.9-1.2,8.1-3.8,7.6-7.1-1.4-16.2-1.5-24.5-1.9-7.5-.4-22.4-.3-26.2-.8-5.1-.6-25.8-3.7-24.6,3.5.7,4.2,1.5,13,5.2,11.3,5.8-2.7,9.9,2.1,14.5,1.6,13.2-1.5,31.5,6,34.6,7.1,8.8,3.1,30.9,12,42.9,9.2,10.6-2.5,8.7-45.3,10-52.5,1.5-8.1-21.6-11.5-23.9-6.3h0Z"/>
    <path class="st16" d="M94.8,271.8c4.4-.4,7.7.3,10.9.9,3.4.7,6.7,1.3,11.4.7,3.2-.4,7.9.7,12.8,2.3,7.5,2.4,15.4,5.7,19,6.6.3,0,.7-.1.7-.4,0-.3-.1-.6-.4-.7-3.6-.9-11.4-4.2-18.9-6.6-5.1-1.6-10-2.7-13.3-2.3-4.5.5-7.8,0-11-.7-3.4-.7-6.7-1.4-11.3-1-.3,0-.6.3-.5.6,0,.3.3.5.7.5h0Z"/>
    <path class="st31" d="M90.5,259.8c-5.4,2.7-30.3,12.7-32.4,5.4-1.3-4.6-1-17.3-1.2-19.5-1.1-13-1.3-26.9-1.7-31.7-1.6-22.6,13-26.2,19.9-29.1,3.6-1.5,11.6,11.6,12.5,25.2,1.5,20.9,2.6,32,3,39.1.4,7.5,3.2,9-.1,10.6h0Z"/>
    <path class="st31" d="M172.1,210.9c-.8,8-7.4,34.9-8.9,42.6-1.2,6.4,36.4,15.2,37.8,9.3,2.3-9.8,5.7-48.7,5.4-55.2-.2-6.8-4.2-13.3-12.1-17.1-11-5.3-18.4-10.3-19.6-1.5-1.2,8.6-2.1,16.2-2.7,22h0Z"/>
    <path class="st23" d="M177.1,257.1c-2.9,1.6-5.3,3.1-11,2.5-7.5-.8-6.4-3.4-5.7-4.9,1-2.1,2.3-5.7,3.5-7.9,2.1-4,3.6-7,7.9-8.6,3.2-1.2,6.4-3,9-3.7,3.4-1,5.5-1,7.9-1.3,3.5-.5,4.2,1.9,3.2,3-1,1-4.3,1.3-8,2.2-2.5.6-4.2,2.1-4.9,2.3-1.2.3,4.4-.9,8.3-.8,4.1,0,6.8.3,8.3.5,3,.5,2.2,3.7-.7,3.9-1.5.1-3.6,0-5.7,0-2,.1-3.6.3-4.4.4-4.1.5,5.8-.2,11.4,1.3,2.9.7,1.7,3,.3,3.3-1.1.2-3.9-.2-6.8-.2-1.2,0-2.3,0-4.2.2-3.6.6,5.2,1.2,6.9,1.3,5.9.3,5.3,4.1.2,4.1-7.2,0-10.7.5-11.7,1.1-.2.2-2.2.5-3.8,1.3h0Z"/>
    <path class="st16" d="M151.5,258.9c7.5.4,15.8,1,20.1,1.4.3,0,.6-.2.7-.5,0-.3-.2-.6-.5-.6-4.4-.4-12.7-1.1-20.2-1.4-.3,0-.6.2-.6.5,0,.3.2.6.6.6h0Z"/>
    <path class="st16" d="M90.5,259.9c.8,2.6,2.5,7.8,3,10.7,0,.3.4.5.7.5s.5-.4.5-.7c-.5-2.9-2.2-8.2-3-10.9,0-.3-.4-.5-.7-.4-.3,0-.5.4-.4.7h0Z"/>
  </g>
  <g>
    <path class="st17" d="M390.9,73.8s-28.5,2.3-31.4,30c-2.9,27.8-7.6,34.2-9.1,40-2,7.8,5,18.6,12.1,13.1,5.1-4,13.6-4.8,19-5.3,15.7-1.5,25.3,1.2,36.4,1.1,8,0,16.7-7.2,19.2-10.6,7.7-10.5-9.6-36.7-9.8-39-.6-7-7.7-32.8-36.4-29.4h0Z"/>
    <path class="st28" d="M379,137.5c1,4.7,1.7,20.2,1.6,23.8-.2,5.2-17.7,7-17.7,7,0,0,10.7,43.4,32.7,43.9,26.4.6,33.4-43.5,33.4-43.5,0,0-20.1-6.3-20.5-9.3-.6-4.4-.3-22.5-.4-24.4-.2-6.2-30.9-5.3-29.2,2.5h0Z"/>
    <path class="st0" d="M381.3,151.3c1.2,6.3,5.8,10.2,9.7,10.3,10.4.4,15-8.7,16.1-14.7.7-3.5,1.1-7.5,1.1-8.3-.2-6.2-30-4.7-28.3,3,.5,2.2.3,4,1.4,9.7h0Z"/>
    <path class="st28" d="M368.1,119.5c-.7-4.2-1.1-8.1-1.6-11.5-2.7-17.9,10.2-27.9,23.3-29.5,15.8-1.9,33.9,7.3,30.3,37.3,0-.1,2.2-2.3,4-2.3,2.2,0,3.4,1.2,3.1,4.1-1.4,11.3-7.6,15.8-9.1,11.5-7.6,27.2-31.1,27.7-38.7,18.4-4.2-5.1-7.5-10.7-9.3-17.3-3.7,3.5-7.9-3.1-8.7-8.8-.4-3.1-.5-5.2,1.9-5.9,2.4-.7,4.7,2.9,4.9,4h0Z"/>
    <path class="st36" d="M383,135.1c3.2.7,12.1.4,15.1-.2,2-.4-1.3,8-6.8,8.2-2.5.1-4.4.4-6.6-2-2-2.2-3.2-6.4-1.7-6h0Z"/>
    <path class="st2" d="M398.2,134.9c-.3,1.1-1,2.4-1.8,2.6-2.7.6-10.6.8-12.3,0-1.1-.6-1.1-1.5-1.4-2.4,0,0,.1,0,.2,0,3.2.7,12.1.4,15.1-.2,0,0,0,0,.1,0h0Z"/>
    <path class="st11" d="M402.9,111.4c1.5,0,2.7,1.6,2.7,3.7s-1.2,3.7-2.7,3.7-2.7-1.6-2.7-3.7,1.2-3.7,2.7-3.7h0Z"/>
    <path class="st25" d="M388.7,118.3c-.4,2.3-1.4,4.8-2.4,6.5-.4.7-.6,1.7-.5,2.3.1.6.4,1,.8,1.4,1,.9,3.2.9,5.4-.2.4-.2.7-.5.4-.9-.3-.4-.5-.2-1.1,0-1.1.4-2.1.4-2.8.1-.5-.2-.8-.7-.9-.9,0-.5.1-1,.3-1.3.8-1.4,1.7-4.7,1.9-6.8,0-.5,0-1-.5-1s-.6.4-.7.8h0Z"/>
    <path class="st11" d="M377.7,111.7c1.5,0,2.8,1.6,2.8,3.5s-1.2,3.5-2.8,3.5-2.8-1.6-2.8-3.5,1.2-3.5,2.8-3.5h0Z"/>
    <path class="st11" d="M372.6,108.7c1.3-1.8,4.2-3.2,7.6-2.5,1.1.2,2.4,0,2.6-1.1.2-1-.8-1.6-1.8-1.9-5.9-2-9.3.9-10.8,3.4-.5.9-1,2.2-.1,2.8s1.9.2,2.5-.7h0Z"/>
    <path class="st11" d="M410.1,104.7c-2.1-2.1-5.7-3.8-11.1-1.9-1.1.4-2.5,1.3-2.2,2.7.2,1,1.2,1.1,2.3.7,3.4-1.2,7.4-.9,8.7.4.8.8,1.9,1.2,2.7.5.8-.7.3-1.6-.5-2.4h0Z"/>
    <path class="st3" d="M398,86.2c.1-1-.3-1.3-2.7-1-6.6.7-19.7,3.7-23.4,17-6.8,24.5-6.9,32.5-12.9,40.5-4.7,6.3,5.4,17.4,7,20.2,1.7,3.1-19.2,3.6-25.2-14.5-3.7-11.1-.6-25.2,6.9-33.8,2.1-2.5,1.1-5.2,0-7.2-1.6-2.9-5.7-10.6,4.1-22.6,6.6-8.1,13.7-10.9,18.2-16.4,6.5-7.9,17.1-11.4,28.1-11.4,13.7,0,17.8,7.7,17.1,10.8-.4,2.1,23.6-5.3,19.5,35-2.1,20.1,3.3,15.6,5.9,23.5,2.4,7.3.6,11.9-6.1,18.5-5.8,5.7-12.4,8.7-21,8.1-5.5-.3,0-10.4,2-14.9,3.9-9.1,8.9-14.8,2.5-20-4-3.3-18.1-17.1-19.8-26.7-.4-2.1-.4-3.5-.2-5h0Z"/>
    <path class="st17" d="M407.7,87s-2,12.6,14.3,19.8c4.6,2,7,4.1,8,6.3,1.2,2.5.6,5-.4,7.3-1.1,2.5-2.7,4.9-3.5,6.8-.1.3,0,.6.4.8s.7,0,.8-.3c.8-2,2.4-4.3,3.5-6.8,1.2-2.7,1.8-5.5.4-8.3-1.2-2.3-3.7-4.7-8.6-6.9-15.3-6.7-13.6-18.5-13.6-18.5,0-.3-.2-.6-.5-.7-.3,0-.7.2-.7.5h0Z"/>
    <path class="st17" d="M364.7,101.9s.5,6.1-.6,12.8c-.7,4.4-2,9-4.6,12.3-3.4,4.2-5.3,6.8-6.4,8.7-1.1,2.1-1.2,3.4-.7,4.9.1.3.4.5.8.4.3-.1.5-.4.4-.7-.4-1.2-.3-2.3.6-4,1-1.9,2.9-4.4,6.2-8.6,2.7-3.4,4.2-8.2,4.9-12.8,1.1-6.8.6-13,.6-13,0-.3-.3-.6-.7-.5-.3,0-.6.3-.6.6h0Z"/>
    <path class="st17" d="M369.5,76.5c-6.8,5.6-12.2,9.7-15.1,13.6-1.6,2-2.5,4-2.6,6-.2,2,.4,4.2,1.9,6.5.2.3.6.4.8.2s.4-.5.2-.8c-1.3-2.1-1.9-4-1.7-5.8.2-1.8,1-3.6,2.4-5.4,2.9-3.8,8.3-7.9,14.9-13.4.3-.2.3-.6,0-.8s-.6-.3-.9,0h0Z"/>
    <path class="st17" d="M409.7,68.4c-.8-2.3-3.5-4.4-7.4-5.3-5.6-1.2-14.1.2-23.6,8-.3.2-.3.6,0,.8.2.2.6.3.9,0,9.1-7.4,17.1-8.9,22.5-7.7,3.4.7,5.8,2.6,6.5,4.5.1.3.5.5.8.4.3-.1.5-.4.4-.8h0Z"/>
    <path class="st17" d="M402.7,80.6s1.9-2.9,4.5-5.7c1.8-1.8,3.9-3.6,6.1-4.4.3-.1.5-.5.4-.8s-.5-.5-.8-.3c-2.4.8-4.7,2.7-6.5,4.7-2.8,2.9-4.7,5.9-4.7,5.9-.2.3,0,.6.2.8.3.2.7,0,.8-.2h0Z"/>
    <path class="st17" d="M346.6,130s-1.4-3.6,3.4-9.5c.2-.3.2-.6-.1-.8-.3-.2-.7-.2-.9.1-5.4,6.6-3.6,10.7-3.6,10.7.1.3.5.4.8.3.3-.1.5-.5.3-.8h0Z"/>
    <path class="st22" d="M452.2,341.2h0c-.4,13.5-1.4,30.1-2.1,41.4-2.2,35.4-5.6,80-7,94h-42.3c-1.1-16.3-3.3-92.5-8.7-92.4-6.2,0-10.7,68.9-13.9,92.3,0,0,0,0,0,0h-44.4c-.1-.4-.2-.8-.2-1.2.4-9.7-.5-26.5,0-37.5.7-13.8,2.2-58,5.3-92.3,1.4-14.9,3-27.9,5-35.7,3.9-15.2,35-6.2,53.5-4.2,15.5,1.6,30.9-1.1,39-2.7,4.9-.9,14.5,9.9,15.5,17.7.5,3.9.5,11.6.3,20.6h0Z"/>
    <path class="st14" d="M433.8,438.7c-5.3,3-10.2,1.7-14.9-2-4.9-3.9-9.4-10.3-13.8-17.5-.2-.3-.5-.3-.8-.2-.3.1-.4.5-.2.7,4.4,7.4,9.1,13.9,14,17.8,5.1,4.1,10.5,5.4,16.2,2.1.3-.1.3-.5.2-.7-.2-.3-.5-.3-.8-.2h0Z"/>
    <path class="st14" d="M366.8,379.1c-.4,0-1-.2-1.6-.4-5.7-1.6-18-6-18-6-.3-.1-.6,0-.7.3s0,.6.3.7c0,0,12.4,4.5,18.1,6.1,1,.3,1.9.5,2.4.5.3,0,.5,0,.7,0,.2,0,.3-.2.4-.3,0-.1.1-.3,0-.5,0-.1,0-.3-.2-.4-.2-.2-.5-.5-.9-.9-3.1-2.6-13.1-8.8-15.3-11.3-.2-.2-.5-.3-.8,0s-.3.5,0,.7c2.2,2.5,12.2,8.8,15.4,11.4,0,0,.1,0,.2.1h0Z"/>
    <path class="st14" d="M341.1,443.7c3.8,1.4,8.5.4,13.2-2.4,6.9-4.1,14.2-11.9,19.8-21.6.2-.3,0-.6-.2-.7s-.6,0-.7.2c-5.4,9.5-12.6,17.3-19.4,21.2-4.4,2.6-8.7,3.6-12.2,2.3-.3-.1-.6,0-.7.3-.1.3,0,.6.3.7h0Z"/>
    <path class="st24" d="M365.9,171.4s26.9,33.3,54.1,0c9.7-11.9,14.1,9.4,14.1,9.4l-16.6,49-48.1-2.4-12.8-48.2,9.2-7.8h0Z"/>
    <path class="st8" d="M374.2,163.8c-12.2,4.5-31.1,8.4-34.7,9.4-6,1.6-.7,18.6,0,27.3,1.4,16.3,1.2,22.3,1.9,27.7,2.3,18.3,2.9,38,3.7,51.5.5,7.1-7.3,49.6-8.2,60.4-1.1,14.8,40.1,14.2,58.8,15.8,39.1,3.2,57.2-10.3,58.3-19.6,3.2-28.4-10.3-54.2-7.9-74.1,1-8.1.3-42.9,1.6-55.3,1.1-10.5,8.7-34-.3-35.8-9-1.7-19.7-3.6-31.8-7.9-2.8-1-.7,3.5-4.7,14.6-5,13.8-12.5,31.6-17.1,31.6-5.1,0-14.8-24.8-17-32.5-2.5-8.9-1.1-13.7-2.7-13.1h0Z"/>
    <path class="st29" d="M423,167.6c-7.3,26.6-18.4,44.1-25.3,53.6-.2.3-.1.7.2.9s.7.1.9-.2c7-9.6,18.2-27.3,25.5-54,0-.3-.1-.7-.5-.8-.4,0-.7.1-.8.5h0Z"/>
    <path class="st11" d="M351.2,326.7c-.3,1.4-1.3,6.4,2,9.5,1.6,1.5,4.3,2.6,8.8,2.6,4.3,0,10.3-1.2,18.5-4.2,32.8-11.7,47-21.2,47-21.2.2-.2.3-.5.1-.7s-.5-.3-.7-.1c0,0-14.1,9.5-46.7,21.1-8.1,2.9-14,4.1-18.2,4.1-4.1,0-6.5-.9-8-2.3-1.5-1.4-1.9-3.2-2-4.8,0-1.7.2-3.1.3-3.8,0-.3-.1-.5-.4-.6-.3,0-.6.1-.6.4h0Z"/>
    <path class="st29" d="M364.9,170.5c3.5,13.5,11.5,31.9,18.8,44.1,3.2,5.3,6.2,9.4,8.7,11.4.3.2.7.2.9,0s.2-.6,0-.8c-2.4-2-5.4-6-8.5-11.1-7.3-12.1-15.2-30.4-18.7-43.8,0-.3-.4-.5-.7-.4-.3,0-.5.4-.5.7h0Z"/>
    <path class="st29" d="M430.8,204.4l-1.3,28.7c0,.4.3.6.6.7.4,0,.7-.3.7-.6l1.3-28.7c0-.3-.3-.6-.6-.7-.4,0-.7.3-.7.6h0Z"/>
    <path class="st29" d="M351,240c1.7-12.3,2.6-25.2,1.4-33.4-.5-3.4.8-3.9,1.3-.2,1.2,8.3.4,21.4-1.4,33.8,0,.3-.4.6-.7.5s-.6-.4-.6-.7h0Z"/>
    <path class="st38" d="M369.8,214.7c-1.6,0-3,1-3.1,2.4-1,11.9-5.3,63.4-6.4,76.4,0,.8.3,1.5.9,2.1s1.5.9,2.4.9c10.9,0,44.5,0,54.4,0,1.6,0,2.9-1,3-2.4,1.2-11.5,6.2-62.1,7.5-74.8,0-.7-.2-1.5-.8-2.1-.6-.6-1.4-.9-2.3-.9-11-.3-45.3-1.3-55.5-1.6h0Z"/>
    <path class="st1" d="M373.4,214.9c-1.6,0-3.6,1.7-3.7,3-1.1,11.8-5.2,63.9-6.2,75.6-.2,2.6,1.4,2.9,2.3,2.9,1.8,0,1.9,0,2.8,0,10.3-.2,40.3.2,49.4,0,1.5,0,2.8-1,2.9-2.3,1.2-11.4,6.5-61.9,7.9-74.7,0-.8-.2-1.5-.8-2.1-.6-.6-1.5-.9-2.3-.9-10.4-.2-42.9-1.4-52.3-1.5h0Z"/>
    <path class="st15" d="M389.3,217.6l-6.5,74.6c0,.4.3.7.7.8.4,0,.8-.2.9-.6l6.5-74.6c0-.4-.3-.7-.7-.8-.4,0-.8.2-.9.6h0Z"/>
    <path class="st6" d="M432.7,228.1c-.6,6.9-2.7,26.6-1.4,33.9.6,3.4,1.5,6.5-.4,6-8.1-2.1-16.3,1.3-25.8-1.2-8.3-2.2-11.9-4.3-15.4-9.6-3.6-5.4-7.3-9.6-14.2-11.6-6.8-1.9-12.6-2.9-13.9.5-.9,2.4-2.7,1.3-4.6,4.1-1,1.5-2.6,3.6-.4,6.2,1.3,1.6-.3,1-1.2,3.9-.6,1.9.2,2.8,1.4,5.2,1.2,2.3,0,3-.2,4.2-.2,1.8.7,3.7,3.8,5.3,8,4.3,18,1.9,26.7,5.1,5,1.8,47.1,19.7,62.1,12.6,7.9-3.7,13.8-58.6,9.9-65-3.9-6.4-25.6-6.3-26.3.6h0Z"/>
    <path class="st8" d="M447.2,171.2c8.1.6,20.9,9.6,20.7,20.9-.2,14.5-.4,22.8-.8,33-.4,9.9-2.1,17.9-2.9,26.4-.7,7.5-31.2,4-35.6,0-3.7-3.4.7-13.8.8-18.8,0-5.1,4-3.4,2.6-12.2-.5-3,1.5-13,2-20.6,1.2-15,7.1-29.3,13.3-28.8h0Z"/>
    <path class="st28" d="M412.3,268.5c8.3-3.9,12.4-5.8,13.3-2.8.7,2.2-1.9,3.1-5,5.4-1.5,1.1-4.9,4.2,1,6.4,7.2,2.8,7.9,3.7,17.7,4.4,5.3.4,7,.6,7.7,1.7.5.8,1.1,2.3-.5,3.5-.5.4,4.5.3,4.7,2.5.3,2.9-2.2,3-4.7,3.2-.9,0,2.5.4,2.5,2.6s-3.1,2.9-3.8,3c0,0,1.5.5,1.6,1.5.1,1.4-.8,2.5-4.6,2.1-5.7-.5-6.9-.9-13-1-5.8,0-7.5.1-11.2-1.7-7.4-3.8-13.9-8.3-18.1-9-4.7-.8-22.5,0-31.8,0-17-.2-27.1.2-38.3-3.9-11.1-4.1-9-41-8.1-46.9.7-5.1,29.2-10.2,27.2,5.3-.9,6.7-2.3,12.3-2.6,15.3-.2,1.8.5,4.7,2,4.5,13.5-2.2,19.2,4.6,35.4,7.4,6.3,1.1,11.5,2.6,15.6.5,4.1-2.1,9.1-2.2,13-4.1h0Z"/>
    <path class="st8" d="M326.8,179.7c4-3.4,11.1-6.6,14.5-6.4,12.7.9,13.3,22.4,11.8,37.8-1.4,15-3.1,29.8-3.8,40.6-.4,6.5-34.5,5-33.2-2.6,2.7-15.5,3.1-28.6,3.8-35.5.6-6.3,1.1-12.4,1.5-20.7.4-7.1,1.4-9.9,5.3-13.3h0Z"/>
  </g>
  <g>
    <path class="st37" d="M332.7,476.2h-58.4c-2.6-21.6-9.3-64.5-13.3-64.3-3.9.2-10.5,45.9-11.4,64.3h-63.5v-.2c.2-10.7,1.9-33,3.8-55.9,1.4-16,2.9-32.2,4.1-45.1.9-9.6,1.7-17.2,2.2-21.4,2-17.8,4.6-43.1,4.6-43.1h7.4c0,.1,19.4.4,19.4.4h4c0,0,33.2.5,33.2.5h1.8s2.9,0,2.9,0l47.8-.2h.4s.1,7.7.4,14.2c0,.6,0,1.1,0,1.7,0,1.9.2,3.7.3,4.9.6,6.1.6,9.2,1.6,12.3h0c.6,1.8,1.4,3.7,2.8,6.3,2.5,4.5,3.1,12.1,3.4,19.1.2,5.4.2,10.4.7,13.5,2.4,17,3.6,30.7,4,40.5,0,1.8.1,3.5.1,5,.2,24,1.6,37.5,1.7,47.3h0Z"/>
    <path class="st4" d="M200.2,471s4.4,5.3,11.2,5.1c2.9,0,6.3-1.1,10-3.9,11.9-9.2,20.9-20.3,20.9-20.3.2-.2.2-.6-.1-.8s-.6-.1-.8.1c0,0-8.8,11-20.7,20.1-3.4,2.6-6.6,3.6-9.3,3.7-6.3.1-10.3-4.7-10.3-4.7-.2-.2-.6-.3-.8,0-.3.2-.3.6,0,.8h0Z"/>
    <path class="st4" d="M283.3,432.9c9.2,7.8,16.7,12.3,22.7,14.2,6.2,2,10.9,1.2,14.3-1.6.2-.2.3-.6,0-.8s-.6-.3-.8,0c-3.1,2.6-7.4,3.2-13.1,1.4-5.9-1.9-13.3-6.4-22.3-14-.2-.2-.6-.2-.8,0-.2.2-.2.6,0,.8h0Z"/>
    <path class="st21" d="M244.5,106.5c-.2,7.8,1.8,27.3,0,31.9-2.8,7.3-30.2,12.6-33.1,14.9-2.9,2.3,19.7,26.6,52.4,27.2,40.7.7,53-26.9,53.3-29,.4-2.9-25.6-6.2-31.4-13.7-5.8-7.5-2.9-21.5-3.3-31.1-.4-8.3-37.7-7-37.9-.2h0Z"/>
    <path class="st39" d="M245.5,117.5c0,5.8,7.9,18.9,18.6,18.7,13.1-.2,16.3-12.8,17.3-17,1-4.6.7-8.6.5-12.5-.4-8.3-37.2-7.1-37.3-.2,0,2.6,1,6.8,1,11h0Z"/>
    <path class="st21" d="M236.8,41.7c-10.7,9.3-3.6,34-4.2,37-.2,1.2-6.1-3.8-7.8,3.5-1.8,8.1,4.4,18.7,9.1,14.6,1.1-1,7.5,30.7,29.1,31,22.7.3,28-27.1,29.3-32,0,0,4.1,2.4,7.2-2.3,3-4.4,5.6-16.8-6.1-14.5-2.3.4,7.4-26.3.7-35.2-7.6-10.2-38.3-18.6-57.3-2h0Z"/>
    <path class="st12" d="M255.4,108.4c0-.6,4.2,0,8.3-.1,4.1,0,8.1-.5,8.1,0-.2,1.4-1.7,4.4-8.4,4.4-4.8,0-8.2-2.8-8-4.3h0Z"/>
    <path class="st30" d="M261,83.6c-.1,2.7-1.2,7.2-1.9,8.5-.7,1.3-1.4,2.8-1.6,4.1-.2,1.1,0,2.2.6,3,.6.9,1.8,1.6,3.8,1.9.7,0,1.3-.3,1.4-.9,0-.6-.4-1.2-1-1.3-1.1-.1-1.8-.4-2.2-.9-.3-.4-.3-1-.2-1.6.2-1.1.8-2.3,1.4-3.4.7-1.4,2-6.4,2.1-9.3,0-.6-.5-1.1-1.2-1.2-.7,0-1.2.4-1.3,1.1h0Z"/>
    <path class="st19" d="M248.2,78.7c1.7,0,3,1.8,3,4s-1.4,4-3,4-3-1.8-3-4,1.4-4,3-4h0Z"/>
    <path class="st19" d="M278.6,79.2c1.7,0,3,1.8,3,4s-1.4,4-3,4-3-1.8-3-4,1.4-4,3-4h0Z"/>
    <path class="st13" d="M241.6,75.1c1.7-.3,3.7-.8,6.2-.9,1.8,0,3.6.3,6.1.5,1.2.1,2.2.3,2.6-1.2.3-1-.5-1.7-1.6-2.2-6.4-2.5-12.6-1-15.5.9-1,.6-1.4,2-.5,2.7.5.4,1.2.5,2.7.2h0Z"/>
    <path class="st13" d="M288.4,71.5c-2.9-2.5-11.5-2.9-15.7-.6-1.4.8-2.1,1.8-1.8,2.8s1.6,1.4,3.3,1c4.6-1.2,9.7-.7,12.1.2,1.1.4,2.3.2,2.9-.7.6-.9.1-2.1-.9-2.7h0Z"/>
    <path class="st39" d="M227.5,83.9c0-1,.6-1.6,1.2-1.7.4,0,.8.1,1.1.4.7.6,1.2,1.6,1.3,3.1,0,.1,0,.2-.1.4-.2.4-.5.8-.8,1.3-.4.7-.7,1.5-.6,2.4,0,.9.5,1.9,1.7,3,.2.2.5.2.7,0,.2-.2.2-.5,0-.6-.9-.8-1.3-1.5-1.4-2.2-.2-1.1.3-2,.8-2.7.2-.4.4-.7.5-.9.1-.2.2-.5.1-.6-.2-2.6-1.5-4-2.7-4.3-1.3-.4-2.7.4-2.9,2.4,0,.2.2.5.5.5s.5-.2.5-.4h0Z"/>
    <path class="st39" d="M298.2,83.8c0-1-.6-1.6-1.2-1.7-.4,0-.8.1-1.1.4-.7.6-1.2,1.6-1.3,3.1,0,.1,0,.2.1.4.2.4.5.8.8,1.3.4.7.7,1.5.6,2.4,0,.9-.5,1.9-1.7,3-.2.2-.5.2-.7,0-.2-.2-.2-.5,0-.6.9-.8,1.3-1.5,1.4-2.2.2-1.1-.4-2-.8-2.7-.2-.4-.4-.7-.5-.9-.1-.2-.2-.5-.1-.6.2-2.6,1.5-4,2.7-4.3,1.3-.4,2.7.4,2.9,2.4,0,.2-.2.5-.5.5s-.5-.2-.5-.4h0Z"/>
    <path class="st33" d="M235,80.3c1-.3-1.2-12.3,2.6-15.2,3.1-2.4,1.6-9.8,4-10.9,6.6-3.1,31.1,2.9,41.7-.5,7.7-2.5,3,11.3,7.3,14.8,0,0,.5,8.4.4,10.2-.1,1.4,1.8,3.2,4.5-.1,2.7-3.3,13.7-34.7,1.8-38-2.3-.7-.8-22.9-43.9-13-33.9,7.8-37.2,42.6-27.1,39.6,0,0,2.4,8.6,3.1,11,0,.1.6,0,2.6.7,1.5.5,2.5,1.7,3.2,1.5h0Z"/>
    <path class="st13" d="M286.1,49.8c2.1-3.4,5.1-5.9,8.8-6.8.5-.1.9-.6.7-1.1s-.7-.8-1.2-.7c-4.2.9-7.7,3.8-10.1,7.6-.3.5-.1,1,.3,1.3s1.1.1,1.4-.3h0Z"/>
    <path class="st13" d="M243.8,43.1s2.2,6,10.8,8.5c.5.2,1.1-.1,1.2-.6.2-.5-.1-1-.7-1.2-7.5-2.2-9.5-7.3-9.5-7.3-.2-.5-.8-.8-1.3-.6-.5.2-.8.7-.6,1.2h0Z"/>
    <path class="st13" d="M228.5,64.5s4.5-.4,7.8-5.6c.3-.5.1-1-.3-1.3-.5-.3-1.1-.1-1.4.3-2.7,4.3-6.3,4.7-6.3,4.7-.5,0-.9.5-.9,1.1s.6.9,1.1.8h0Z"/>
    <path class="st13" d="M259.5,42.1s5.9,7.9,12.1,10.5c.5.2,1.1,0,1.3-.5.2-.5,0-1-.5-1.3-5.8-2.5-11.3-9.9-11.3-9.9-.3-.4-.9-.5-1.4-.2s-.6.9-.2,1.3h0Z"/>
    <path class="st13" d="M293.4,49.6c3.9,3.3,2.8,8,2.2,10.2-.1.5.2,1,.7,1.2s1.1-.2,1.2-.7c.7-2.6,1.9-8.2-2.8-12.1-.4-.3-1-.3-1.4,0-.4.4-.3,1,0,1.3h0Z"/>
    <path class="st31" d="M243.1,136.4c1-.6,1.2.2,1.7,1,2.7,4.8,10.3,32.8,19.3,32.8,10.8.1,19.1-33.5,20-34.8.5-.7,6.2,2.9,10.9,3.8,6.5,1.2,21.3,6.7,24.1,13.2,4.6,10.6,11.5,46.9,8,64.4-3.5,17.2-11.3,56.5-10.1,88.1.9,22.2.5,28.4,0,35.3-1.5,21.4-105.3,20.5-109.7,8.6-2.5-7-.9-11.7-1.4-19.9-.7-13.8,6.3-26.4,5.1-46-1.4-23.2-5.4-50-5.9-63.6-.9-24.1-7.3-66.3,5.6-71.4,13.8-5.5,31.4-11,32.4-11.6h0Z"/>
    <path class="st2" d="M237.9,134.4s-45.5,15.5-48.4,19.4c-2.9,4,9.2,87.5,8.8,92.8-.1,1.8,2.4,23.9-5.5,48.8-1.8,5.8,2.2,17.1,2,23.6-.4,11.1-5.8,26.7-6.6,37.8-2.6,39.2-3.4,47-4.1,58.7-.6,9.9,70.1,13,71.3,7.2,1-5,4.3-42.8,6.8-43.3,2.5-.5,6.8,31.5,8,40.2,1.2,8.1,63.2,8.2,67.5,1.1,4.4-7.1-5.9-68.4-6.8-80.3-.6-8-2-17.2-2.8-30.8-1.8-30.9,3.4-52,3.3-55.9-.2-7.4,12.8-89.5,13.7-93.7,1-4.2-55-24.7-55-24.7,0,0-4.6,20.1-7.8,29.9-4.1,12.8-16.7,47-16.7,47-12.5-22.7-21.2-49.7-27.8-77.9h0Z"/>
    <path class="st40" d="M265,224.6l-.3,120.6c0,.5.4.8.9.8s.9-.4.9-.8l.3-120.6c0-.5-.4-.8-.9-.8s-.9.4-.9.8h0Z"/>
    <path class="st40" d="M281.4,337l-.3-9.2c5.4,0,33.1,0,37.5-.6.5,0,.8-.5.7-.9s-.5-.8-1-.7c-4.9.7-38.2.5-38.2.5-.2,0-.5,0-.6.3-.2.2-.3.4-.2.6l.3,10.1c0,.5.4.8.9.8.5,0,.9-.4.8-.9h0Z"/>
    <path class="st40" d="M290.1,211.8s14.7,1.7,25.2,1.6c2.7,0,5.2-.2,7.1-.6,1.4-.3,2.4-.7,3.1-1.1.4-.3.5-.8.2-1.2-.3-.4-.8-.4-1.2-.2-.5.4-1.4.6-2.4.8-1.8.4-4.1.5-6.8.6-10.4.2-24.9-1.6-24.9-1.6-.5,0-.9.3-1,.7,0,.5.3.9.8.9h0Z"/>
    <path class="st40" d="M227.4,336.2h-20.6l.2-9h41.3l-.3,9.8c0,.5.4.9.8.9.5,0,.9-.3.9-.8l.4-10.7c0-.2,0-.4-.2-.6s-.4-.3-.6-.3h-43.1c-.5,0-.9.4-.9.8l-.3,10.7c0,.2,0,.4.2.6.2.2.4.3.6.3h21.5c.5,0,.9-.4.9-.8s-.4-.8-.9-.8h0Z"/>
    <path class="st21" d="M252.1,254.9c10-1,18.9-2.1,28-4.6,5.2-1.4,9.2-1.5,13.8-12.5.8-1.8,4.3-10.5,5.6-13.1,2.4-4.6,3.8-7.4,8.8-9.2,8.5-3.2,15.1-4.9,19.7-5.8,3.8-.8,4.7,1.4,3.5,2.7-2,2.2-13,4.9-14.6,5.3-1.3.4,2.9.7,7.3.8,5.4.1,11.5-.8,12.7.4.6.5.5,2.4-1.5,2.7-3.2.5-10.3.5-12,.9-4.9,1,6.2,1.5,13.1,2,3.4.3,1.9,2.9.3,3.2-1.9.3-8.2,1.1-12.3.5-4.1-.5,5.4,1.7,7.4,1.8,6.7.4,6.2,3.8.4,3.8-8.3,0-12.3.5-13.4,1.2-1.1.7-8.3,18.4-14.7,18.2-3,0-9.2,11.2-21.5,19.2-9.7,6.3-12.2,7.4-20.4,10.8-13,5.3-20.1,2.7-24.8-1.4-4.7-4-6.1-18.3-3.6-22.8s12.2-3.6,18.3-4.2h0Z"/>
    <path class="st21" d="M278.4,237.3s-28.8-.3-34.7-1c-5.9-.7-20.2-2.5-27.3,2.4-4.5,3.1-7.3,3.8-13.4,10.5-3,3.3-2.7,10.6-5.9,13.7-3.5,3.4-1.3,10.4,5.5,9.7,10.9-1.1,17.2-2.8,24.7-9.6,7.5-6.9,4.8-9.6,9.9-9.3,10.9.6,36.8,4.6,40.4,5.8,3.6,1.1.8-22.1.8-22.1h0Z"/>
    <path class="st2" d="M223.6,243.3c2.8,2.9,11.6,1.5,12,4.6.4,3.1-.2,3.5,5.4,4.6,5.6,1.1,15.7-1.6,19.3,0,3.5,1.7-1.3,2.1-.4,17.2.9,15.1,3.3,12.8,4,13.8,1.7,2.5-7.1,6.6-14.5,6.2-5.2-.2-12.8-4.2-16.8-3.6-19.2,3-37.1-6-43.3-8.2-10.4-3.6-12.7-7.2-12.2-20.8.2-4.4,1-8-1.4-16.3-1.5-5.2-.2-12.7-.5-15.3-1.4-12.2-4.8-25.8-5.1-31.2-1.4-24.9,10.6-37.5,18.5-40.9,4.1-1.7,21.4,5.4,24.7,29.2,3.3,23.8-2,45.8,5.6,47.8,7.7,2,1.9,9.9,4.7,12.8h0Z"/>
    <path class="st2" d="M258.4,236.4c.5,2.7.8,9.1.2,14.9-.9,8.2-1.1,12.1,1.1,13.9,1.2.9,5.7,3.3,19.7,4.9,21.7,2.5,34.8,4.4,39.3,4.9,12.7,1.2,23.9-1.1,27.9-2.3,4.1-1.2,7.6-2.1,9.3-8.9,1.7-6.8,3.7-14.8.5-28.4-3.2-13.6-1.8-17.4-2.4-25.7-.5-6.9-2.1-10.8-2.3-18.2-.3-7.8,2.2-18.6-4.5-29.3-5.9-9.3-13-10.3-18.3-8.8-3.4,1-7.8,18.7-11.6,29.8-2.6,7.5-7.3,22.8-3.4,24.8,3.9,2,1.1,16.6,3.9,18.9s-1.5,0-1.3,4c.3,4.4-3.3,4.6-3.3,4.6,0,0-26-.7-29.7,0-3.7.7-11.6,1.3-14.8,0-2.2-.9-10.9-2.1-10.3,1.1h0Z"/>
    <path class="st21" d="M314.5,236.6c-1.5,0-5.7-1.2-10.9-1.2-8.6-.1-9,.2-8.2-1.5,1.2-2.4,2.6-6.5,4-9.1,2.4-4.6,3.8-7.4,8.8-9.2,3.7-1.4,7.6-3.6,10.6-4.4,3.8-1.1,6.5-1.1,9.1-1.4,4.1-.5,4.8,1.7,3.7,3-1.1,1.2-4.9,1.5-9.1,2.5-2.9.7-4.9,2.3-5.6,2.5-1.3.4,4.4-.4,8.8-.3,4.6.1,9.6.7,11.2,1.4.9.4.9,2.9-1.3,3.2-1.7.2-4.7,0-7.1,0-2.3.1-4.2.3-5,.4-4.6.6,6.7.4,13.1,2,3.3.8,1.9,2.9.3,3.2-1.3.2-4.4-.3-7.8-.2-1.4,0-2.7,0-4.8.3-4.1.6,5.8,1.9,7.8,2,6.7.4,6.1,4.1.3,4.1-8.3,0-12.3.5-13.4,1.2-.3.2-2.3,1.5-4.3,1.5h0Z"/>
    <path class="st40" d="M212.5,190.8c1.5,4.6,1.9,10.4,2.4,15.3.3,3.4.7,6.3,1.4,8.2.8,2.3,1,3.6,1.2,4.6.2,1.2.4,2,1.3,3.2.7.9,1.7,1.6,2.6,2.3.4.4.8.7,1,1.2.1.5-.1,1-.7,1.7-1.2,1.6-1.4,2.9-1.3,4,.2,1.7,1.4,2.6,1.4,2.6.4.3.9.3,1.2,0,.3-.3.3-.9,0-1.2,0,0-.7-.6-.8-1.6-.1-.7.1-1.7.9-2.8.8-1,1-1.9,1-2.6,0-.8-.4-1.4-1-2-.8-.8-2.2-1.5-2.9-2.6-.7-.9-.9-1.6-1-2.5-.2-1.1-.4-2.5-1.3-4.9-.7-1.8-1-4.6-1.3-7.8-.5-5-.9-10.9-2.4-15.6-.1-.4-.6-.7-1.1-.6-.5.1-.7.6-.6,1h0Z"/>
    <path class="st40" d="M219.1,244.6c-3.4,1.6-8,4.6-11.7,7.7-3.4,2.8-6,5.6-6.7,7.5-.2.4,0,.9.5,1.1s1,0,1.1-.5c.6-1.7,3.2-4.2,6.2-6.7,4.7-3.9,10.8-7.7,14-8.5.8-.2.9-.7.9-.9,0-.2,0-.4-.2-.6-.1-.1-.4-.4-.9-.5-2.1-.5-11-.5-21.3,6.4-.4.3-.5.8-.2,1.2.3.4.8.5,1.2.2,7-4.7,13.4-6,17.1-6.2h0Z"/>
    <path class="st40" d="M233.2,249.4c-4,1.6-12,5-15.7,10.1-.3.4-.2.9.2,1.2s.9.2,1.2-.2c3.5-4.9,11.2-8,14.9-9.5.4-.2.7-.7.5-1.1-.2-.4-.7-.6-1.2-.4h0Z"/>
    <path class="st40" d="M198.5,282.8s31.7,6.7,42.1,7.9c7.4.8,15.6,0,20.2-1.5,1.3-.4,2.3-.9,3-1.4.6-.4.9-.9,1.1-1.3.2-.4,0-.9-.5-1.1s-1,0-1.1.5c0,.3-.4.5-.8.7-.5.3-1.3.6-2.2.9-4.4,1.4-12.3,2.2-19.4,1.4-10.4-1.2-41.9-7.8-41.9-7.8-.5-.1-.9.2-1,.6-.1.5.2.9.7,1h0Z"/>
    <path class="st40" d="M286,271.2c14.5,2.9,37.1,5.4,39.4,5.4s.9-.4.9-.8-.4-.8-.9-.8c-2.3,0-24.6-2.5-39-5.3-.5-.1-.9.2-1,.6,0,.5.2.9.7,1h0Z"/>
    <path class="st40" d="M321.3,238.4c3.8.4,10,1.8,14.7,4.1.4.2,1,0,1.2-.4.2-.4,0-.9-.4-1.1-4.7-2.4-11-3.8-15-4.3-1.8-.2-3.2-.2-3.8-.1-.7.1-.9.5-1,.8,0,.2,0,.5.1.8.1.2.4.4.9.6,4.5,2.1,12.4,3.4,20,11.8.3.4.9.4,1.2,0s.4-.8,0-1.2c-6.5-7.2-13.2-9.4-18-11.2h0Z"/>
    <path class="st40" d="M201.2,295.2s-.5,2.6,3.4,6.1c3.5,3.1,10.8,7.1,25.9,10.4.5.1.9-.2,1-.6s-.2-.9-.7-1c-14.7-3.2-21.7-7-25.1-10-3-2.7-2.9-4.6-2.9-4.6,0-.5-.3-.9-.8-.9s-.9.3-1,.7h0Z"/>
    <path class="st32" d="M294.9,171.6c-.1-2.3-.3-4.1-.3-5.7,0-1.4.3-2.6.9-3.7,1.6-2.6,5.8-4,9.6-4.3,7.1-.5,10.3,1.7,11,3.8.6,1.8,1,7,1,7,0,.7.7,1.2,1.4,1.1.7,0,1.2-.6,1.2-1.3,0,0-.5-5.7-1.1-7.6-.8-2.6-4.5-6.1-13.6-5.5-4.6.3-9.6,2.3-11.5,5.4-1.7,2.8-1.3,5.9-1,10.8,0,.7.6,1.2,1.3,1.1.7,0,1.2-.6,1.2-1.3h0Z"/>
    <path class="st32" d="M306.6,156.5c-.4-3.6-1-9.4-3.5-14.4-1.7-3.5-4.3-6.6-8.2-8.4-.6-.3-1.4,0-1.7.6-.3.6,0,1.3.6,1.6,4.2,2,6.6,5.7,8.1,9.6,1.5,4.1,2,8.4,2.3,11.3,0,.7.7,1.1,1.4,1.1s1.2-.7,1.1-1.3h0Z"/>
    <path class="st40" d="M292.9,171.9l3.2,28.3s.8,9.5,12.8,9.7c.4,0,.8-.3.8-.6,0-.3-.3-.6-.8-.6-10.5-.1-11.3-8.6-11.3-8.6h0s-3.2-28.3-3.2-28.3c0-.3-.4-.6-.8-.5s-.7.3-.7.7h0Z"/>
    <path class="st40" d="M308.9,207.9c2.1-.2,3.3.1,3.3,1.5,0,1.3-1.5,1.9-3.4,1.7-1.7-.2-3.1-.9-3.1-1.9,0-1,1.3-1.1,3.2-1.3h0Z"/>
    <path class="st40" d="M319.2,168.9l2.7,28.4s1.1,9.5-10.7,11.9c-.4,0-.8-.1-.9-.4,0-.3.2-.7.6-.7,10.5-2.1,9.4-10.5,9.4-10.5h0l-2.7-28.4c0-.3.3-.6.7-.7.4,0,.8.2.8.5h0Z"/>
    <path class="st40" d="M310.8,207.2c-2.1.1-3.3.7-2.9,2.1.3,1.3,1.9,1.6,3.7,1,1.7-.6,2.9-1.5,2.7-2.5-.3-.9-1.5-.8-3.4-.7h0Z"/>
    <path class="st32" d="M233.5,134.5c-5.9,5-12.5,11.6-14.1,28.9-1.7,17.8-1.8,39.3-1.8,39.3,0,.6.5,1.2,1.2,1.2.7,0,1.2-.5,1.2-1.2,0,0,.2-21.4,1.8-39.1,1.5-16.3,7.7-22.7,13.3-27.4.5-.4.6-1.2.1-1.7s-1.2-.5-1.7-.1h0Z"/>
    <path class="st20" d="M219.1,206.5c4.9.2,8.6,4.2,8.4,8.8s-4.3,8.2-9.2,8c-4.8-.2-8.6-4.2-8.4-8.8s4.3-8.2,9.2-8h0Z"/>
    <path class="st26" d="M218.9,210.2c2.7.1,4.9,2.4,4.8,5s-2.5,4.7-5.2,4.5-4.9-2.4-4.8-5,2.5-4.7,5.2-4.5h0Z"/>
    <path class="st5" d="M221,207.7v-4.5c0-1-.9-1.8-2.2-1.8-1.2,0-2.2.8-2.3,1.8v4.5c0,1,.9,1.8,2.2,1.8,1.2,0,2.2-.8,2.3-1.8h0Z"/>
    <path class="st2" d="M239.5,130.2s.9,3.1,3.5,12.1c5.9,20.3,17.8,62.6,22.1,62.7,3.1,0,13.1-30.1,19.6-54.7,3.4-13.1,4.6-19.2,5-19.3,1.1-.2,3.3-.4,6.6,3.9,5.9,7.6,13.3,20.5,12.6,23.7-.3,1.4-14.7,3.4-17.2,5.5-1.8,1.5,10.5,13.1,10.5,13.1,0,0-12.9,10.1-21.2,19.9-5.6,6.6-16.1,20.3-16.1,20.3,0,0-13.4-16.2-21.3-25.3-6.2-7-15.6-14.5-15.6-14.5l10.5-13.1s-12.1-7.1-15.6-6.5c-2.2.4,3-12,8.5-21.4,3.2-5.5,6.9-5.9,8.2-6.3h0Z"/>
    <path class="st40" d="M265.9,216.7s-13.4-16.3-21.4-25.4c-5.1-5.8-12.4-11.9-14.9-13.9l9.8-12.2c.2-.3.3-.6.2-1,0-.3-.3-.6-.7-.8,0,0-11.6-5.2-15.7-6.6-.6-.2-1.3.1-1.5.7s.1,1.3.7,1.5c3.2,1.1,11,4.5,14.1,5.9l-9.6,11.9c-.4.5-.3,1.2.2,1.6,0,0,9.4,7.4,15.5,14.3,8,9.1,21.3,25.3,21.3,25.3.4.5,1.2.6,1.7.2s.6-1.1.2-1.6h0Z"/>
    <path class="st40" d="M309.9,155.5c-.3-1-.7-2.1-1.1-3.3-.7-1.7-1.7-3.5-2.7-5.2-.8-1.4-1.7-2.8-2.5-4.1-.4-.6-.8-1.2-1.1-1.7-.5-.7-.9-1.3-1.3-1.7h0c-.4-.5-.7-.8-.8-1-.6-.6-1.2-.6-1.5-.5,0,0,0,0,0,0-.2,0-.4.2-.5.4,0,0,0,.1-.1.2s0,.1,0,.2c0,.1,0,.3,0,.5,0,.2.2.4.3.6h0c0,0,.2.2.3.2.5.5,1.4,1.7,2.4,3.3.5.8,1.1,1.6,1.7,2.6,1.2,1.9,2.4,4,3.4,6.1h0c.2.3.3.7.4,1,.3.8.6,1.5.9,2.2.3.9.5,1.7.4,2.4,0,0,0,.2,0,.2-.4.2-1.6.7-2.7,1-2.6.8-6.2,1.8-9.2,2.6h0c-1.2.3-2.3.7-3.3,1-.9.3-1.7.6-2.1.9-.6.4-.9,1-.7,2,.1.5.5,1.1,1,1.9.4.5.9,1.1,1.5,1.8.8.9,1.7,1.8,2.6,2.8.2.2.4.4.6.6.3.3.6.5.8.8,1.6,1.6,3.2,3,4.2,3.8-1,.9-2.7,2.6-4.8,4.7-.5.4-.9.9-1.4,1.4-7.3,7.2-18.2,18.4-23.8,25.9-.3.4-.3.9,0,1.2,0,.1.2.3.3.4.5.4,1.3.3,1.7-.3,5.2-7,15.1-17.1,22.2-24.2.5-.5,1-.9,1.4-1.4,4.1-4.1,7.1-6.9,7.1-6.9.2-.2.4-.5.4-.8s-.2-.6-.4-.8c0,0-2.2-1.9-4.6-4.2-.4-.4-.8-.8-1.2-1.2-.9-.8-1.7-1.7-2.5-2.6-.9-.9-1.6-1.8-2.1-2.6-.1-.2-.2-.4-.3-.6.6-.3,1.5-.6,2.5-.9,3.9-1.2,10-2.7,12.9-3.8.9-.3,1.5-.6,1.8-.9.4-.3.6-.6.6-.9,0-.3,0-.5,0-.8,0-.7,0-1.5-.3-2.5h0Z"/>
    <path class="st41" d="M345.4,160.2c-.2,0-.4,0-.6-.2-8.3-7.6-41.4-18.7-41.7-18.8-.4-.1-.7-.6-.5-1,.2-.4.6-.7,1.1-.5,1.4.5,33.8,11.3,42.4,19.2.3.3.3.8,0,1.2-.2.2-.4.3-.6.3h0Z"/>
    <path class="st41" d="M180.4,160.8c-.1,0-.3,0-.4-.1-.3-.2-.4-.6-.2-.9,8-11.3,47.3-22.7,48.9-23.2.4-.1.7,0,.8.4s0,.7-.5.8c-.4.1-40.4,11.8-48.2,22.6-.1.2-.3.3-.6.3Z"/>
  </g>
</svg>